<svg width="48" height="48" viewBox="0 0 48 48" fill="none" xmlns="http://www.w3.org/2000/svg">
<g clip-path="url(#clip0_2256_15267)">
<path d="M17.52 23.6999L20.61 17.6099C21.005 16.8327 21.2034 15.9705 21.1877 15.0987C21.172 14.227 20.9428 13.3724 20.52 12.6099C20.1324 11.888 19.5711 11.2741 18.8867 10.8236C18.2023 10.3731 17.4163 10.1004 16.5999 10.03C16.2675 9.99506 15.9324 9.99506 15.5999 10.03C14.7826 10.1059 13.9965 10.3819 13.3111 10.8336C12.6257 11.2853 12.0621 11.8988 11.67 12.6199C11.2457 13.3816 11.0146 14.2357 10.9972 15.1075C10.9797 15.9792 11.1763 16.8419 11.5699 17.6199L14.67 23.7099C15.0994 23.4485 15.5923 23.3102 16.0949 23.3102C16.5976 23.3102 17.0906 23.4485 17.52 23.7099V23.6999ZM13.36 16.6999C13.1135 16.213 12.9901 15.6731 13.0006 15.1275C13.011 14.5818 13.1551 14.047 13.42 13.5699C13.6547 13.1359 13.9928 12.7664 14.4045 12.4943C14.8162 12.2222 15.2887 12.0558 15.78 12.0099H16.0899H16.41C16.9013 12.0558 17.3737 12.2222 17.7854 12.4943C18.197 12.7664 18.5353 13.1359 18.77 13.5699C19.0396 14.0446 19.1887 14.5781 19.2044 15.1238C19.2201 15.6694 19.1019 16.2106 18.86 16.6999L16.12 22.0799L13.36 16.6999Z" fill="#495057"/>
<path d="M29.5406 10.0001C28.0881 10.0027 26.6957 10.5809 25.6686 11.6081C24.6415 12.6352 24.0632 14.0275 24.0605 15.4801V32.4801C24.0605 33.4084 23.6919 34.2986 23.0355 34.955C22.3791 35.6114 21.4888 35.9801 20.5605 35.9801C19.6323 35.9801 18.7421 35.6114 18.0857 34.955C17.4293 34.2986 17.0605 33.4084 17.0605 32.4801V28.7901C16.742 28.9154 16.4028 28.9798 16.0605 28.9801C15.7184 28.9789 15.3793 28.9145 15.0605 28.7901V32.4801C15.0605 33.9388 15.6401 35.3377 16.6715 36.3692C17.703 37.4006 19.1019 37.9801 20.5605 37.9801C22.0192 37.9801 23.4183 37.4006 24.4497 36.3692C25.4812 35.3377 26.0605 33.9388 26.0605 32.4801V15.4801C26.0605 14.5519 26.4293 13.6616 27.0857 13.0052C27.7421 12.3488 28.6323 11.9801 29.5605 11.9801C30.4888 11.9801 31.3791 12.3488 32.0355 13.0052C32.6919 13.6616 33.0605 14.5519 33.0605 15.4801V26.9501C33.3723 26.7991 33.7141 26.7205 34.0605 26.7201C34.406 26.7191 34.7474 26.7941 35.0605 26.9401V15.4801C35.0592 14.7575 34.9153 14.0421 34.637 13.3753C34.3586 12.7084 33.9513 12.103 33.4385 11.5939C32.9256 11.0848 32.3173 10.6819 31.6484 10.4084C30.9795 10.1349 30.2633 9.99613 29.5406 10.0001V10.0001Z" fill="#495057"/>
<path d="M17.5196 23.7C17.0902 23.4386 16.5972 23.3003 16.0945 23.3003C15.5918 23.3003 15.0989 23.4386 14.6696 23.7C14.1965 23.965 13.8095 24.3604 13.5547 24.8391C13.2999 25.3177 13.1878 25.8595 13.2321 26.3999C13.2763 26.9403 13.475 27.4567 13.8042 27.8875C14.1335 28.3183 14.5796 28.6455 15.0895 28.83C15.4083 28.9544 15.7473 29.0188 16.0895 29.02C16.4318 29.0197 16.771 28.9553 17.0895 28.83C17.6 28.6466 18.0469 28.3203 18.3772 27.89C18.7075 27.4598 18.9072 26.9437 18.9525 26.4031C18.9979 25.8626 18.8869 25.3205 18.6328 24.8412C18.3788 24.362 17.9924 23.9659 17.5196 23.7ZM15.2295 26.16C15.2275 25.9871 15.2772 25.8175 15.372 25.6729C15.4668 25.5283 15.6026 25.4153 15.762 25.3482C15.9214 25.2811 16.0971 25.2631 16.2668 25.2963C16.4364 25.3296 16.5924 25.4126 16.7146 25.5349C16.8369 25.6572 16.92 25.8131 16.9533 25.9828C16.9865 26.1525 16.9684 26.3282 16.9013 26.4876C16.8342 26.647 16.7212 26.7827 16.5766 26.8776C16.432 26.9724 16.2624 27.022 16.0895 27.02C15.8622 27.0174 15.645 26.926 15.4843 26.7653C15.3236 26.6045 15.2321 26.3873 15.2295 26.16Z" fill="#61ABFF"/>
<path d="M35.0101 32.46V32.22C35.4242 32.0306 35.7751 31.7264 36.0215 31.3436C36.2679 30.9607 36.3993 30.5152 36.4001 30.0599V29.0599C36.3949 28.4313 36.1421 27.83 35.6967 27.3864C35.2512 26.9428 34.6488 26.6925 34.0201 26.6899C33.6737 26.6903 33.3319 26.7689 33.0201 26.9199C32.6141 27.1112 32.2707 27.4139 32.0299 27.7928C31.7891 28.1716 31.6609 28.6111 31.6602 29.0599V30.0599C31.6609 30.5088 31.7891 30.9483 32.0299 31.3271C32.2707 31.706 32.6141 32.0087 33.0201 32.2V33.28C33.0201 33.5452 33.1255 33.7995 33.313 33.9871C33.5005 34.1746 33.7549 34.28 34.0201 34.28C34.1902 34.28 34.3565 34.3304 34.4979 34.4249C34.6394 34.5194 34.7496 34.6537 34.8147 34.8109C34.8798 34.968 34.8967 35.1409 34.8635 35.3077C34.8303 35.4746 34.7484 35.6278 34.6282 35.748C34.5079 35.8683 34.3547 35.9502 34.1879 35.9834C34.021 36.0166 33.8482 35.9996 33.691 35.9345C33.5339 35.8694 33.3996 35.7592 33.3051 35.6177C33.2106 35.4763 33.1602 35.31 33.1602 35.14C33.1602 34.8747 33.0547 34.6204 32.8672 34.4329C32.6797 34.2453 32.4254 34.14 32.1602 34.14C31.8949 34.14 31.6405 34.2453 31.453 34.4329C31.2655 34.6204 31.1602 34.8747 31.1602 35.14C31.1603 35.6622 31.3032 36.1744 31.5737 36.621C31.8443 37.0677 32.232 37.4318 32.6947 37.6738C33.1574 37.9158 33.6776 38.0265 34.1987 37.9938C34.7199 37.9612 35.2223 37.7865 35.6512 37.4887C36.0802 37.1909 36.4194 36.7813 36.6321 36.3044C36.8448 35.8275 36.9228 35.3015 36.8578 34.7833C36.7928 34.2652 36.5871 33.7747 36.2632 33.3652C35.9392 32.9556 35.5094 32.6425 35.0201 32.46H35.0101ZM34.4001 29.09V30.09C34.4091 30.1443 34.406 30.2 34.3912 30.2531C34.3765 30.3061 34.3504 30.3554 34.3147 30.3974C34.279 30.4394 34.2347 30.4731 34.1847 30.4963C34.1347 30.5194 34.0802 30.5314 34.0251 30.5314C33.97 30.5314 33.9156 30.5194 33.8656 30.4963C33.8156 30.4731 33.7711 30.4394 33.7355 30.3974C33.6998 30.3554 33.6737 30.3061 33.6589 30.2531C33.6442 30.2 33.6412 30.1443 33.6501 30.09V29.09C33.6647 29.001 33.7104 28.9201 33.7791 28.8618C33.8477 28.8034 33.935 28.7714 34.0251 28.7714C34.1153 28.7714 34.2024 28.8034 34.2711 28.8618C34.3398 28.9201 34.3856 29.001 34.4001 29.09Z" fill="#61ABFF"/>
</g>
<defs>
<clipPath id="clip0_2256_15267">
<rect width="25.87" height="28" fill="white" transform="translate(11 10)"/>
</clipPath>
</defs>
</svg>
