<svg width="48" height="48" viewBox="0 0 48 48" fill="none" xmlns="http://www.w3.org/2000/svg">
<g clip-path="url(#clip0_2256_15362)">
<path d="M17.6906 10.04H14.9205H14.8105C15.0453 10.0805 15.258 10.2034 15.4102 10.3868C15.5623 10.5701 15.644 10.8018 15.6406 11.04V12.04H17.6906C17.9558 12.04 18.2101 11.9347 18.3976 11.7471C18.5852 11.5596 18.6906 11.3053 18.6906 11.04C18.6906 10.7748 18.5852 10.5204 18.3976 10.3329C18.2101 10.1453 17.9558 10.04 17.6906 10.04Z" fill="#61ABFF"/>
<path d="M17.6906 13.03H15.6406V15.03H17.6906C17.9558 15.03 18.2102 14.9247 18.3977 14.7371C18.5852 14.5496 18.6906 14.2952 18.6906 14.03C18.6906 13.7648 18.5852 13.5104 18.3977 13.3229C18.2102 13.1353 17.9558 13.03 17.6906 13.03Z" fill="#61ABFF"/>
<path d="M17.6906 16.02H15.6406V18.02H17.6906C17.9558 18.02 18.2102 17.9146 18.3977 17.7271C18.5852 17.5396 18.6906 17.2852 18.6906 17.02C18.6906 16.7548 18.5852 16.5005 18.3977 16.3129C18.2102 16.1254 17.9558 16.02 17.6906 16.02Z" fill="#61ABFF"/>
<path d="M31.7791 31.9899H30.7791V34.9899C30.7791 35.2551 30.6737 35.5095 30.4862 35.697C30.2987 35.8846 30.0443 35.9899 29.7791 35.9899H26.2891C26.0238 35.9899 25.7695 35.8846 25.582 35.697C25.3944 35.5095 25.2891 35.2551 25.2891 34.9899V31.9899H24.2891C24.0479 31.9926 23.8139 31.9081 23.6301 31.7519C23.4464 31.5957 23.3252 31.3783 23.2891 31.1399V34.9699C23.2891 35.7656 23.6051 36.5286 24.1677 37.0912C24.7303 37.6538 25.4934 37.9699 26.2891 37.9699H29.7791C30.5747 37.9699 31.3378 37.6538 31.9004 37.0912C32.463 36.5286 32.7791 35.7656 32.7791 34.9699V31.2499C32.7205 31.468 32.5897 31.6599 32.4081 31.7943C32.2266 31.9287 32.0048 31.9976 31.7791 31.9899Z" fill="#61ABFF"/>
<path d="M30.9098 29.99V29.97H25.0898L25.0998 29.99H30.9098Z" fill="#61ABFF"/>
<path d="M34.4294 11.0299C34.1453 10.7122 33.7969 10.4588 33.4072 10.2863C33.0175 10.1139 32.5955 10.0265 32.1694 10.0299H23.8094C23.3833 10.0265 22.9613 10.1139 22.5716 10.2863C22.1819 10.4588 21.8335 10.7122 21.5494 11.0299C21.2693 11.3517 21.0612 11.7296 20.9387 12.1383C20.8163 12.547 20.7824 12.9771 20.8394 13.3999L23.2294 31.1198C23.2655 31.3583 23.3867 31.5756 23.5704 31.7318C23.7542 31.888 23.9882 31.9726 24.2294 31.9699H31.7894C32.0151 31.9776 32.2369 31.9086 32.4185 31.7743C32.6 31.6399 32.7308 31.4481 32.7894 31.2299C32.795 31.1867 32.795 31.143 32.7894 31.0999L35.1594 13.3799C35.2107 12.9588 35.1722 12.5316 35.0464 12.1266C34.9206 11.7215 34.7103 11.3477 34.4294 11.0299V11.0299ZM30.9094 29.9699H25.0994L23.2294 16.0799H30.7394C31.0046 16.0799 31.2589 15.9745 31.4465 15.787C31.634 15.5994 31.7394 15.3451 31.7394 15.0799C31.7394 14.8147 31.634 14.5603 31.4465 14.3728C31.2589 14.1852 31.0046 14.0799 30.7394 14.0799H22.9894L22.8594 13.1399C22.8392 12.9973 22.8501 12.8521 22.8912 12.7141C22.9324 12.5761 23.0028 12.4486 23.0978 12.3404C23.1927 12.2321 23.3099 12.1457 23.4414 12.0869C23.5728 12.0281 23.7154 11.9984 23.8594 11.9999H32.2194C32.3624 11.9986 32.504 12.0281 32.6347 12.0863C32.7653 12.1445 32.882 12.23 32.9768 12.3371C33.0715 12.4442 33.1422 12.5704 33.1841 12.7072C33.2259 12.8439 33.238 12.9881 33.2194 13.1299L30.9094 29.9699Z" fill="#495057"/>
<path d="M14.8101 10.06C14.7535 10.0552 14.6967 10.0552 14.6401 10.06C14.3749 10.06 14.1205 10.1654 13.9329 10.3529C13.7454 10.5405 13.6401 10.7948 13.6401 11.06V19.2901L12.0701 23.13C12.0223 23.2509 11.9985 23.38 12.0001 23.51V37C12.0001 37.2652 12.1054 37.5196 12.293 37.7071C12.4805 37.8946 12.7349 38 13.0001 38C13.2653 38 13.5196 37.8946 13.7072 37.7071C13.8947 37.5196 14.0001 37.2652 14.0001 37V23.7L15.5701 19.8501C15.6135 19.7279 15.6371 19.5996 15.6401 19.47V11.05C15.6412 10.8135 15.5583 10.5843 15.4064 10.403C15.2544 10.2218 15.0432 10.1002 14.8101 10.06Z" fill="#495057"/>
</g>
<defs>
<clipPath id="clip0_2256_15362">
<rect width="23.17" height="28" fill="white" transform="translate(12 10)"/>
</clipPath>
</defs>
</svg>
