<svg width="48" height="48" viewBox="0 0 48 48" fill="none" xmlns="http://www.w3.org/2000/svg">
<g clip-path="url(#clip0_2256_15312)">
<path d="M35.1227 25.2133C34.848 25.2133 34.5846 25.0986 34.3904 24.8945C34.1962 24.6904 34.087 24.4137 34.087 24.1251C34.1109 22.5373 33.6619 20.9814 32.8028 19.6749C31.9438 18.3683 30.7176 17.3765 29.2958 16.8382C27.8739 16.2998 26.3274 16.2418 24.8726 16.6723C23.4179 17.1027 22.1275 18.0001 21.182 19.2389C21.0464 19.4088 20.8646 19.5312 20.661 19.5895C20.4574 19.6479 20.2417 19.6394 20.0427 19.5654C19.3488 19.3102 18.6068 19.2332 17.8788 19.3407C17.1507 19.4482 16.4576 19.7372 15.8575 20.1834C15.2574 20.6297 14.7677 21.2203 14.4291 21.906C14.0905 22.5917 13.913 23.3526 13.9113 24.1251C13.9113 24.4137 13.8022 24.6904 13.608 24.8945C13.4137 25.0986 13.1502 25.2133 12.8756 25.2133C12.6009 25.2133 12.3374 25.0986 12.1431 24.8945C11.9489 24.6904 11.8398 24.4137 11.8398 24.1251C11.8398 23.2047 12.0124 22.2934 12.3476 21.4432C12.6828 20.5929 13.1741 19.8203 13.7934 19.1695C14.4128 18.5188 15.148 18.0026 15.9573 17.6504C16.7665 17.2982 17.6339 17.1169 18.5098 17.1169C19.0291 17.1187 19.5468 17.1807 20.0531 17.3019C21.3395 15.8673 23.0079 14.8739 24.8403 14.4516C26.6726 14.0293 28.5836 14.1977 30.3234 14.9347C32.0632 15.6718 33.5509 16.9433 34.5919 18.583C35.633 20.2226 36.1789 22.1542 36.1584 24.1251C36.1584 24.4137 36.0493 24.6904 35.8551 24.8945C35.6609 25.0986 35.3974 25.2133 35.1227 25.2133Z" fill="#61ABFF"/>
<path d="M15.0713 19.794C14.8615 19.7925 14.6569 19.7241 14.4849 19.5977C14.3129 19.4714 14.1815 19.2932 14.108 19.0866C13.6507 17.824 13.6895 16.4221 14.2159 15.1895C14.7423 13.9568 15.7132 12.9943 16.9149 12.5138C18.1167 12.0332 19.4508 12.074 20.624 12.627C21.7972 13.1801 22.7132 14.2001 23.1705 15.4628C23.2681 15.7327 23.2596 16.0322 23.1469 16.2955C23.0342 16.5587 22.8267 16.7642 22.5699 16.8667C22.313 16.9691 22.028 16.9602 21.7774 16.8418C21.5268 16.7235 21.3313 16.5054 21.2338 16.2355C21.1036 15.8777 20.9077 15.5504 20.6571 15.2721C20.4065 14.9939 20.1063 14.7703 19.7735 14.6141C19.4404 14.456 19.0809 14.3687 18.7155 14.357C18.3502 14.3454 17.9863 14.4096 17.6447 14.5461C17.303 14.6826 16.9904 14.8887 16.7248 15.1525C16.4591 15.4162 16.2457 15.7325 16.0967 16.0831C15.8114 16.7735 15.7892 17.5525 16.0346 18.2596C16.1327 18.5281 16.1256 18.8265 16.015 19.0895C15.9044 19.3525 15.6991 19.5589 15.4442 19.6634C15.3299 19.7337 15.2029 19.7782 15.0713 19.794Z" fill="#61ABFF"/>
<path d="M31.3841 37.9999H16.7184C16.1975 38.0001 15.6874 37.8434 15.2486 37.5483C14.8099 37.2532 14.4609 36.8321 14.243 36.3349L9.63415 25.79C9.56345 25.625 9.53311 25.444 9.54577 25.2635C9.55843 25.083 9.61363 24.9086 9.70659 24.7562C9.80017 24.603 9.92895 24.4768 10.081 24.3894C10.2329 24.3019 10.4034 24.2559 10.5767 24.2556H37.5053C37.6785 24.2559 37.849 24.3019 38.001 24.3894C38.153 24.4768 38.2816 24.603 38.3752 24.7562C38.4682 24.9086 38.5235 25.083 38.5362 25.2635C38.5488 25.444 38.5184 25.625 38.4477 25.79L33.8492 36.3349C33.631 36.8296 33.2833 37.2488 32.8468 37.5436C32.4103 37.8385 31.903 37.9967 31.3841 37.9999V37.9999ZM12.151 26.443L16.0763 35.4426C16.1282 35.5608 16.2116 35.6606 16.3164 35.7301C16.4211 35.7996 16.5428 35.8358 16.6667 35.8343H31.3841C31.508 35.8358 31.6297 35.7996 31.7345 35.7301C31.8392 35.6606 31.9225 35.5608 31.9744 35.4426L35.8998 26.443H12.151Z" fill="#495057"/>
<path d="M35.5278 16.2682C34.9379 16.2682 34.3611 16.0844 33.8706 15.74C33.38 15.3956 32.9978 14.9061 32.772 14.3335C32.5463 13.7608 32.4871 13.1306 32.6022 12.5227C32.7173 11.9147 33.0014 11.3563 33.4186 10.918C33.8357 10.4796 34.3672 10.1811 34.9459 10.0602C35.5245 9.93928 36.1243 10.0014 36.6694 10.2386C37.2144 10.4758 37.6802 10.8775 38.008 11.3929C38.3358 11.9083 38.5107 12.5143 38.5107 13.1341C38.5107 13.5457 38.4335 13.9532 38.2836 14.3335C38.1337 14.7137 37.914 15.0592 37.637 15.3502C37.3601 15.6412 37.0312 15.8721 36.6694 16.0296C36.3075 16.1871 35.9195 16.2682 35.5278 16.2682ZM35.5278 12.1765C35.3476 12.1765 35.1713 12.2327 35.0215 12.3379C34.8716 12.4431 34.7548 12.5926 34.6858 12.7676C34.6168 12.9426 34.5988 13.1351 34.634 13.3209C34.6691 13.5067 34.7558 13.6773 34.8833 13.8113C35.0107 13.9452 35.1733 14.0364 35.3501 14.0734C35.5269 14.1103 35.7101 14.0913 35.8766 14.0188C36.0432 13.9464 36.1855 13.8236 36.2856 13.6661C36.3858 13.5087 36.4392 13.3235 36.4392 13.1341C36.4366 12.881 36.3397 12.6391 36.1693 12.4601C35.999 12.2811 35.7687 12.1793 35.5278 12.1765Z" fill="#61ABFF"/>
<path d="M31.9545 30.2846H12.2759C12.0013 30.2846 11.7378 30.1699 11.5435 29.9659C11.3493 29.7618 11.2402 29.485 11.2402 29.1964C11.2402 28.9078 11.3493 28.6309 11.5435 28.4268C11.7378 28.2228 12.0013 28.1082 12.2759 28.1082H31.9545C32.2292 28.1082 32.4926 28.2228 32.6868 28.4268C32.881 28.6309 32.9902 28.9078 32.9902 29.1964C32.9902 29.485 32.881 29.7618 32.6868 29.9659C32.4926 30.1699 32.2292 30.2846 31.9545 30.2846Z" fill="#495057"/>
</g>
<defs>
<clipPath id="clip0_2256_15312">
<rect width="29" height="28" fill="white" transform="translate(9.5 10)"/>
</clipPath>
</defs>
</svg>
