<svg width="48" height="48" viewBox="0 0 48 48" fill="none" xmlns="http://www.w3.org/2000/svg">
<g clip-path="url(#clip0_2256_15324)">
<path d="M25.4297 17.3999C25.0232 17.3947 24.6248 17.2855 24.2725 17.0827C23.9202 16.8798 23.6257 16.5901 23.4171 16.2412C23.2086 15.8923 23.0929 15.4957 23.0811 15.0894C23.0693 14.6831 23.1617 14.2804 23.3496 13.92C23.7348 13.1848 24.2268 12.5108 24.8096 11.92C25.6254 11.0865 26.6207 10.4504 27.7196 10.06C28.0893 9.94175 28.4845 9.92779 28.8616 10.0196C29.2387 10.1115 29.5833 10.3055 29.8572 10.5805C30.1311 10.8555 30.3239 11.2007 30.4143 11.5782C30.5048 11.9556 30.4893 12.3507 30.3697 12.72C29.9828 13.8177 29.346 14.8105 28.5097 15.62C27.9208 16.2051 27.2464 16.6973 26.5097 17.0799C26.1786 17.267 25.8093 17.3765 25.4297 17.3999ZM28.3596 12C27.561 12.2849 26.839 12.7503 26.2497 13.36C25.8089 13.7937 25.4379 14.2929 25.1497 14.8399C25.1098 14.9079 25.094 14.9873 25.1049 15.0654C25.1158 15.1434 25.1527 15.2155 25.2096 15.2699C25.2636 15.331 25.3377 15.3707 25.4185 15.3817C25.4992 15.3927 25.5813 15.3743 25.6497 15.3299C26.1925 15.0439 26.6883 14.6763 27.1197 14.24C27.728 13.6477 28.1961 12.9267 28.4897 12.1299C28.4995 12.1151 28.5048 12.0977 28.5048 12.0799C28.5048 12.0621 28.4995 12.0448 28.4897 12.03C28.4773 12.0073 28.458 11.9892 28.4346 11.9784C28.4112 11.9676 28.3849 11.9647 28.3596 11.97V12Z" fill="#6BACFF"/>
<path d="M22.7307 17.3999C22.3407 17.3949 21.9572 17.2991 21.6107 17.12C20.874 16.7374 20.1996 16.2451 19.6107 15.66C18.7687 14.8512 18.1311 13.8538 17.7507 12.75C17.6293 12.3819 17.6136 11.987 17.7055 11.6105C17.7975 11.2339 17.9933 10.8907 18.2707 10.62C18.5434 10.3455 18.8866 10.1517 19.2624 10.0599C19.6383 9.96816 20.0323 9.98201 20.4007 10.1C21.4984 10.4929 22.4931 11.1287 23.3106 11.9599C23.8936 12.5483 24.3828 13.2229 24.7607 13.9599C24.9483 14.3197 25.0408 14.7214 25.0294 15.1269C25.018 15.5325 24.9032 15.9284 24.6958 16.277C24.4884 16.6257 24.1954 16.9155 23.8445 17.1191C23.4935 17.3226 23.0963 17.433 22.6907 17.4399L22.7307 17.3999ZM19.7907 12C19.7679 11.9936 19.7436 11.9936 19.7207 12C19.7108 12.0148 19.7055 12.0322 19.7055 12.05C19.7055 12.0678 19.7108 12.0852 19.7207 12.1C20.0142 12.8967 20.4823 13.6176 21.0907 14.2099C21.5221 14.6463 22.0178 15.0139 22.5606 15.3C22.629 15.3444 22.7111 15.3627 22.7918 15.3517C22.8726 15.3407 22.9467 15.3011 23.0007 15.24C23.0577 15.1855 23.0946 15.1134 23.1054 15.0354C23.1163 14.9573 23.1005 14.8779 23.0606 14.81C22.7658 14.2671 22.3955 13.7688 21.9607 13.3299C21.3771 12.7229 20.6621 12.2576 19.8707 11.97L19.7907 12Z" fill="#6BACFF"/>
<path d="M35.2296 25.48C35.0744 22.814 33.9658 20.2926 32.1062 18.376C30.2465 16.4595 27.7597 15.2754 25.0996 15.04C24.7696 15.04 24.4196 14.99 24.0996 14.99C23.7796 14.99 23.6296 14.99 23.3896 14.99C20.6674 15.1389 18.0961 16.2879 16.1693 18.2166C14.2424 20.1453 13.0958 22.7176 12.9495 25.4399C11.7035 26.7383 11.0114 28.4704 11.0196 30.27C11.0196 32.1265 11.757 33.907 13.0698 35.2197C14.3825 36.5325 16.1631 37.27 18.0196 37.27H30.0996C31.9561 37.27 33.7365 36.5325 35.0493 35.2197C36.362 33.907 37.0996 32.1265 37.0996 30.27C37.1136 28.4926 36.4441 26.7777 35.2296 25.48V25.48ZM30.1196 35.35H18.0396C17.0216 35.3681 16.0223 35.075 15.1754 34.5098C14.3284 33.9447 13.6743 33.1344 13.3002 32.1874C12.9262 31.2405 12.8503 30.2018 13.0825 29.2105C13.3147 28.2192 13.8439 27.3224 14.5996 26.64C14.6947 26.5494 14.771 26.4409 14.8242 26.3208C14.8774 26.2007 14.9065 26.0713 14.9096 25.9399C14.9485 23.9783 15.6196 22.0816 16.8232 20.532C18.0268 18.9825 19.6985 17.8629 21.5895 17.34L17.7396 21.4C17.5566 21.5922 17.4575 21.8494 17.4641 22.1147C17.4706 22.3801 17.5823 22.6319 17.7746 22.8149C17.9669 22.9979 18.224 23.0971 18.4893 23.0905C18.7547 23.084 19.0065 22.9723 19.1895 22.78L24.1895 17.55L29.0196 22.64C29.206 22.8108 29.45 22.9047 29.7028 22.9028C29.9556 22.9009 30.1983 22.8033 30.382 22.6297C30.5658 22.4561 30.677 22.2193 30.6932 21.967C30.7094 21.7148 30.6295 21.4657 30.4696 21.27L26.7896 17.3799C28.6418 17.9327 30.2704 19.0598 31.4405 20.5983C32.6106 22.1369 33.2617 24.0074 33.2996 25.9399C33.3028 26.0713 33.3318 26.2007 33.385 26.3208C33.4382 26.4409 33.5145 26.5494 33.6096 26.64C34.3652 27.3224 34.8945 28.2192 35.1267 29.2105C35.3588 30.2018 35.2829 31.2405 34.9089 32.1874C34.5349 33.1344 33.8807 33.9447 33.0338 34.5098C32.1868 35.075 31.1876 35.3681 30.1696 35.35H30.1196Z" fill="#495057"/>
</g>
<defs>
<clipPath id="clip0_2256_15324">
<rect width="26.16" height="27.36" fill="white" transform="translate(11 10)"/>
</clipPath>
</defs>
</svg>
