<svg width="48" height="48" viewBox="0 0 48 48" fill="none" xmlns="http://www.w3.org/2000/svg">
<g clip-path="url(#clip0_2256_15281)">
<path d="M20.3793 10H13.3793C12.7339 10.0026 12.1159 10.2609 11.6604 10.7182C11.205 11.1755 10.9492 11.7946 10.9492 12.44V24.2C10.9482 24.0862 10.9722 23.9736 11.0193 23.87C11.0156 23.8401 11.0156 23.8099 11.0193 23.78C11.0123 23.7471 11.0123 23.713 11.0193 23.68L11.8593 22.38L12.8593 20.84V12.44C12.8593 12.325 12.9042 12.2146 12.9845 12.1324C13.0649 12.0502 13.1743 12.0026 13.2892 12H20.2892C20.4059 12 20.5179 12.0464 20.6004 12.1289C20.6829 12.2114 20.7293 12.3233 20.7293 12.44V20.84L21.7293 22.38L22.5692 23.68V23.78V23.87C22.6068 23.9765 22.6304 24.0874 22.6393 24.2V12.44C22.6387 11.8236 22.4056 11.23 21.9867 10.7778C21.5678 10.3255 20.9939 10.0478 20.3793 10Z" fill="#61ABFF"/>
<path d="M22.7194 23.8699V23.7799V23.6799L21.8794 22.3799L20.8794 20.8399L19.8794 19.3199V14.4099C19.8794 14.1447 19.774 13.8903 19.5865 13.7028C19.3989 13.5152 19.1446 13.4099 18.8794 13.4099H15.0194C14.7542 13.4099 14.4998 13.5152 14.3123 13.7028C14.1248 13.8903 14.0194 14.1447 14.0194 14.4099V19.3199L13.0194 20.8399L12.0194 22.3799L11.1794 23.6799C11.1723 23.7128 11.1723 23.7469 11.1794 23.7799C11.1756 23.8098 11.1756 23.84 11.1794 23.8699C11.1322 23.9734 11.1084 24.0861 11.1094 24.1999V36.9999C11.1094 37.2651 11.2147 37.5194 11.4023 37.707C11.5898 37.8945 11.8442 37.9999 12.1094 37.9999H21.9294C22.1946 37.9999 22.449 37.8945 22.6365 37.707C22.824 37.5194 22.9294 37.2651 22.9294 36.9999V24.1999C22.8764 24.0799 22.8056 23.9687 22.7194 23.8699V23.8699ZM12.9694 25.2199H20.7893V35.9999H12.9694V25.2199ZM15.9694 15.4099H17.8294V18.6099H15.9694V15.4099ZM15.5094 20.6099H18.2795L19.9694 23.2199H13.8294L15.5094 20.6099Z" fill="#495057"/>
<path d="M34.7192 31.3299C34.6767 31.2722 34.6555 31.2015 34.6592 31.1299V24.8799C34.6592 24.7799 34.6593 24.6999 34.7293 24.6899C34.988 24.5325 35.2293 24.3482 35.4492 24.1399C35.9724 23.6239 36.3211 22.957 36.4462 22.2329C36.5713 21.5087 36.4665 20.7636 36.1467 20.102C35.8269 19.4403 35.3081 18.8954 34.663 18.5435C34.0178 18.1916 33.2786 18.0505 32.5492 18.1399C31.8873 18.1732 31.2489 18.3953 30.7092 18.7799C30.1683 18.3977 29.5306 18.1759 28.8693 18.1399C28.1399 18.0505 27.4008 18.1916 26.7556 18.5435C26.1105 18.8954 25.5915 19.4403 25.2717 20.102C24.9519 20.7636 24.8473 21.5087 24.9724 22.2329C25.0975 22.957 25.446 23.6239 25.9692 24.1399C26.1908 24.3505 26.4357 24.5351 26.6992 24.6899C26.7427 24.7433 26.7642 24.8112 26.7593 24.8799V31.1499C26.7638 31.1834 26.7597 31.2175 26.7474 31.2489C26.7352 31.2804 26.7151 31.3083 26.6892 31.3299C26.0446 31.7073 25.5343 32.2768 25.2295 32.9587C24.9247 33.6406 24.8409 34.4008 24.9898 35.1327C25.1386 35.8647 25.5125 36.5317 26.0593 37.0404C26.6062 37.5492 27.2984 37.8742 28.0392 37.9699H28.5193C29.3127 37.9724 30.0839 37.7083 30.7092 37.2199C31.2533 37.596 31.8892 37.8172 32.5492 37.8599C33.2786 37.9493 34.0178 37.8082 34.663 37.4563C35.3081 37.1045 35.8269 36.5595 36.1467 35.8979C36.4665 35.2362 36.5713 34.4911 36.4462 33.7669C36.3211 33.0428 35.9724 32.3759 35.4492 31.8599C35.2317 31.6501 34.986 31.4718 34.7192 31.3299V31.3299ZM34.2593 35.2499C34.0878 35.4896 33.8527 35.6765 33.5806 35.7896C33.3084 35.9027 33.0101 35.9375 32.7192 35.8899C32.4845 35.9005 32.2515 35.8452 32.0465 35.7304C31.8415 35.6155 31.6727 35.4456 31.5592 35.2399C31.4704 35.0939 31.3456 34.9732 31.1968 34.8891C31.048 34.8051 30.8801 34.7606 30.7092 34.7599C30.5383 34.7606 30.3705 34.8051 30.2217 34.8891C30.0729 34.9732 29.9481 35.0939 29.8593 35.2399C29.795 35.3489 29.7178 35.4496 29.6293 35.5399C29.4564 35.7111 29.2467 35.8406 29.0162 35.9186C28.7858 35.9966 28.5405 36.0209 28.2992 35.9899C28.0512 35.9539 27.8148 35.8612 27.6084 35.719C27.402 35.5768 27.2312 35.3889 27.1093 35.1699C27.0031 34.9755 26.9401 34.7607 26.9246 34.5398C26.909 34.3189 26.9414 34.0972 27.0193 33.8899C27.1321 33.5424 27.3711 33.2498 27.6892 33.0699C28.0196 32.871 28.2922 32.5892 28.4799 32.2523C28.6676 31.9155 28.7639 31.5355 28.7593 31.1499V24.8799C28.7657 24.4927 28.6702 24.1105 28.4824 23.7718C28.2946 23.4331 28.021 23.1497 27.6892 22.9499C27.581 22.8846 27.4804 22.8075 27.3893 22.7199C27.1566 22.5103 26.9953 22.233 26.9281 21.927C26.8609 21.6211 26.8913 21.3017 27.0148 21.0139C27.1383 20.726 27.3488 20.4841 27.6168 20.3219C27.8849 20.1598 28.197 20.0857 28.5093 20.1099H28.6992C28.9338 20.1005 29.1663 20.1562 29.3711 20.271C29.5759 20.3857 29.7449 20.555 29.8593 20.7599C29.9489 20.9046 30.074 21.024 30.2228 21.1068C30.3715 21.1897 30.539 21.2331 30.7092 21.2331C30.8795 21.2331 31.0469 21.1897 31.1957 21.1068C31.3444 21.024 31.4695 20.9046 31.5592 20.7599C31.6753 20.5542 31.846 20.3845 32.0525 20.2698C32.259 20.1551 32.4933 20.0997 32.7293 20.1099C33.0181 20.072 33.3117 20.1113 33.5805 20.2237C33.8492 20.3361 34.0835 20.5177 34.2593 20.7499C34.4614 21.0574 34.549 21.4261 34.507 21.7917C34.4649 22.1572 34.2959 22.4963 34.0293 22.7499C33.9402 22.8398 33.8392 22.9172 33.7293 22.9799C33.3974 23.1797 33.124 23.4631 32.9362 23.8018C32.7484 24.1405 32.6528 24.5227 32.6592 24.9099V31.1599C32.652 31.5487 32.7472 31.9325 32.9349 32.2729C33.1227 32.6134 33.3966 32.8986 33.7293 33.0999C33.8346 33.1611 33.9321 33.2349 34.0193 33.3199C34.2625 33.5736 34.4142 33.901 34.4504 34.2506C34.4867 34.6001 34.4053 34.9518 34.2192 35.2499H34.2593Z" fill="#495057"/>
</g>
<defs>
<clipPath id="clip0_2256_15281">
<rect width="25.47" height="28" fill="white" transform="translate(11 10)"/>
</clipPath>
</defs>
</svg>
