<svg width="48" height="48" viewBox="0 0 48 48" fill="none" xmlns="http://www.w3.org/2000/svg">
<g clip-path="url(#clip0_2256_15335)">
<path d="M36.1804 24.4099C35.9485 23.9962 35.6701 23.6103 35.3505 23.2599C34.8757 22.7251 34.3187 22.2694 33.7004 21.9099C33.4125 21.7425 33.1115 21.5987 32.8004 21.4799C31.6607 21.0281 30.4171 20.9057 29.2112 21.1267C28.0053 21.3477 26.8858 21.9033 25.9805 22.7299L26.1005 24.0299L26.2504 25.6499C26.6247 24.8655 27.2127 24.2027 27.9468 23.7375C28.6809 23.2722 29.5313 23.0235 30.4004 23.0199C30.9515 23.0242 31.4971 23.1293 32.0104 23.3299C32.3252 23.444 32.627 23.5915 32.9104 23.7699C33.2101 23.9627 33.4855 24.191 33.7305 24.4499C33.8605 24.5899 33.9805 24.7399 34.1005 24.8899C34.4762 25.3935 34.745 25.9686 34.8904 26.5799C34.9831 26.929 35.0302 27.2887 35.0304 27.6499C35.0324 28.2754 34.9065 28.8948 34.6604 29.4699C34.3838 30.1004 33.9716 30.6621 33.453 31.115C32.9344 31.5678 32.3224 31.9007 31.6604 32.0899C31.3354 32.1876 30.9995 32.2447 30.6604 32.2599H30.4504C30.1819 32.258 29.914 32.2313 29.6504 32.1799C28.4731 31.9737 27.4223 31.3174 26.7205 30.3499L26.8704 31.9699L26.9905 33.2699C27.7171 33.723 28.5257 34.0289 29.3704 34.1699C29.7009 34.2251 30.0352 34.2551 30.3704 34.2599H30.4504C30.765 34.2568 31.0789 34.2335 31.3904 34.1899C32.1683 34.0823 32.9205 33.8349 33.6105 33.4599C33.9632 33.267 34.2979 33.0427 34.6105 32.7899C34.9767 32.4912 35.3118 32.1561 35.6105 31.7899C36.4345 30.7596 36.9318 29.5066 37.0387 28.1916C37.1456 26.8767 36.8572 25.5598 36.2104 24.4099H36.1804Z" fill="#61ABFF"/>
<path d="M37.4406 15.17C37.2257 15.0654 36.9805 15.0412 36.7494 15.1017C36.5183 15.1622 36.3165 15.3036 36.1805 15.5C34.89 17.3769 33.7625 19.3608 32.8105 21.43C33.1216 21.5489 33.4226 21.6927 33.7106 21.86C34.3288 22.2195 34.8858 22.6752 35.3606 23.21C35.6799 23.5766 35.955 23.9793 36.1805 24.41C36.5812 21.7049 37.1727 19.0316 37.9506 16.41C38.0342 16.1769 38.0283 15.9209 37.9341 15.6919C37.8399 15.4628 37.664 15.2768 37.4406 15.17V15.17Z" fill="#495057"/>
<path d="M34.5703 32.7599C34.2577 33.0128 33.923 33.2371 33.5703 33.43V36.43C33.5703 36.6952 33.6756 36.9495 33.8632 37.1371C34.0507 37.3246 34.3051 37.43 34.5703 37.43C34.8355 37.43 35.0898 37.3246 35.2773 37.1371C35.4649 36.9495 35.5703 36.6952 35.5703 36.43V32.99C35.5703 32.57 35.5703 32.16 35.5703 31.75C35.2721 32.1197 34.937 32.4581 34.5703 32.7599Z" fill="#495057"/>
<path d="M30.3298 34.2299C29.9947 34.2252 29.6604 34.1951 29.3298 34.1399L29.0397 36.2899C29.0055 36.5509 29.0756 36.8149 29.2347 37.0245C29.3938 37.2342 29.6292 37.3727 29.8897 37.4099H30.0297C30.2739 37.412 30.5104 37.3246 30.6947 37.1644C30.8789 37.0041 30.998 36.782 31.0297 36.5399V36.4099L31.3398 34.1499C31.0283 34.1935 30.7142 34.2169 30.3997 34.2199L30.3298 34.2299Z" fill="#495057"/>
<path d="M26.8291 31.94L26.6791 30.32L26.2591 25.6L26.1092 23.98L25.9892 22.68L24.9291 10.91C24.9066 10.6607 24.7914 10.4289 24.6062 10.2604C24.4211 10.0919 24.1794 9.99899 23.9291 10C23.6756 9.99939 23.4313 10.0951 23.2456 10.2677C23.06 10.4404 22.9468 10.6771 22.9291 10.93L21.7191 27.24C20.5863 22.3226 18.7968 17.5801 16.3991 13.14C16.2819 12.9249 16.09 12.7603 15.8596 12.6774C15.6292 12.5944 15.3764 12.599 15.1491 12.69C14.9224 12.7798 14.7364 12.9492 14.6259 13.1665C14.5154 13.3838 14.4881 13.634 14.5491 13.87L14.9691 15.51C15.9691 19.4173 16.615 23.4068 16.8991 27.43C16.8991 28.13 17.0191 28.83 17.0391 29.52C16.4937 28.2076 15.852 26.9375 15.119 25.72C14.3656 24.4418 13.5131 23.2247 12.5691 22.08L11.7691 21.08C11.6007 20.8744 11.3575 20.7442 11.093 20.718C10.8286 20.6917 10.5647 20.7716 10.3592 20.94C10.1536 21.1084 10.0233 21.3515 9.99709 21.616C9.97084 21.8804 10.0507 22.1444 10.2191 22.35L11.0291 23.35C14.1561 27.1566 16.2255 31.7196 17.0291 36.58C17.0674 36.8166 17.1895 37.0316 17.3731 37.1858C17.5566 37.34 17.7894 37.4231 18.0291 37.42C18.2737 37.4057 18.5046 37.3021 18.6779 37.1288C18.8512 36.9555 18.9549 36.7246 18.9691 36.48C19.1098 34.1492 19.1297 31.8128 19.0291 29.48C18.9391 27.31 18.7591 25.15 18.4591 23C19.2812 25.5368 19.9163 28.1303 20.3592 30.76C20.6772 32.5772 20.9007 34.4097 21.0291 36.25V36.46C21.0444 36.7147 21.1565 36.9539 21.3424 37.1286C21.5283 37.3034 21.7739 37.4004 22.0291 37.4C22.2826 37.4006 22.5269 37.3049 22.7125 37.1323C22.8982 36.9596 23.0113 36.7229 23.0291 36.47L23.249 33.55L24.0091 23.21L24.1991 25.21L24.7191 30.95L25.1791 35.41L25.2791 36.56C25.3016 36.8093 25.4168 37.0411 25.602 37.2096C25.7871 37.3781 26.0287 37.471 26.2791 37.47H26.369C26.6329 37.4447 26.8759 37.3157 27.0447 37.1113C27.2135 36.9069 27.2941 36.6438 27.2691 36.38L26.999 33.29L26.8291 31.94Z" fill="#495057"/>
</g>
<defs>
<clipPath id="clip0_2256_15335">
<rect width="28" height="27.42" fill="white" transform="translate(10 10)"/>
</clipPath>
</defs>
</svg>
