<svg width="48" height="48" viewBox="0 0 48 48" fill="none" xmlns="http://www.w3.org/2000/svg">
<g clip-path="url(#clip0_2256_15296)">
<path d="M14 12H18.35C18.6152 12 18.8696 11.8946 19.0571 11.7071C19.2447 11.5196 19.35 11.2652 19.35 11C19.35 10.7348 19.2447 10.4804 19.0571 10.2929C18.8696 10.1054 18.6152 10 18.35 10H13C13.2652 10 13.5196 10.1054 13.7072 10.2929C13.8947 10.4804 14 10.7348 14 11V12Z" fill="#61ABFF"/>
<path d="M18.35 12.97H14V14.97H18.35C18.6152 14.97 18.8696 14.8646 19.0571 14.6771C19.2447 14.4895 19.35 14.2352 19.35 13.97C19.35 13.7048 19.2447 13.4504 19.0571 13.2628C18.8696 13.0753 18.6152 12.97 18.35 12.97Z" fill="#61ABFF"/>
<path d="M18.35 15.9299H14V17.9299H18.35C18.6152 17.9299 18.8696 17.8246 19.0571 17.6371C19.2447 17.4495 19.35 17.1951 19.35 16.9299C19.35 16.6647 19.2447 16.4104 19.0571 16.2228C18.8696 16.0353 18.6152 15.9299 18.35 15.9299Z" fill="#61ABFF"/>
<path d="M18.35 18.8999H14V20.8999H18.35C18.6152 20.8999 18.8696 20.7945 19.0571 20.607C19.2447 20.4195 19.35 20.1651 19.35 19.8999C19.35 19.6347 19.2447 19.3803 19.0571 19.1928C18.8696 19.0053 18.6152 18.8999 18.35 18.8999Z" fill="#61ABFF"/>
<path d="M18.35 21.8699H14V23.8699H18.35C18.6152 23.8699 18.8696 23.7646 19.0571 23.577C19.2447 23.3895 19.35 23.1351 19.35 22.8699C19.35 22.6047 19.2447 22.3503 19.0571 22.1628C18.8696 21.9752 18.6152 21.8699 18.35 21.8699Z" fill="#61ABFF"/>
<path d="M18.35 24.83H14V26.83H18.35C18.6152 26.83 18.8696 26.7246 19.0571 26.537C19.2447 26.3495 19.35 26.0952 19.35 25.83C19.35 25.5647 19.2447 25.3104 19.0571 25.1229C18.8696 24.9353 18.6152 24.83 18.35 24.83Z" fill="#61ABFF"/>
<path d="M18.35 27.7999H14V29.7999H18.35C18.6152 29.7999 18.8696 29.6946 19.0571 29.5071C19.2447 29.3195 19.35 29.0651 19.35 28.7999C19.35 28.5347 19.2447 28.2804 19.0571 28.0928C18.8696 27.9053 18.6152 27.7999 18.35 27.7999Z" fill="#61ABFF"/>
<path d="M13 10C12.7348 10 12.4805 10.1054 12.293 10.2929C12.1054 10.4804 12 10.7348 12 11V37C12 37.2652 12.1054 37.5196 12.293 37.7071C12.4805 37.8946 12.7348 38 13 38C13.2652 38 13.5196 37.8946 13.7072 37.7071C13.8947 37.5196 14 37.2652 14 37V11C14 10.7348 13.8947 10.4804 13.7072 10.2929C13.5196 10.1054 13.2652 10 13 10Z" fill="#495057"/>
<path d="M36.3803 33.15C36.1155 32.4125 35.6161 31.7822 34.9585 31.3559C34.301 30.9296 33.5217 30.7308 32.7403 30.79L29.7403 22.52L33.8103 11.34C33.8594 11.2156 33.8829 11.0826 33.8797 10.949C33.8764 10.8153 33.8463 10.6837 33.7913 10.5618C33.7363 10.44 33.6574 10.3304 33.5592 10.2395C33.4611 10.1487 33.3457 10.0785 33.22 10.033C33.0943 9.98753 32.9607 9.96773 32.8272 9.97478C32.6937 9.98182 32.5629 10.0156 32.4427 10.074C32.3224 10.1325 32.2151 10.2145 32.1271 10.3151C32.0391 10.4158 31.9722 10.5331 31.9303 10.66L28.6803 19.6L25.4303 10.66C25.3884 10.5331 25.3214 10.4158 25.2334 10.3151C25.1454 10.2145 25.0381 10.1325 24.9179 10.074C24.7976 10.0156 24.6669 9.98182 24.5334 9.97478C24.3998 9.96773 24.2663 9.98753 24.1405 10.033C24.0148 10.0785 23.8994 10.1487 23.8013 10.2395C23.7032 10.3304 23.6243 10.44 23.5692 10.5618C23.5142 10.6837 23.4843 10.8153 23.481 10.949C23.4777 11.0826 23.5013 11.2156 23.5503 11.34L27.6203 22.52L24.6203 30.79C24.0095 30.7461 23.3975 30.8561 22.8402 31.11C22.1913 31.4125 21.6466 31.9008 21.2752 32.5129C20.9037 33.1251 20.7222 33.8336 20.7535 34.5489C20.7847 35.2643 21.0274 35.9543 21.4508 36.5317C21.8743 37.1091 22.4594 37.548 23.1322 37.7928C23.8051 38.0376 24.5355 38.0773 25.231 37.907C25.9265 37.7367 26.5558 37.364 27.0395 36.836C27.5231 36.308 27.8393 35.6484 27.948 34.9407C28.0568 34.2329 27.9531 33.5088 27.6503 32.86C27.392 32.3058 26.9918 31.8298 26.4903 31.48L28.6903 25.48L30.8903 31.48C30.3913 31.8325 29.9917 32.3078 29.7303 32.86C29.5296 33.29 29.4158 33.7553 29.3952 34.2294C29.3746 34.7035 29.4476 35.177 29.6101 35.6228C29.7727 36.0686 30.0215 36.478 30.3424 36.8276C30.6633 37.1771 31.0499 37.46 31.4803 37.66C31.9558 37.8835 32.4748 37.9996 33.0003 38C33.582 38.0008 34.1553 37.8616 34.6717 37.5939C35.1881 37.3261 35.6324 36.9379 35.967 36.4621C36.3015 35.9862 36.5165 35.4368 36.5937 34.8603C36.6708 34.2837 36.608 33.6971 36.4103 33.15H36.3803ZM25.8603 34.94C25.7522 35.2439 25.5558 35.5086 25.2964 35.7002C25.037 35.8918 24.7263 36.0016 24.4041 36.0156C24.0819 36.0296 23.7629 35.9471 23.4878 35.7786C23.2128 35.6101 22.9942 35.3634 22.8603 35.07C22.7679 34.878 22.7149 34.6695 22.7043 34.4568C22.6936 34.244 22.7255 34.0312 22.7981 33.831C22.8708 33.6307 22.9827 33.447 23.1274 33.2906C23.272 33.1341 23.4463 33.0081 23.6403 32.92C23.8536 32.8219 24.0856 32.7708 24.3203 32.77C24.5083 32.7683 24.6949 32.8022 24.8703 32.87C25.0739 32.9373 25.2619 33.0449 25.4231 33.1863C25.5844 33.3277 25.7155 33.5001 25.8088 33.6932C25.902 33.8863 25.9557 34.0962 25.9662 34.3103C25.9768 34.5245 25.9441 34.7386 25.8703 34.94H25.8603ZM34.4403 35.07C34.3511 35.2618 34.2249 35.4341 34.069 35.5771C33.9131 35.7201 33.7306 35.831 33.5319 35.9034C33.3332 35.9759 33.1221 36.0084 32.9108 35.9993C32.6995 35.9901 32.492 35.9394 32.3003 35.85C31.9115 35.669 31.6096 35.342 31.4602 34.94C31.3854 34.7401 31.3523 34.527 31.3626 34.3138C31.3729 34.1006 31.4265 33.8918 31.5203 33.7C31.6072 33.5068 31.7328 33.3335 31.8893 33.1907C32.0458 33.048 32.23 32.9388 32.4303 32.87C32.6057 32.8022 32.7923 32.7683 32.9803 32.77C33.2152 32.7695 33.4474 32.8207 33.6603 32.92C34.0491 33.101 34.3509 33.428 34.5003 33.83C34.5751 34.0299 34.6084 34.243 34.5981 34.4562C34.5877 34.6694 34.5341 34.8782 34.4403 35.07V35.07Z" fill="#495057"/>
</g>
<defs>
<clipPath id="clip0_2256_15296">
<rect width="24.59" height="28" fill="white" transform="translate(12 10)"/>
</clipPath>
</defs>
</svg>
