<svg width="16" height="16" viewBox="0 0 16 16" fill="none" xmlns="http://www.w3.org/2000/svg">
<path d="M15.7589 10.7853H13.3379C13.2201 10.7853 13.125 10.6805 13.125 10.5508C13.125 10.4211 13.2201 10.3164 13.3379 10.3164H15.7589C15.8767 10.3164 15.9718 10.4211 15.9718 10.5508C15.9718 10.6805 15.8767 10.7853 15.7589 10.7853Z" fill="white"/>
<path d="M15.7589 12.0373H13.3379C13.2201 12.0373 13.125 11.9325 13.125 11.8028C13.125 11.6731 13.2201 11.5684 13.3379 11.5684H15.7589C15.8767 11.5684 15.9718 11.6731 15.9718 11.8028C15.9718 11.9325 15.8767 12.0373 15.7589 12.0373Z" fill="white"/>
<path d="M2.98403 10.7853H0.56443C0.446644 10.7853 0.351562 10.6805 0.351562 10.5508C0.351562 10.4211 0.446644 10.3164 0.56443 10.3164H2.98545C3.10324 10.3164 3.19832 10.4211 3.19832 10.5508C3.19832 10.6805 3.10182 10.7853 2.98403 10.7853Z" fill="white"/>
<path d="M2.98404 12.0373H0.564431C0.446644 12.0373 0.351562 11.9325 0.351562 11.8028C0.351562 11.6731 0.446644 11.5684 0.564431 11.5684H2.98546C3.10324 11.5684 3.19832 11.6731 3.19832 11.8028C3.19832 11.9325 3.10182 12.0373 2.98404 12.0373Z" fill="white"/>
<path fill-rule="evenodd" clip-rule="evenodd" d="M7.99929 16C3.87958 16 0.350226 11.2612 0.350226 7.38204C0.350226 6.88972 0.00679901 1.00845 0.00254165 0.949055C-0.0201643 0.634907 0.110395 0.336389 0.348807 0.156653C0.588639 -0.0230833 0.886654 -0.049653 1.14777 0.0894471L4.48413 1.8493C4.73247 1.98058 5.0163 2.0009 5.28451 1.91025C6.15301 1.6133 7.06551 1.46326 7.99929 1.46326C8.93307 1.46326 9.84557 1.6133 10.7141 1.91025C10.9823 2.00246 11.2661 1.98058 11.5145 1.8493L14.8508 0.0878842C15.1119 -0.049653 15.4114 -0.0246462 15.6512 0.15509C15.8896 0.334826 16.0202 0.633344 15.9975 0.950618L15.9853 1.16169C15.9236 2.22371 15.6498 6.94177 15.6498 7.38048C15.6484 11.2612 12.119 16 7.99929 16ZM6.87824 10.7573C7.2614 10.2384 9.02821 10.2384 9.46955 10.7573C9.69661 11.0246 9.70513 11.4059 9.11619 11.9248C8.52726 12.4437 8.32148 12.4437 8.17389 12.4437C8.02631 12.4437 7.82053 12.4437 7.2316 11.9248C6.64266 11.4059 6.66821 11.0418 6.87824 10.7573ZM4.86263 9.49693C5.45124 9.49693 5.92839 8.97142 5.92839 8.32317C5.92839 7.67492 5.45124 7.14941 4.86263 7.14941C4.27403 7.14941 3.79688 7.67492 3.79688 8.32317C3.79688 8.97142 4.27403 9.49693 4.86263 9.49693ZM12.2018 8.32317C12.2018 8.97142 11.7247 9.49693 11.1361 9.49693C10.5475 9.49693 10.0703 8.97142 10.0703 8.32317C10.0703 7.67492 10.5475 7.14941 11.1361 7.14941C11.7247 7.14941 12.2018 7.67492 12.2018 8.32317Z" fill="white"/>
</svg>
