<svg width="48" height="48" viewBox="0 0 48 48" fill="none" xmlns="http://www.w3.org/2000/svg">
<g clip-path="url(#clip0_2256_15693)">
<path d="M39.0001 17.0965C38.9972 15.2134 38.2509 13.4084 36.9251 12.0779C35.5993 10.7473 33.8022 10 31.9286 10C31.1528 10.0025 30.3823 10.1297 29.6465 10.3769C29.4337 10.4491 29.2488 10.5868 29.1181 10.7703C28.9874 10.9539 28.9174 11.1742 28.9179 11.3999C28.9174 11.6257 28.9874 11.8459 29.1181 12.0295C29.2488 12.2131 29.4337 12.3507 29.6465 12.4229C30.6184 12.754 31.4625 13.3829 32.0603 14.2212C32.658 15.0596 32.9792 16.0652 32.9787 17.0965C32.9794 17.6506 32.8851 18.2007 32.7001 18.7226C31.3667 18.1305 29.9256 17.8225 28.4679 17.818H28.0286C27.281 16.3471 26.3948 14.9515 25.3822 13.6506C24.2534 12.2997 22.6792 11.4015 20.9465 11.1199C19.3387 10.8337 17.6819 11.0827 16.2277 11.829C14.7736 12.5754 13.6014 13.7783 12.8894 15.2551C12.6039 15.899 12.1339 16.4426 11.5394 16.8165C10.5722 17.3362 9.80653 18.1671 9.36518 19.1761C8.92382 20.1852 8.83231 21.314 9.10526 22.3815C9.37822 23.4491 9.99986 24.3937 10.8706 25.0639C11.7413 25.734 12.8106 26.091 13.9072 26.0776H14.7751L10.0608 30.8481C9.9215 30.9989 9.72865 31.3219 9.60007 31.4942C9.97684 30.93 10.4787 30.4613 11.0662 30.125C11.6536 29.7886 12.3107 29.5938 12.9858 29.5559C13.3827 29.5599 13.7766 29.6253 14.1536 29.7497L17.7536 26.1314H19.4358H19.6608C20.6434 26.1312 21.616 25.9335 22.5215 25.5499C23.6726 25.0894 24.6922 24.3495 25.4893 23.3962C25.7632 23.0595 26.0071 22.6991 26.2179 22.3193H26.2929C26.7403 22.1157 27.1392 21.8182 27.4626 21.4467C27.786 21.0752 28.0265 20.6384 28.1679 20.1656C28.1679 20.1118 28.1679 20.0687 28.1679 20.0148H28.4465C29.5036 20.0194 30.5504 20.224 31.5322 20.6179C31.8779 20.7575 32.2143 20.9194 32.5394 21.1025C32.8555 21.2796 33.1598 21.4775 33.4501 21.6947L33.5679 21.7917C33.8875 22.0341 34.1883 22.3005 34.4679 22.5886C34.7208 22.8573 34.9569 23.1414 35.1751 23.4393C36.2546 24.8872 36.8373 26.6481 36.8358 28.4575C36.8329 30.6929 35.9482 32.8359 34.3755 34.4165C32.8028 35.9972 30.6706 36.8865 28.4465 36.8893H24.7286C24.2399 36.8893 23.7712 36.6942 23.4256 36.3468C23.0799 35.9995 22.8858 35.5284 22.8858 35.0371C22.8858 34.5459 23.0799 34.0748 23.4256 33.7274C23.7712 33.38 24.2399 33.1849 24.7286 33.1849H27.6858C27.8857 33.1844 28.0815 33.1277 28.251 33.0213C28.4205 32.9148 28.557 32.7628 28.6451 32.5824C28.7331 32.402 28.7693 32.2005 28.7493 32.0006C28.7294 31.8007 28.6541 31.6104 28.5322 31.4512C28.1232 30.9054 27.8181 30.2884 27.6322 29.6312C27.6057 29.484 27.549 29.3439 27.4657 29.22C27.3823 29.096 27.2742 28.9908 27.1482 28.9111C27.0222 28.8315 26.881 28.7791 26.7337 28.7574C26.5865 28.7356 26.4363 28.7449 26.2928 28.7847C26.1493 28.8245 26.0156 28.894 25.9003 28.9886C25.785 29.0832 25.6905 29.201 25.623 29.3343C25.5555 29.4677 25.5163 29.6137 25.5081 29.7631C25.4998 29.9125 25.5227 30.0619 25.5751 30.202C25.6519 30.4836 25.7449 30.7604 25.8536 31.0312H24.7286C23.757 31.0351 22.8204 31.3967 22.0958 32.0475C21.3713 32.6983 20.9091 33.5933 20.7965 34.5633L20.4643 34.9079C20.1094 35.2402 19.6423 35.425 19.1572 35.425C18.6721 35.425 18.205 35.2402 17.8501 34.9079L17.6143 34.6171C17.419 34.312 17.3148 33.957 17.3143 33.5941C17.309 33.5188 17.309 33.4433 17.3143 33.368C17.3665 32.9629 17.5468 32.5854 17.8286 32.2911L18.8144 31.3112L19.1465 30.9666L20.4108 29.7066C20.6007 29.5064 20.7067 29.2403 20.7067 28.9636C20.7067 28.6869 20.6007 28.4208 20.4108 28.2206C20.2583 28.0668 20.0632 27.9629 19.8509 27.9225C19.6387 27.8822 19.4193 27.9072 19.2215 27.9944C19.0983 28.0494 18.9858 28.126 18.8893 28.2206L16.3179 30.805C16.2229 30.9078 16.1335 31.0156 16.0501 31.1281C15.8075 31.4244 15.609 31.7545 15.4608 32.1081C15.2638 32.5898 15.1619 33.1056 15.1608 33.6264C15.1608 33.7557 15.1608 33.8849 15.1608 34.0141C15.1853 34.4025 15.2721 34.7843 15.4179 35.1448V35.2417C15.5624 35.5637 15.7498 35.8644 15.9751 36.1355V36.1355C16.0477 36.2371 16.1264 36.3342 16.2108 36.4263C16.8457 37.0709 17.6814 37.4771 18.5784 37.5771C19.4754 37.677 20.3794 37.4647 21.1393 36.9755C21.4808 37.5986 21.9816 38.1187 22.59 38.4822C23.1984 38.8457 23.8923 39.0393 24.6001 39.0431H28.1786H28.2643H28.3501C30.3011 39.0476 32.215 38.5062 33.8772 37.4795C35.5395 36.4528 36.8847 34.9814 37.7621 33.2299C38.6396 31.4784 39.0146 29.516 38.8454 27.5625C38.6761 25.6089 37.9691 23.7412 36.8036 22.1686C37.4899 21.5148 38.0381 20.7287 38.4155 19.8573C38.7929 18.9858 38.9917 18.0469 39.0001 17.0965V17.0965ZM26.1429 19.5087C26.1429 19.5626 26.1429 19.5841 26.0787 19.6272C26.0333 19.7496 25.972 19.8654 25.8965 19.9718C25.7743 20.1193 25.6205 20.2371 25.4465 20.3164L24.6858 20.6717L23.0465 21.4148C22.8787 21.4879 22.6974 21.5246 22.5145 21.5224C22.3316 21.5201 22.1512 21.479 21.9853 21.4017C21.8193 21.3244 21.6715 21.2127 21.5516 21.0739C21.4316 20.9351 21.3423 20.7723 21.2894 20.5964L21.1179 19.9718L20.8179 18.8949L20.5179 17.818L20.3572 17.2581C20.3404 17.206 20.3188 17.1555 20.2929 17.1073C20.1712 16.8784 19.9714 16.7013 19.7302 16.6087C19.4889 16.5161 19.2225 16.5141 18.98 16.6033C18.7374 16.6924 18.5351 16.8666 18.4102 17.0937C18.2852 17.3209 18.2461 17.5858 18.3001 17.8396L18.4394 18.3349L18.8572 19.8533L19.2322 21.1779C19.2729 21.3071 19.323 21.433 19.3822 21.5548C19.5139 21.8853 19.6945 22.1939 19.9179 22.4701V22.4701C20.154 22.733 20.4285 22.9582 20.7322 23.1377L21.0751 23.3531L21.5572 23.5147L21.7715 23.59L21.6215 23.6439C21.0741 23.8587 20.4945 23.9789 19.9072 23.9993H19.7144H18.3965H16.9072H13.9822C13.5614 24.0035 13.1448 23.9151 12.7617 23.7402C12.3785 23.5653 12.0381 23.3082 11.7643 22.987C11.5004 22.6546 11.3203 22.263 11.2394 21.8455C11.11 21.251 11.1745 20.6305 11.4234 20.0758C11.6724 19.5211 12.0925 19.0617 12.6215 18.7657C13.5998 18.1848 14.3775 17.3167 14.8501 16.2781C15.2912 15.3629 15.9811 14.592 16.8401 14.0546C17.699 13.5172 18.6919 13.2352 19.7036 13.2413C20.0159 13.2397 20.3278 13.2649 20.6358 13.3167C21.999 13.5674 23.2126 14.3394 24.0215 15.4705C24.7589 16.4482 25.4147 17.4856 25.9822 18.5718C26.0684 18.7059 26.1267 18.8561 26.1536 19.0134V19.0134C26.1708 19.1797 26.1563 19.3478 26.1108 19.5087H26.1429ZM35.4429 20.4887C35.1644 20.241 34.8751 20.0041 34.5643 19.7779C35.0744 18.5392 35.2244 17.1804 34.9968 15.8595C34.7692 14.5385 34.1734 13.3095 33.2787 12.3153C34.3038 12.6119 35.2052 13.2356 35.8469 14.0922C36.4885 14.9489 36.8356 15.992 36.8358 17.0642C36.8357 18.345 36.3356 19.5746 35.4429 20.4887V20.4887Z" fill="#495057"/>
<path d="M12.9437 29.5667C12.1576 29.5667 11.389 29.801 10.7354 30.24C10.0817 30.6789 9.57219 31.3029 9.27133 32.0329C8.97047 32.763 8.89175 33.5663 9.04513 34.3413C9.19851 35.1163 9.57709 35.8281 10.133 36.3868C10.6889 36.9456 11.3972 37.3261 12.1683 37.4802C12.9393 37.6344 13.7386 37.5553 14.4649 37.2529C15.1913 36.9505 15.812 36.4384 16.2488 35.7814C16.6856 35.1244 16.9187 34.352 16.9187 33.5618C16.9187 32.5023 16.4999 31.4861 15.7545 30.7368C15.009 29.9876 13.998 29.5667 12.9437 29.5667ZM12.9437 35.414C12.5762 35.4162 12.2164 35.3084 11.9099 35.1045C11.6035 34.9007 11.3643 34.6098 11.2226 34.269C11.081 33.9281 11.0434 33.5527 11.1146 33.1903C11.1858 32.8279 11.3625 32.495 11.6224 32.2338C11.8822 31.9726 12.2135 31.7949 12.5741 31.7234C12.9346 31.6519 13.3082 31.6896 13.6473 31.832C13.9865 31.9743 14.2758 32.2148 14.4787 32.5228C14.6815 32.8308 14.7887 33.1925 14.7866 33.5618C14.7866 33.8051 14.7389 34.0459 14.6463 34.2706C14.5537 34.4954 14.418 34.6996 14.2468 34.8715C14.0757 35.0435 13.8725 35.18 13.649 35.273C13.4254 35.3661 13.1857 35.414 12.9437 35.414Z" fill="#61ABFF"/>
</g>
<defs>
<clipPath id="clip0_2256_15693">
<rect width="30" height="29" fill="white" transform="translate(9 10)"/>
</clipPath>
</defs>
</svg>
