<svg width="16" height="16" viewBox="0 0 16 16" fill="none" xmlns="http://www.w3.org/2000/svg">
<path fill-rule="evenodd" clip-rule="evenodd" d="M11.1852 0.754717C14.3704 -0.301887 15.85 5.74038 15.963 7.39623C16.1078 9.50943 15.8689 10.9238 14.5079 11.3177C14.3935 11.3509 14.2777 11.3751 14.1633 11.3902C13.092 14.077 10.7885 15.9472 8.10859 15.997V16C8.10385 16 8.09911 15.9999 8.09434 15.9998C8.08982 15.9996 8.08528 15.9994 8.0807 15.9993C8.07094 15.9989 8.06099 15.9985 8.05067 15.9985C8.04199 15.9985 8.03366 15.9989 8.02534 15.9992C8.01701 15.9996 8.00869 16 8 16C7.99131 16 7.98299 15.9996 7.97466 15.9992C7.96634 15.9989 7.95801 15.9985 7.94932 15.9985C7.94009 15.9985 7.93085 15.9989 7.92144 15.9992C7.91168 15.9996 7.90174 16 7.89141 16V15.997C5.21151 15.9472 2.90804 14.077 1.83665 11.3902C1.72228 11.3751 1.60645 11.3509 1.49207 11.3177C0.131127 10.9238 -0.107762 9.50943 0.0370191 7.39623C0.149949 5.74038 1.62962 -0.301887 4.81481 0.754717C5.56333 0.196226 6.94454 0.0513208 7.61488 0.0135849L7.70609 0.00905661C7.88852 0 8 0 8 0C8 0 8.11148 0 8.29391 0.00905661L8.38512 0.0135849C9.05546 0.0513208 10.4367 0.196226 11.1852 0.754717ZM4.57216 8.46352C5.18587 8.46352 5.68338 7.94483 5.68338 7.305C5.68338 6.66517 5.18587 6.14648 4.57216 6.14648C3.95845 6.14648 3.46094 6.66517 3.46094 7.305C3.46094 7.94483 3.95845 8.46352 4.57216 8.46352ZM12.3474 7.30403C12.3474 7.94386 11.8499 8.46254 11.2362 8.46254C10.6225 8.46254 10.125 7.94386 10.125 7.30403C10.125 6.66419 10.6225 6.14551 11.2362 6.14551C11.8499 6.14551 12.3474 6.66419 12.3474 7.30403ZM7.90512 9.35547C7.0201 9.35547 6.23828 9.61818 6.23828 10.0868C6.23828 10.7089 7.05509 11.4813 7.68442 11.6423V13.1784C7.68442 13.3064 7.78392 13.4101 7.90666 13.4101C8.0294 13.4101 8.12891 13.3064 8.12891 13.1784V11.6415C8.75781 11.4788 9.57195 10.7079 9.57195 10.0868C9.57195 9.61818 8.79013 9.35547 7.90512 9.35547Z" fill="white"/>
</svg>
