<svg width="48" height="48" viewBox="0 0 48 48" fill="none" xmlns="http://www.w3.org/2000/svg">
<g clip-path="url(#clip0_2256_15672)">
<path d="M36.1129 23.1507L33.2879 13.6843V10.5772C33.2857 10.2996 33.1777 10.0331 32.9857 9.83145C32.8891 9.73359 32.774 9.65573 32.6469 9.60239C32.5199 9.54906 32.3834 9.52132 32.2455 9.52075H13.8782C13.6017 9.52075 13.3366 9.62985 13.1411 9.82409C12.9456 10.0183 12.8357 10.2818 12.8357 10.5565V13.6636L10.0525 23.1507C10.0424 23.2471 10.0424 23.3443 10.0525 23.4407V32.0786C10.0553 32.8689 10.3724 33.626 10.9348 34.1848C11.4973 34.7436 12.2593 35.0587 13.0547 35.0614H14.931C14.9801 34.6994 15.093 34.3488 15.2646 34.0257C15.4674 33.6297 15.7473 33.2777 16.0881 32.99H13.0547C12.8104 32.9873 12.5771 32.889 12.4054 32.7164C12.2336 32.5438 12.1373 32.3109 12.1373 32.0682V23.5857L14.7434 14.865H31.422L34.0281 23.5857V28.0186C34.8842 28.2062 35.6325 28.7192 36.1129 29.4479V23.4407C36.1288 23.3447 36.1288 23.2467 36.1129 23.1507V23.1507ZM14.9831 11.5714H31.224V12.7936H14.9414L14.9831 11.5714Z" fill="#495057"/>
<path d="M21.2688 34.0257C21.4404 34.3488 21.5533 34.6994 21.6024 35.0614H23.6038C23.6529 34.6994 23.7658 34.3488 23.9374 34.0257C24.1402 33.6297 24.4201 33.2777 24.7609 32.99H20.4766C20.809 33.2779 21.0786 33.6304 21.2688 34.0257V34.0257Z" fill="#495057"/>
<path d="M21.2692 34.0257C21.0699 33.6275 20.7894 33.2748 20.4457 32.99C19.8322 32.4699 19.0526 32.1836 18.2462 32.1821C17.6241 32.188 17.0155 32.3628 16.4863 32.6878C15.9571 33.0128 15.5275 33.4755 15.244 34.0257C15.0724 34.3488 14.9595 34.6994 14.9104 35.0614C14.8996 35.2235 14.8996 35.3861 14.9104 35.5482V36.5632C14.9132 37.0916 15.1264 37.5973 15.5034 37.97C15.8804 38.3426 16.3906 38.5518 16.9224 38.5518H19.6952C19.9589 38.5532 20.2203 38.5027 20.4643 38.4034C20.7083 38.3041 20.9302 38.1578 21.1171 37.973C21.3041 37.7882 21.4524 37.5685 21.5537 37.3266C21.6549 37.0847 21.707 36.8252 21.707 36.5632V35.5275C21.7229 35.3656 21.7229 35.2026 21.707 35.0407C21.6232 34.6791 21.475 34.3353 21.2692 34.0257ZM19.5701 35.5275V36.4079H16.9432V35.5275C16.9445 35.3599 16.98 35.1943 17.0474 35.0407C17.1445 34.7992 17.3131 34.5927 17.5309 34.4484C17.7486 34.3042 18.0053 34.229 18.267 34.2329C18.5264 34.2339 18.7795 34.3111 18.9947 34.4549C19.2099 34.5987 19.3774 34.8025 19.4762 35.0407C19.5403 35.195 19.5723 35.3606 19.5701 35.5275Z" fill="#61ABFF"/>
<path d="M36.6344 32.3582C36.6344 32.3582 36.6344 32.2857 36.6344 32.2546V31.2914C36.6353 30.6349 36.4393 29.9931 36.0715 29.4478C35.5911 28.7191 34.8428 28.2061 33.9867 28.0185C33.7345 27.9557 33.4753 27.9244 33.2153 27.9253C32.3176 27.928 31.4575 28.2835 30.8227 28.9142C30.188 29.5449 29.8302 30.3995 29.8274 31.2914V32.2546C29.8274 32.2546 29.8274 32.3167 29.8274 32.3478C29.4901 32.4567 29.1706 32.6137 28.8788 32.8139C28.2975 32.4026 27.6015 32.1817 26.8879 32.1821C26.2658 32.1879 25.6571 32.3628 25.1279 32.6878C24.5987 33.0127 24.1691 33.4754 23.8857 34.0257C23.7141 34.3487 23.6012 34.6993 23.5521 35.0614C23.5188 35.2216 23.5013 35.3846 23.5 35.5482V36.5632C23.5 36.8252 23.5521 37.0846 23.6533 37.3266C23.7546 37.5685 23.9029 37.7882 24.0899 37.973C24.2768 38.1578 24.4987 38.304 24.7427 38.4034C24.9867 38.5027 25.2481 38.5531 25.5119 38.5518H28.2847C28.6709 38.4275 29.0868 38.4275 29.473 38.5518H32.2458C32.5425 38.3885 32.8761 38.3029 33.2153 38.3029C33.5544 38.3029 33.8881 38.3885 34.1848 38.5518H36.9576C37.2213 38.5531 37.4827 38.5027 37.7267 38.4034C37.9707 38.304 38.1926 38.1578 38.3796 37.973C38.5665 37.7882 38.7148 37.5685 38.8161 37.3266C38.9173 37.0846 38.9694 36.8252 38.9694 36.5632V35.5275C38.9662 34.822 38.7387 34.1357 38.3193 33.5665C37.8999 32.9973 37.3102 32.5744 36.6344 32.3582ZM25.6161 36.4285V35.5275C25.6174 35.3599 25.6529 35.1943 25.7204 35.0407C25.8174 34.7992 25.986 34.5926 26.2038 34.4484C26.4215 34.3041 26.6783 34.2289 26.94 34.2328C27.2033 34.2379 27.4585 34.3248 27.6697 34.4814C27.6107 34.6636 27.5688 34.8508 27.5446 35.0407C27.5287 35.2025 27.5287 35.3656 27.5446 35.5275V36.4078L25.6161 36.4285ZM31.9331 31.2499C31.9331 31.0782 31.9675 30.9081 32.0343 30.7497C32.1011 30.5913 32.1989 30.4476 32.3221 30.3271C32.4453 30.2066 32.5914 30.1117 32.7519 30.0479C32.9125 29.984 33.0841 29.9526 33.257 29.9553C33.5255 29.959 33.7854 30.05 33.9971 30.2142C34.1691 30.3279 34.3104 30.4817 34.4085 30.6623C34.5067 30.8429 34.5587 31.0447 34.56 31.2499V32.1407H31.9435L31.9331 31.2499ZM29.5772 35.5275C29.575 35.3606 29.607 35.1949 29.6711 35.0407C29.7742 34.8128 29.9406 34.6188 30.1506 34.4814C30.3685 34.3226 30.6309 34.2357 30.9011 34.2328C31.1604 34.2338 31.4136 34.3111 31.6288 34.4549C31.844 34.5986 32.0115 34.8025 32.1103 35.0407C32.1744 35.1949 32.2064 35.3606 32.2041 35.5275V36.4078H29.5772V35.5275ZM36.8741 36.4078H34.2473V35.5275C34.2473 35.1813 34.3857 34.8494 34.632 34.6047C34.8783 34.3599 35.2123 34.2224 35.5607 34.2224C35.909 34.2224 36.2432 34.3599 36.4895 34.6047C36.7358 34.8494 36.8741 35.1813 36.8741 35.5275V36.4078Z" fill="#61ABFF"/>
<path d="M24.9375 27.3039C25.4534 27.8156 26.1526 28.103 26.8816 28.103C27.6106 28.103 28.3097 27.8156 28.8257 27.3039C29.2329 26.8969 29.502 26.3737 29.5954 25.8074C29.6889 25.2411 29.602 24.6599 29.3469 24.145C29.3112 24.0761 29.2926 23.9998 29.2926 23.9223C29.2926 23.8449 29.3112 23.7685 29.3469 23.6996C29.5342 23.3275 29.6335 22.9179 29.6373 22.5019C29.6412 22.0859 29.5495 21.6745 29.3692 21.299C29.1888 20.9236 28.9246 20.594 28.5966 20.3353C28.2687 20.0766 27.8857 19.8957 27.4768 19.8063C27.0679 19.7169 26.6438 19.7214 26.2369 19.8195C25.83 19.9175 25.4509 20.1065 25.1286 20.3721C24.8063 20.6377 24.5493 20.9729 24.3771 21.3521C24.2049 21.7313 24.122 22.1445 24.1348 22.5604C24.1417 22.6964 24.1754 22.8297 24.2341 22.9528C24.2928 23.0758 24.3754 23.1862 24.477 23.2775C24.5786 23.3689 24.6974 23.4395 24.8265 23.4853C24.9556 23.531 25.0925 23.5511 25.2293 23.5443C25.3662 23.5375 25.5005 23.504 25.6243 23.4456C25.7482 23.3873 25.8592 23.3053 25.9512 23.2043C26.0431 23.1033 26.1142 22.9853 26.1602 22.8571C26.2063 22.7288 26.2265 22.5928 26.2197 22.4568C26.2127 22.3653 26.2259 22.2735 26.2583 22.1877C26.2907 22.1018 26.3416 22.024 26.4073 21.9596C26.5339 21.8363 26.7042 21.7672 26.8816 21.7672C27.059 21.7672 27.2292 21.8363 27.3558 21.9596C27.4183 22.0204 27.4678 22.0929 27.5017 22.1729C27.5355 22.253 27.553 22.3389 27.553 22.4257C27.553 22.5125 27.5355 22.5984 27.5017 22.6785C27.4678 22.7585 27.4183 22.831 27.3558 22.8918L27.2308 22.9953C27.0786 23.0874 26.9527 23.2166 26.8651 23.3707C26.7775 23.5249 26.7312 23.6987 26.7304 23.8757C26.7312 24.0527 26.7775 24.2265 26.8651 24.3807C26.9527 24.5348 27.0786 24.664 27.2308 24.7561L27.3558 24.8493C27.4183 24.91 27.4678 24.9825 27.5017 25.0626C27.5355 25.1426 27.553 25.2286 27.553 25.3154C27.553 25.4022 27.5355 25.4881 27.5017 25.5681C27.4678 25.6482 27.4183 25.7207 27.3558 25.7814C27.2292 25.9048 27.059 25.9739 26.8816 25.9739C26.7042 25.9739 26.5339 25.9048 26.4073 25.7814C26.3404 25.7179 26.2888 25.6402 26.2563 25.5542C26.2238 25.4681 26.2113 25.3758 26.2197 25.2843C26.226 25.1435 26.2034 25.0029 26.1532 24.8711C26.103 24.7394 26.0263 24.6191 25.9277 24.5178C25.8309 24.4169 25.7145 24.3364 25.5855 24.2812C25.4565 24.226 25.3177 24.1973 25.1772 24.1968H20.9242C20.7837 24.1973 20.6449 24.226 20.5159 24.2812C20.3869 24.3364 20.2705 24.4169 20.1737 24.5178C20.0751 24.6191 19.9984 24.7394 19.9482 24.8711C19.898 25.0029 19.8754 25.1435 19.8817 25.2843C19.8887 25.3757 19.8755 25.4675 19.8431 25.5534C19.8107 25.6392 19.7598 25.717 19.6941 25.7814C19.633 25.8434 19.56 25.8927 19.4795 25.9263C19.3989 25.9599 19.3124 25.9773 19.225 25.9773C19.1376 25.9773 19.0512 25.9599 18.9707 25.9263C18.8901 25.8927 18.8171 25.8434 18.7559 25.7814C18.6935 25.7207 18.6439 25.6482 18.6101 25.5681C18.5762 25.4881 18.5588 25.4022 18.5588 25.3154C18.5588 25.2286 18.5762 25.1426 18.6101 25.0626C18.6439 24.9825 18.6935 24.91 18.7559 24.8493C18.7893 24.8085 18.8323 24.7765 18.881 24.7561C19.0312 24.6628 19.1551 24.533 19.2408 24.379C19.3265 24.2249 19.3713 24.0517 19.371 23.8757C19.3713 23.6997 19.3265 23.5265 19.2408 23.3724C19.1551 23.2184 19.0312 23.0886 18.881 22.9953C18.8334 22.9685 18.7911 22.9334 18.7559 22.8918C18.6935 22.831 18.6439 22.7585 18.6101 22.6785C18.5762 22.5984 18.5588 22.5125 18.5588 22.4257C18.5588 22.3389 18.5762 22.253 18.6101 22.1729C18.6439 22.0929 18.6935 22.0204 18.7559 21.9596C18.8808 21.8369 19.0494 21.7681 19.225 21.7681C19.4007 21.7681 19.5692 21.8369 19.6941 21.9596C19.7598 22.024 19.8107 22.1018 19.8431 22.1877C19.8755 22.2735 19.8887 22.3653 19.8817 22.4568C19.8749 22.5928 19.8951 22.7288 19.9412 22.8571C19.9872 22.9853 20.0583 23.1033 20.1502 23.2043C20.2422 23.3053 20.3532 23.3873 20.4771 23.4456C20.6009 23.504 20.7352 23.5375 20.8721 23.5443C21.0089 23.5511 21.1458 23.531 21.2749 23.4853C21.404 23.4395 21.5228 23.3689 21.6244 23.2775C21.726 23.1862 21.8086 23.0758 21.8673 22.9528C21.926 22.8297 21.9597 22.6964 21.9666 22.5604C21.9867 22.1793 21.9266 21.7983 21.7902 21.4417C21.6538 21.085 21.444 20.7605 21.1743 20.4889C20.6466 19.9959 19.9494 19.7214 19.225 19.7214C18.5006 19.7214 17.8035 19.9959 17.2757 20.4889C16.8796 20.8918 16.6172 21.4056 16.5241 21.9612C16.4309 22.5167 16.5113 23.0873 16.7545 23.5961C16.7904 23.6686 16.809 23.7483 16.809 23.8291C16.809 23.9099 16.7904 23.9896 16.7545 24.0621C16.5113 24.5709 16.4309 25.1415 16.5241 25.697C16.6172 26.2526 16.8796 26.7664 17.2757 27.1693C17.8011 27.6669 18.4991 27.9446 19.225 27.9446C19.9509 27.9446 20.6489 27.6669 21.1743 27.1693C21.4515 26.8897 21.6648 26.5541 21.7998 26.1854H24.3016C24.4188 26.604 24.6371 26.988 24.9375 27.3039Z" fill="#61ABFF"/>
</g>
<defs>
<clipPath id="clip0_2256_15672">
<rect width="29" height="29" fill="white" transform="translate(10 9.5)"/>
</clipPath>
</defs>
</svg>
