<svg width="48" height="48" viewBox="0 0 48 48" fill="none" xmlns="http://www.w3.org/2000/svg">
<g clip-path="url(#clip0_2256_15702)">
<path d="M16.271 26.542H15.1639H14.0567C14.0567 26.6086 14.0567 26.6641 14.0567 26.7306C14.0198 27.2187 13.8003 27.6748 13.442 28.0076C13.0838 28.3404 12.6133 28.5253 12.1248 28.5253C11.6362 28.5253 11.1657 28.3404 10.8075 28.0076C10.4492 27.6748 10.2297 27.2187 10.1928 26.7306C10.1974 26.4069 10.2851 26.0898 10.4474 25.8098C10.122 25.6263 9.82076 25.4026 9.55066 25.1442C9.37002 24.9854 9.19989 24.8149 9.04136 24.6339C8.95389 24.5201 8.87258 24.4015 8.79779 24.2789C8.26754 24.986 7.98011 25.8462 7.97852 26.7306C8.03344 27.7953 8.49423 28.7983 9.26578 29.5324C10.0373 30.2666 11.0607 30.6759 12.1248 30.6759C13.1888 30.6759 14.2122 30.2666 14.9837 29.5324C15.7553 28.7983 16.2161 27.7953 16.271 26.7306V26.542Z" fill="#61ABFF"/>
<path d="M39.0003 19.2647C39.0003 17.3307 38.2343 15.4757 36.8704 14.1071C35.5066 12.7385 33.6565 11.9681 31.7263 11.9652C30.9271 11.9651 30.1336 12.1002 29.3792 12.3646C29.1616 12.44 28.973 12.5815 28.8395 12.7694C28.7059 12.9573 28.6342 13.1822 28.6342 13.4129C28.6342 13.6436 28.7059 13.8685 28.8395 14.0564C28.973 14.2443 29.1616 14.3858 29.3792 14.4612C30.3784 14.8039 31.2456 15.4514 31.8591 16.3128C32.4726 17.1742 32.8017 18.2064 32.8003 19.2647C32.8003 19.3756 32.8003 19.4977 32.8003 19.6197C32.4342 19.5585 32.0641 19.5251 31.6931 19.5199H27.951C27.9767 18.782 27.7758 18.054 27.3753 17.4343L25.8253 15.0492C25.1469 13.7913 24.135 12.7454 22.9012 12.027C21.6674 11.3085 20.2596 10.9453 18.833 10.9774C17.4063 11.0095 16.0162 11.4357 14.8159 12.209C13.6156 12.9823 12.6516 14.0726 12.0303 15.3598C11.7326 16.015 11.2519 16.5698 10.6463 16.9572C9.69283 17.4935 8.93494 18.3205 8.48293 19.3181C8.03092 20.3157 7.90839 21.4318 8.13313 22.504C8.25889 23.1203 8.49927 23.7074 8.8417 24.2346C8.91649 24.3572 8.9978 24.4757 9.08527 24.5896C9.2438 24.7706 9.41391 24.9411 9.59455 25.0999C9.86465 25.3583 10.1659 25.5819 10.4913 25.7655C11.2814 26.2185 12.172 26.4665 13.0821 26.4866H14.0785H15.1856H16.2928H17.6103V34.8289C17.6103 35.9204 18.043 36.9673 18.8133 37.7391C19.5836 38.511 20.6284 38.9446 21.7178 38.9446C22.8072 38.9446 23.8519 38.511 24.6222 37.7391C25.3925 36.9673 25.8253 35.9204 25.8253 34.8289V33.2203H30.8185V34.84C30.8238 35.9128 31.2446 36.9416 31.9923 37.7094C32.74 38.4772 33.7562 38.9241 34.8263 38.9557H34.926C35.4649 38.9557 35.9985 38.8492 36.4962 38.6422C36.9939 38.4352 37.446 38.1319 37.8265 37.7495C38.2071 37.3672 38.5086 36.9134 38.7138 36.4141C38.919 35.9149 39.0239 35.38 39.0224 34.84V26.8083C39.0101 25.462 38.627 24.1452 37.9153 23.0032C38.6096 21.8791 38.9847 20.5866 39.0003 19.2647V19.2647ZM36.786 26.8638V34.8955C36.8059 35.156 36.7719 35.4179 36.6861 35.6647C36.6002 35.9114 36.4644 36.1378 36.2872 36.3295C36.11 36.5212 35.8951 36.6742 35.6561 36.7788C35.4171 36.8834 35.1591 36.9374 34.8983 36.9374C34.6375 36.9374 34.3795 36.8834 34.1405 36.7788C33.9015 36.6742 33.6866 36.5212 33.5094 36.3295C33.3321 36.1378 33.1964 35.9114 33.1105 35.6647C33.0247 35.4179 32.9907 35.156 33.0106 34.8955V32.1665C33.0106 31.8722 32.894 31.5901 32.6864 31.382C32.4787 31.174 32.1971 31.0571 31.9035 31.0571H24.696C24.4024 31.0571 24.1207 31.174 23.9131 31.382C23.7055 31.5901 23.5889 31.8722 23.5889 32.1665V34.8843C23.5889 35.3875 23.3894 35.87 23.0343 36.2257C22.6793 36.5815 22.1977 36.7814 21.6956 36.7814C21.1935 36.7814 20.712 36.5815 20.3569 36.2257C20.0019 35.87 19.8024 35.3875 19.8024 34.8843V26.542C21.8252 26.3262 23.6823 25.3222 24.9728 23.7465C25.2092 23.4559 25.4238 23.1481 25.6149 22.8257L25.8253 22.737C26.3126 22.5086 26.7435 22.1753 27.0874 21.7607H31.671C31.826 21.7607 31.9699 21.7607 32.1138 21.7607C32.4907 21.7949 32.8623 21.873 33.221 21.9937C33.5747 22.111 33.916 22.2634 34.2396 22.4485C34.5177 22.6219 34.7806 22.8186 35.0256 23.0365C35.3047 23.2829 35.557 23.558 35.7785 23.8574C36.4187 24.7194 36.7608 25.7671 36.7528 26.8416L36.786 26.8638ZM13.9567 24.2568H13.0821C12.4793 24.2487 11.8915 24.0678 11.3881 23.7354C11.1592 23.599 10.9566 23.4224 10.7903 23.214C10.7036 23.0963 10.6294 22.9699 10.5688 22.8368C10.4223 22.5935 10.3175 22.3273 10.2588 22.0492C10.1307 21.4323 10.206 20.7903 10.4736 20.2201C10.7412 19.6498 11.1865 19.1822 11.7424 18.8875C12.7498 18.2931 13.55 17.4022 14.0342 16.336C14.4908 15.397 15.2027 14.6063 16.088 14.0548C16.9733 13.5033 17.996 13.2135 19.0385 13.2187C19.3578 13.2213 19.6763 13.251 19.9906 13.3075C21.3662 13.5484 22.6 14.3013 23.4449 15.4153L25.5485 18.6435C25.6597 18.8136 25.7322 19.0061 25.7609 19.2074C25.7896 19.4087 25.7738 19.6138 25.7145 19.8083C25.6741 19.9338 25.6102 20.0505 25.5264 20.1522C25.4067 20.3537 25.2345 20.5187 25.0281 20.6292L24.9506 20.6958L24.076 21.0951L22.681 21.7164L22.3931 21.8495C22.1237 21.9756 21.8206 22.0106 21.5295 21.9493C21.4232 21.9262 21.3194 21.8927 21.2195 21.8495C21.0361 21.7639 20.8737 21.6392 20.7436 21.4839C20.6135 21.3287 20.519 21.1467 20.4667 20.9509L19.4703 17.401C19.4512 17.3496 19.4251 17.3011 19.3928 17.2568C19.2665 17.0238 19.0611 16.8438 18.8138 16.7495C18.5665 16.6552 18.2936 16.6527 18.0447 16.7426C17.7957 16.8324 17.5871 17.0086 17.4567 17.2393C17.3262 17.47 17.2825 17.7399 17.3335 18L18.3299 21.55C18.5749 22.421 19.1408 23.1664 19.9131 23.6356C20.0321 23.72 20.158 23.7942 20.2896 23.8574C20.4643 23.9367 20.6458 23.9999 20.832 24.046C20.4531 24.1687 20.0641 24.2577 19.6696 24.3122H19.2488H19.0385H17.7985H15.5842L13.9567 24.2568ZM36.3542 21.2394C35.9085 20.8757 35.4261 20.5597 34.9149 20.2964C34.9631 19.9546 34.989 19.6099 34.9924 19.2647C34.9941 17.4669 34.3315 15.7321 33.1324 14.3946C33.8183 14.5942 34.4541 14.9376 34.9974 15.4021C35.5408 15.8666 35.9794 16.4416 36.284 17.0889C36.5887 17.7362 36.7525 18.441 36.7646 19.1565C36.7767 19.8721 36.6368 20.5821 36.3542 21.2394V21.2394Z" fill="#495057"/>
</g>
<defs>
<clipPath id="clip0_2256_15702">
<rect width="32" height="32" fill="white" transform="translate(8 8)"/>
</clipPath>
</defs>
</svg>
