<svg width="28" height="56" viewBox="0 0 28 56" fill="none" xmlns="http://www.w3.org/2000/svg">
<path d="M0 0H20C24.4183 0 28 3.58172 28 8V48C28 52.4183 24.4183 56 20 56H0V0Z" fill="white" fill-opacity="0.85"/>
<path d="M11 28L10.2929 27.2929C9.90237 27.6834 9.90237 28.3166 10.2929 28.7071L11 28ZM16.2929 34.7071C16.6834 35.0976 17.3166 35.0976 17.7071 34.7071C18.0976 34.3166 18.0976 33.6834 17.7071 33.2929L16.2929 34.7071ZM17.7071 22.7071C18.0976 22.3166 18.0976 21.6834 17.7071 21.2929C17.3166 20.9024 16.6834 20.9024 16.2929 21.2929L17.7071 22.7071ZM10.2929 28.7071L16.2929 34.7071L17.7071 33.2929L11.7071 27.2929L10.2929 28.7071ZM16.2929 21.2929L10.2929 27.2929L11.7071 28.7071L17.7071 22.7071L16.2929 21.2929Z" fill="#B3BDC7"/>
</svg>
