<svg width="40" height="72" viewBox="0 0 40 72" fill="none" xmlns="http://www.w3.org/2000/svg">
<path d="M0 0H32C36.4183 0 40 3.58172 40 8V64C40 68.4183 36.4183 72 32 72H0V0Z" fill="white" fill-opacity="0.85"/>
<path d="M17 36L16.2929 35.2929C15.9024 35.6834 15.9024 36.3166 16.2929 36.7071L17 36ZM22.2929 42.7071C22.6834 43.0976 23.3166 43.0976 23.7071 42.7071C24.0976 42.3166 24.0976 41.6834 23.7071 41.2929L22.2929 42.7071ZM23.7071 30.7071C24.0976 30.3166 24.0976 29.6834 23.7071 29.2929C23.3166 28.9024 22.6834 28.9024 22.2929 29.2929L23.7071 30.7071ZM16.2929 36.7071L22.2929 42.7071L23.7071 41.2929L17.7071 35.2929L16.2929 36.7071ZM22.2929 29.2929L16.2929 35.2929L17.7071 36.7071L23.7071 30.7071L22.2929 29.2929Z" fill="#B3BDC7"/>
<path d="M0 0V-1H-1V0H0ZM0 72H-1V73H0V72ZM0 1H32V-1H0V1ZM39 8V64H41V8H39ZM32 71H0V73H32V71ZM1 72V0H-1V72H1ZM39 64C39 67.866 35.866 71 32 71V73C36.9706 73 41 68.9706 41 64H39ZM32 1C35.866 1 39 4.13401 39 8H41C41 3.02944 36.9706 -1 32 -1V1Z" fill="#E9ECEF"/>
</svg>
