<svg width="40" height="72" viewBox="0 0 40 72" fill="none" xmlns="http://www.w3.org/2000/svg">
<path d="M0 8C0 3.58172 3.58172 0 8 0H40V72H8C3.58172 72 0 68.4183 0 64V8Z" fill="white" fill-opacity="0.85"/>
<path d="M24 36L24.7071 36.7071C24.8946 36.5196 25 36.2652 25 36C25 35.7348 24.8946 35.4804 24.7071 35.2929L24 36ZM17.2929 41.2929C16.9024 41.6834 16.9024 42.3166 17.2929 42.7071C17.6834 43.0976 18.3166 43.0976 18.7071 42.7071L17.2929 41.2929ZM18.7071 29.2929C18.3166 28.9024 17.6834 28.9024 17.2929 29.2929C16.9024 29.6834 16.9024 30.3166 17.2929 30.7071L18.7071 29.2929ZM23.2929 35.2929L17.2929 41.2929L18.7071 42.7071L24.7071 36.7071L23.2929 35.2929ZM17.2929 30.7071L23.2929 36.7071L24.7071 35.2929L18.7071 29.2929L17.2929 30.7071Z" fill="#B3BDC7"/>
<path d="M40 0H41V-1H40V0ZM40 72V73H41V72H40ZM8 1H40V-1H8V1ZM39 0V72H41V0H39ZM40 71H8V73H40V71ZM1 64V8H-1V64H1ZM8 71C4.13401 71 1 67.866 1 64H-1C-1 68.9706 3.02944 73 8 73V71ZM8 -1C3.02944 -1 -1 3.02944 -1 8H1C1 4.13401 4.13401 1 8 1V-1Z" fill="#E9ECEF"/>
</svg>
