<svg width="28" height="56" viewBox="0 0 28 56" fill="none" xmlns="http://www.w3.org/2000/svg">
<path d="M0 8C0 3.58172 3.58172 0 8 0H28V56H8C3.58172 56 0 52.4183 0 48V8Z" fill="white" fill-opacity="0.85"/>
<path d="M18 28L18.7071 28.7071C18.8946 28.5196 19 28.2652 19 28C19 27.7348 18.8946 27.4804 18.7071 27.2929L18 28ZM11.2929 33.2929C10.9024 33.6834 10.9024 34.3166 11.2929 34.7071C11.6834 35.0976 12.3166 35.0976 12.7071 34.7071L11.2929 33.2929ZM12.7071 21.2929C12.3166 20.9024 11.6834 20.9024 11.2929 21.2929C10.9024 21.6834 10.9024 22.3166 11.2929 22.7071L12.7071 21.2929ZM17.2929 27.2929L11.2929 33.2929L12.7071 34.7071L18.7071 28.7071L17.2929 27.2929ZM11.2929 22.7071L17.2929 28.7071L18.7071 27.2929L12.7071 21.2929L11.2929 22.7071Z" fill="#B3BDC7"/>
</svg>
