<svg width="12" height="12" viewBox="0 0 12 12" fill="none" xmlns="http://www.w3.org/2000/svg">
<rect width="12" height="12" fill="white"/>
<path d="M5.99935 8.61913L8.8672 10.5834L8.08149 7.10663L10.5827 4.85425L7.28923 4.65783L5.99935 1.41675L4.70947 4.65783L1.41602 4.85425L3.91721 7.10663L3.13149 10.5834L5.99935 8.61913Z" fill="#1482FF"/>
<path fill-rule="evenodd" clip-rule="evenodd" d="M6 0.5C6.28156 0.5 6.53466 0.671679 6.63877 0.933282L7.83154 3.93037L10.8534 4.11059C11.1301 4.12709 11.3698 4.30811 11.4614 4.5697C11.5529 4.83129 11.4785 5.12229 11.2725 5.30776L8.94561 7.40322L9.68182 10.661C9.74415 10.9368 9.63126 11.2226 9.3973 11.3814C9.16333 11.5401 8.85602 11.5395 8.62274 11.3797L6 9.5833L3.37726 11.3797C3.14398 11.5395 2.83667 11.5401 2.6027 11.3814C2.36874 11.2226 2.25585 10.9368 2.31818 10.661L3.05439 7.40322L0.727465 5.30776C0.52151 5.12229 0.447062 4.83129 0.538645 4.5697C0.630229 4.30811 0.86993 4.12709 1.14659 4.11059L4.16846 3.93037L5.36123 0.933283C5.46534 0.67168 5.71844 0.5 6 0.5ZM6 3.04676L5.2844 4.84485C5.18579 5.09264 4.95278 5.26104 4.68656 5.27691L2.86837 5.38535L4.27382 6.651C4.45867 6.81746 4.53918 7.07079 4.48435 7.31342L4.04548 9.25542L5.6115 8.18279C5.84567 8.0224 6.15433 8.0224 6.3885 8.18279L7.95452 9.25542L7.51565 7.31342C7.46082 7.07079 7.54133 6.81746 7.72618 6.651L9.13163 5.38535L7.31344 5.27691C7.04723 5.26104 6.81421 5.09264 6.7156 4.84485L6 3.04676Z" fill="#1482FF"/>
</svg>
