<svg width="24" height="24" viewBox="0 0 24 24" fill="none" xmlns="http://www.w3.org/2000/svg">
<circle cx="12" cy="12" r="12" fill="white"/>
<path opacity="0.5" d="M12.3498 17.3975L17.0377 12.6563C18.1894 11.4857 18.3572 9.57166 17.2692 8.34833C16.9963 8.04004 16.6642 7.79126 16.293 7.61719C15.9219 7.44311 15.5195 7.3474 15.1106 7.33589C14.7016 7.32439 14.2946 7.39734 13.9145 7.55028C13.5344 7.70322 13.189 7.93294 12.8997 8.22541L12.02 9.12095L11.2618 8.34833C10.1043 7.18353 8.2118 7.01378 7.00222 8.11419C6.6974 8.39017 6.45141 8.7261 6.27929 9.10146C6.10718 9.47683 6.01254 9.88374 6.00116 10.2973C5.98979 10.711 6.06192 11.1226 6.21314 11.507C6.36436 11.8915 6.5915 12.2407 6.88068 12.5334L11.6901 17.3975C11.7779 17.4854 11.8964 17.5347 12.02 17.5347C12.1435 17.5347 12.2621 17.4854 12.3498 17.3975Z" fill="white"/>
<path d="M12.3498 17.3975L17.0377 12.6563C18.1894 11.4857 18.3572 9.57166 17.2692 8.34833C16.9963 8.04004 16.6642 7.79126 16.293 7.61719C15.9219 7.44311 15.5195 7.3474 15.1106 7.33589C14.7016 7.32439 14.2946 7.39734 13.9145 7.55028C13.5344 7.70322 13.189 7.93294 12.8997 8.22541L12.02 9.12096L11.2618 8.34833C10.1043 7.18353 8.2118 7.01378 7.00222 8.11419C6.6974 8.39017 6.45141 8.7261 6.27929 9.10146C6.10718 9.47683 6.01254 9.88374 6.00116 10.2973C5.98979 10.711 6.06192 11.1226 6.21314 11.507C6.36436 11.8915 6.5915 12.2407 6.88068 12.5334L11.6901 17.3975C11.7779 17.4854 11.8964 17.5347 12.02 17.5347C12.1435 17.5347 12.2621 17.4854 12.3498 17.3975V17.3975Z" stroke="#343A40" stroke-width="1.5" stroke-linecap="round" stroke-linejoin="round"/>
</svg>
