<svg width="48" height="48" viewBox="0 0 48 48" fill="none" xmlns="http://www.w3.org/2000/svg">
<g clip-path="url(#clip0_2256_15648)">
<path d="M31.7898 15.7794C31.6746 15.4268 31.5163 15.0898 31.3184 14.7758C31.243 14.6344 31.157 14.4988 31.0613 14.3701C30.9515 14.2482 30.8333 14.1341 30.7077 14.0285C30.4458 13.7697 30.1504 13.5471 29.8292 13.3666C29.4707 13.1681 29.0893 13.014 28.6934 12.9075C26.82 12.5138 24.8681 12.762 23.1541 13.6121C22.3349 13.9731 21.4752 14.2348 20.5934 14.3915C19.4222 14.6043 18.3197 15.095 17.3791 15.8221C16.6635 16.3668 16.0566 17.0404 15.5898 17.8078H18.3649C18.472 17.7118 18.5684 17.605 18.6863 17.5089C19.367 16.9876 20.1651 16.6394 21.0113 16.4947C22.0685 16.3122 23.0982 15.9965 24.0755 15.5552C24.7594 15.2489 25.4794 15.0301 26.2184 14.9039C26.5056 14.8588 26.7956 14.8338 27.0863 14.8292C27.3635 14.8289 27.64 14.8575 27.9113 14.9146C28.2989 14.9902 28.6649 15.1507 28.9827 15.3843C29.1155 15.4776 29.2346 15.589 29.3363 15.7153C29.4377 15.8438 29.524 15.9835 29.5934 16.1317C29.7593 16.5041 29.8363 16.9097 29.8184 17.3167C29.829 17.4803 29.829 17.6443 29.8184 17.8078H31.9613C31.9772 17.5305 31.9772 17.2525 31.9613 16.9751C31.9536 16.571 31.896 16.1694 31.7898 15.7794Z" fill="#61ABFF"/>
<path d="M30.7067 14.0285L31.7782 13.153C31.8957 13.0583 31.9917 12.9399 32.0601 12.8056C32.1284 12.6713 32.1674 12.5241 32.1746 12.3737C32.1792 12.1907 32.2238 12.0109 32.3052 11.8468C32.3866 11.6827 32.5029 11.5382 32.646 11.4235C32.813 11.2897 33.011 11.1997 33.2218 11.1616C33.4326 11.1235 33.6497 11.1384 33.8532 11.2051C34.0567 11.2719 34.2403 11.3882 34.3872 11.5436C34.5341 11.699 34.6398 11.8885 34.6945 12.0949C34.7492 12.3014 34.7513 12.5181 34.7005 12.7255C34.6498 12.933 34.5478 13.1245 34.4039 13.2826C34.26 13.4408 34.0787 13.5606 33.8765 13.6312C33.6743 13.7018 33.4575 13.7209 33.246 13.6868C33.0954 13.6611 32.9409 13.6678 32.7931 13.7065C32.6452 13.7452 32.5074 13.8149 32.3889 13.911L31.3174 14.7758C31.5153 15.0898 31.6737 15.4268 31.7889 15.7793C31.9096 16.1676 31.9816 16.5692 32.0032 16.9751L33.4175 15.8327C34.2231 15.8591 35.0111 15.5936 35.6353 15.0854V15.0854C36.0676 14.7402 36.4098 14.296 36.6327 13.7907C36.8557 13.2854 36.9529 12.7339 36.916 12.1831C36.8791 11.6324 36.7093 11.0986 36.4209 10.6273C36.1326 10.156 35.7342 9.76107 35.2597 9.47613C34.7853 9.19119 34.2488 9.02468 33.6959 8.99074C33.1429 8.9568 32.59 9.05642 32.084 9.28117C31.578 9.50592 31.134 9.84913 30.7898 10.2816C30.4455 10.7141 30.2112 11.223 30.1067 11.7651L28.7246 12.9075C29.1205 13.014 29.5019 13.1681 29.8603 13.3665C30.1703 13.5494 30.4548 13.7719 30.7067 14.0285Z" fill="#495057"/>
<path d="M36.3652 23.5409H35.8723V23.0498L36.8795 19.1423C36.9196 18.9847 36.9231 18.8201 36.8897 18.661C36.8562 18.5019 36.7868 18.3525 36.6866 18.2241C36.5868 18.095 36.4586 17.9903 36.3119 17.9181C36.1652 17.8459 36.0038 17.8082 35.8402 17.8078H12.1723C12.0059 17.8025 11.8407 17.8359 11.6895 17.9053C11.5383 17.9748 11.4055 18.0784 11.3015 18.2079C11.1975 18.3374 11.1252 18.4893 11.0904 18.6515C11.0556 18.8137 11.0592 18.9817 11.1009 19.1423L12.108 23.0498V23.5409H11.6152C10.9133 23.5409 10.2402 23.8187 9.74387 24.3133C9.24757 24.8078 8.96875 25.4785 8.96875 26.1779C8.96875 26.8773 9.24757 27.548 9.74387 28.0425C10.2402 28.5371 10.9133 28.8149 11.6152 28.8149H12.108V31.2064C12.107 31.8203 12.2872 32.421 12.6263 32.9336C12.9655 33.4462 13.4485 33.848 14.0152 34.0889C14.0862 34.7019 14.3616 35.2733 14.7973 35.7117L16.5973 37.516C16.6974 37.6149 16.8162 37.6932 16.9467 37.7463C17.0773 37.7994 17.217 37.8264 17.3581 37.8256C17.4991 37.8264 17.6388 37.7994 17.7694 37.7463C17.8999 37.6932 18.0186 37.6149 18.1187 37.516L18.9866 36.6405C19.2859 36.3437 19.513 35.9825 19.6505 35.5846C19.7879 35.1867 19.8321 34.7627 19.7795 34.3452H20.2938C20.4425 34.9932 20.7732 35.5857 21.2473 36.0533L23.8937 38.6904C24.0916 38.8915 24.3611 39.0066 24.6438 39.0106C24.7855 39.01 24.9257 38.9814 25.0563 38.9265C25.1869 38.8715 25.3053 38.7912 25.4045 38.6904L26.6795 37.4199C27.0775 37.0222 27.3753 36.5363 27.5485 36.0018C27.7217 35.4674 27.7654 34.8997 27.6759 34.3452H28.1044C28.2239 34.8606 28.4834 35.3334 28.8545 35.7117L30.6652 37.516C30.7653 37.6149 30.884 37.6932 31.0146 37.7463C31.1451 37.7994 31.2849 37.8264 31.4259 37.8256C31.707 37.8244 31.9763 37.7132 32.1759 37.516L33.0544 36.6405C33.3796 36.3176 33.6193 35.9194 33.7521 35.4816C33.8848 35.0437 33.9065 34.5799 33.8152 34.1316C34.4061 33.904 34.9145 33.5041 35.2738 32.9841C35.6332 32.4642 35.8268 31.8484 35.8295 31.217V28.8256H36.3224C37.0242 28.8256 37.6973 28.5478 38.1936 28.0532C38.6899 27.5587 38.9687 26.8879 38.9687 26.1886C38.9687 25.4892 38.6899 24.8184 38.1936 24.3239C37.6973 23.8294 37.0242 23.5515 36.3224 23.5515L36.3652 23.5409ZM36.3652 26.6797H35.8723V25.6761H36.3652C36.4969 25.6789 36.6222 25.733 36.7143 25.8268C36.8065 25.9206 36.8581 26.0466 36.8581 26.1779C36.8581 26.3091 36.8065 26.4352 36.7143 26.529C36.6222 26.6228 36.4969 26.6769 36.3652 26.6797V26.6797ZM33.7294 31.2064C33.7294 31.4697 33.6245 31.7222 33.4376 31.9084C33.2507 32.0946 32.9973 32.1992 32.733 32.1992H32.6045L31.2866 30.8861C31.0859 30.6872 30.8143 30.5756 30.5312 30.5756C30.2482 30.5756 29.9766 30.6872 29.7759 30.8861L28.8973 31.7509C28.7614 31.8853 28.6427 32.0359 28.5438 32.1992H26.583L24.0759 29.7117C23.9763 29.6116 23.8578 29.5322 23.7272 29.478C23.5967 29.4238 23.4566 29.3959 23.3152 29.3959C23.1738 29.3959 23.0337 29.4238 22.9031 29.478C22.7726 29.5322 22.6541 29.6116 22.5545 29.7117L21.2902 30.9715C20.9381 31.3195 20.6643 31.7379 20.4866 32.1992H18.5366L17.2188 30.8861C17.018 30.6872 16.7464 30.5756 16.4634 30.5756C16.1803 30.5756 15.9088 30.6872 15.708 30.8861L14.8402 31.7509C14.7759 31.8256 14.7223 31.9003 14.658 31.9644C14.5423 31.8743 14.4484 31.7594 14.3835 31.6281C14.3186 31.4969 14.2842 31.3527 14.2831 31.2064V22.9003C14.2943 22.8117 14.2943 22.722 14.2831 22.6334L13.5866 19.9217H34.4902L33.9759 21.8327H17.2938C17.0231 21.8336 16.7628 21.9366 16.5652 22.1209C16.4575 22.2205 16.3714 22.3411 16.3125 22.4751C16.2535 22.6092 16.2228 22.7539 16.2223 22.9003C16.2283 23.1304 16.3087 23.3524 16.4516 23.5333C16.5944 23.7141 16.7921 23.8441 17.0152 23.9039C17.1035 23.9414 17.1978 23.9631 17.2938 23.9679H33.7294V31.185V31.2064ZM31.5866 35.1245L31.4795 35.2419L30.5794 34.3345L30.4295 34.185C30.3667 34.1264 30.317 34.0551 30.2838 33.976C30.2506 33.8969 30.2344 33.8117 30.2366 33.7259C30.2367 33.5555 30.3019 33.3913 30.4188 33.2668V33.2668L30.5259 33.1494L30.6437 33.2668L31.5759 34.1957C31.6116 34.2393 31.6439 34.2857 31.6723 34.3345C31.7462 34.4582 31.7767 34.6029 31.7593 34.7459C31.7419 34.8888 31.6773 35.022 31.5759 35.1245H31.5866ZM25.2116 35.9039L24.6973 36.4163L22.8116 34.5373C22.7612 34.4747 22.7181 34.4067 22.683 34.3345C22.4912 34.0577 22.3995 33.7242 22.4228 33.3886C22.4462 33.053 22.5832 32.7353 22.8116 32.4875L23.1009 32.1992L23.3259 31.975L23.5616 32.1992L24.633 33.2668L25.2116 33.8541C25.3543 33.9875 25.4643 34.1519 25.5331 34.3345C25.64 34.5994 25.6654 34.89 25.6063 35.1695C25.5472 35.4489 25.4061 35.7045 25.2009 35.9039H25.2116ZM17.5295 35.1245L17.4116 35.2419L16.5116 34.3345L16.3616 34.185C16.2988 34.1264 16.2492 34.0551 16.2159 33.976C16.1827 33.8969 16.1666 33.8117 16.1688 33.7259C16.1686 33.6405 16.1855 33.5558 16.2186 33.477C16.2517 33.3981 16.3004 33.3267 16.3616 33.2668V33.2668L16.4795 33.1494L16.5973 33.2668L17.5295 34.1957C17.5656 34.2369 17.5946 34.2838 17.6152 34.3345C17.6909 34.4577 17.7225 34.6028 17.705 34.7462C17.6875 34.8896 17.6219 35.023 17.5187 35.1245H17.5295ZM11.1544 26.1779C11.1572 26.0457 11.2111 25.9196 11.305 25.8261C11.3988 25.7326 11.5253 25.6788 11.658 25.6761H12.1509V26.6797H11.658C11.5235 26.6797 11.3943 26.6272 11.2981 26.5334C11.202 26.4395 11.1466 26.3119 11.1438 26.1779H11.1544Z" fill="#495057"/>
</g>
<defs>
<clipPath id="clip0_2256_15648">
<rect width="30" height="30" fill="white" transform="translate(9 9)"/>
</clipPath>
</defs>
</svg>
