<svg width="48" height="48" viewBox="0 0 48 48" fill="none" xmlns="http://www.w3.org/2000/svg">
<g clip-path="url(#clip0_2256_15658)">
<path d="M38.9996 20.0396C38.9996 18.9863 38.5842 17.9763 37.8448 17.2315C37.1054 16.4868 36.1025 16.0684 35.0568 16.0684C34.0111 16.0684 33.0082 16.4868 32.2687 17.2315C31.5293 17.9763 31.1139 18.9863 31.1139 20.0396C31.1139 20.1583 31.1139 20.2662 31.1139 20.3849C30.5274 20.6399 30.0122 21.0365 29.6139 21.5396C28.7624 21.1733 27.8102 21.1196 26.9234 21.3879C26.0366 21.6562 25.2715 22.2296 24.7614 23.0079C24.2513 23.7863 24.0287 24.7203 24.1322 25.647C24.2358 26.5738 24.659 27.4345 25.3282 28.0792C24.9401 28.5873 24.6799 29.1824 24.5698 29.8139C24.4597 30.4453 24.503 31.0942 24.6961 31.705C24.8803 32.3258 25.2161 32.8901 25.6728 33.3463C26.1295 33.8026 26.6926 34.1362 27.3104 34.3166C27.6798 34.4224 28.062 34.4769 28.4461 34.4784H28.8425C28.713 34.132 28.6336 33.7685 28.6068 33.3993C28.6068 33.2806 28.6068 33.1619 28.6068 33.0432C28.6099 32.8004 28.635 32.5584 28.6818 32.3202C28.4293 32.3417 28.1751 32.3161 27.9318 32.2446C27.6603 32.1613 27.413 32.0127 27.2114 31.8115C27.0097 31.6103 26.8599 31.3626 26.7747 31.0899C26.67 30.7665 26.6556 30.4203 26.7331 30.0891C26.8105 29.758 26.9769 29.4546 27.2139 29.2122C27.3862 29.0383 27.5186 28.8285 27.6018 28.5975C27.6851 28.3665 27.7171 28.12 27.6957 27.8753C27.6742 27.6305 27.5999 27.3934 27.4778 27.1807C27.3557 26.968 27.1888 26.7848 26.989 26.6439C26.7166 26.4327 26.5091 26.1482 26.3905 25.8232C26.2719 25.4982 26.247 25.1461 26.3187 24.8075C26.3904 24.4689 26.5558 24.1577 26.7958 23.9098C27.0357 23.6618 27.3404 23.4873 27.6746 23.4065C27.7992 23.3912 27.9251 23.3912 28.0497 23.4065C28.3627 23.4079 28.6698 23.4936 28.939 23.6547C29.3198 23.885 29.7748 23.9563 30.2072 23.8535C30.6395 23.7507 31.0148 23.4818 31.2532 23.1043C31.4326 22.8428 31.6714 22.6283 31.9497 22.4784C32.3578 22.2707 32.8293 22.2282 33.2675 22.3597H33.3425C33.5934 22.4406 33.8213 22.5813 34.0068 22.7698C34.2139 22.9738 34.3684 23.2257 34.4568 23.5036C34.5079 23.6677 34.5332 23.8388 34.5318 24.0108C34.545 24.3963 34.4321 24.7754 34.2104 25.0899V25.0899C33.9558 25.444 33.8431 25.8817 33.8947 26.3157C33.9463 26.7497 34.1585 27.1482 34.489 27.4317C34.733 27.6348 34.9184 27.9001 35.0258 28.2001C35.1333 28.5 35.1588 28.8234 35.0997 29.1367C35.0593 29.3751 34.9639 29.6006 34.8211 29.795C35.1207 30.0105 35.3878 30.2686 35.6139 30.5612C35.8529 30.8606 36.051 31.1909 36.2032 31.5432C36.9042 30.8009 37.295 29.8158 37.295 28.7914C37.295 27.767 36.9042 26.7818 36.2032 26.0396C36.6115 25.3316 36.7912 24.5133 36.7175 23.6979C37.4062 23.3728 37.9877 22.8551 38.3923 22.2065C38.797 21.5578 39.0077 20.8056 38.9996 20.0396V20.0396ZM35.8711 21.6583C35.342 20.9414 34.5862 20.4275 33.7282 20.2014L33.214 20.0935C33.2129 20.0755 33.2129 20.0575 33.214 20.0396C33.214 19.5588 33.4036 19.0976 33.7412 18.7576C34.0787 18.4176 34.5366 18.2266 35.0139 18.2266C35.4913 18.2266 35.9492 18.4176 36.2867 18.7576C36.6243 19.0976 36.8139 19.5588 36.8139 20.0396C36.8196 20.3706 36.7345 20.6968 36.5682 20.9823C36.4019 21.2678 36.1607 21.5017 35.8711 21.6583V21.6583Z" fill="#495057"/>
<path d="M19.1685 19.8777C19.386 20.3632 19.6982 20.7998 20.0866 21.1613C20.475 21.5228 20.9316 21.8019 21.4293 21.982C21.8452 22.1322 22.2838 22.2089 22.7257 22.2087C23.746 22.2152 24.7292 21.8231 25.4685 21.1147C26.2078 20.4063 26.6456 19.4368 26.69 18.4101C26.4364 18.4654 26.178 18.4944 25.9186 18.4964H25.5971C25.2305 18.4694 24.8697 18.3894 24.5257 18.259C24.5254 18.6982 24.3697 19.1229 24.0864 19.4568C23.8511 19.7313 23.5395 19.9284 23.1919 20.0226C22.8443 20.1169 22.4767 20.104 22.1364 19.9856C21.8991 19.9074 21.6809 19.7795 21.4962 19.6102C21.3116 19.441 21.1646 19.2342 21.065 19.0036C20.8443 18.5233 20.4561 18.1413 19.9741 17.9304C19.4921 17.7195 18.9499 17.6944 18.4507 17.8597C18.1543 17.9614 17.8365 17.982 17.5297 17.9195C17.2228 17.8569 16.938 17.7134 16.7042 17.5036C16.4235 17.2514 16.2267 16.9184 16.1404 16.5496C16.0542 16.1809 16.0827 15.7943 16.2221 15.4424C16.3607 15.0893 16.6059 14.789 16.9231 14.5837C17.2403 14.3785 17.6135 14.2787 17.99 14.2986C18.5113 14.341 19.03 14.19 19.4483 13.8739C19.8667 13.5579 20.1559 13.0986 20.2614 12.5827C20.3061 12.4187 20.3672 12.2596 20.4435 12.1079C20.5778 11.8714 20.763 11.6681 20.9855 11.5131C21.208 11.3581 21.4621 11.2553 21.7293 11.2122C21.9862 11.1723 22.2488 11.1893 22.4986 11.262C22.7484 11.3347 22.9795 11.4613 23.1757 11.6331C23.4406 11.3824 23.7401 11.1716 24.065 11.0072C24.4002 10.8231 24.7616 10.692 25.1364 10.6187C25.0002 10.4278 24.846 10.2507 24.6757 10.0899C24.2397 9.68665 23.7194 9.38714 23.1531 9.21347C22.5868 9.0398 21.9891 8.9964 21.4039 9.08651C20.8188 9.17663 20.2611 9.39793 19.7722 9.7341C19.2834 10.0703 18.8757 10.5127 18.5792 11.0288C18.387 11.3719 18.2291 11.7334 18.1078 12.1079C17.2846 12.0598 16.4672 12.2735 15.7711 12.7189C15.0751 13.1643 14.5357 13.8189 14.2292 14.59C13.9225 15.3611 13.8608 16.209 14.0527 17.017C14.2446 17.8249 14.6807 18.5529 15.3007 19.1007C15.8181 19.5658 16.4495 19.883 17.1296 20.0197C17.8096 20.1563 18.5136 20.1073 19.1685 19.8777Z" fill="#495057"/>
<path d="M21.1283 31.0683C20.3428 31.064 19.5739 31.2948 18.9189 31.7314C18.2639 32.168 17.7525 32.7908 17.4495 33.5206C17.1465 34.2504 17.0655 35.0545 17.2169 35.8307C17.3683 36.607 17.7452 37.3204 18.2999 37.8805C18.8545 38.4407 19.5619 38.8223 20.3321 38.9769C21.1024 39.1315 21.901 39.0521 22.6264 38.7489C23.3518 38.4457 23.9714 37.9323 24.4067 37.2738C24.842 36.6153 25.0732 35.8414 25.0711 35.0503C25.0711 33.9961 24.6561 32.9849 23.917 32.2384C23.1778 31.492 22.175 31.0712 21.1283 31.0683V31.0683ZM21.1283 36.8849C20.7671 36.8891 20.4129 36.7852 20.1106 36.5862C19.8083 36.3873 19.5714 36.1023 19.4303 35.7675C19.2891 35.4326 19.25 35.0631 19.3179 34.7058C19.3857 34.3486 19.5574 34.0197 19.8113 33.7609C20.0651 33.5022 20.3897 33.3253 20.7435 33.2528C21.0974 33.1802 21.4647 33.2153 21.7988 33.3535C22.1329 33.4917 22.4187 33.7268 22.6198 34.0289C22.8209 34.331 22.9282 34.6866 22.9283 35.0503C22.9199 35.5265 22.7269 35.9805 22.3905 36.3153C22.0542 36.65 21.6011 36.8389 21.1283 36.8417V36.8849Z" fill="#495057"/>
<path d="M19.7685 24.7446C19.7685 23.6913 19.3531 22.6812 18.6137 21.9365C17.8743 21.1917 16.8714 20.7733 15.8257 20.7733C14.78 20.7733 13.7771 21.1917 13.0377 21.9365C12.2983 22.6812 11.8828 23.6913 11.8828 24.7446C11.893 25.3094 12.0131 25.8666 12.2364 26.3848C12.3974 26.7421 12.6105 27.0731 12.8686 27.3669C13.3401 27.9068 13.9469 28.3093 14.6257 28.5323C14.9962 28.6553 15.3822 28.7244 15.7721 28.7374V28.7374C16.8146 28.7151 17.8079 28.2867 18.5432 27.5421C19.2785 26.7974 19.6985 25.7947 19.715 24.7446H19.7685ZM15.9007 26.5683H15.8257C15.4598 26.5676 15.1029 26.4547 14.8024 26.2446C14.5018 26.0344 14.272 25.737 14.1435 25.392C14.0654 25.1815 14.0255 24.9585 14.0257 24.7338C14.0281 24.3789 14.1338 24.0326 14.3298 23.7377C14.5257 23.4429 14.8032 23.2124 15.128 23.0749C15.4527 22.9374 15.8104 22.8988 16.1567 22.9641C16.503 23.0294 16.8227 23.1955 17.0761 23.442C17.3295 23.6885 17.5055 24.0045 17.5823 24.3508C17.6591 24.697 17.6334 25.0584 17.5083 25.3901C17.3831 25.7218 17.1641 26.0092 16.8784 26.2167C16.5926 26.4242 16.2527 26.5427 15.9007 26.5575V26.5683Z" fill="#495057"/>
<path d="M15.8251 28.7374C15.4352 28.7245 15.0491 28.6554 14.6787 28.5324C14.7604 28.7423 14.804 28.9653 14.8073 29.1907C14.807 29.5481 14.7024 29.8975 14.5065 30.1956C14.3107 30.4937 14.0322 30.7272 13.7057 30.8672C13.3792 31.0071 13.019 31.0474 12.67 30.9829C12.3209 30.9185 11.9984 30.7522 11.7424 30.5046C11.4865 30.257 11.3084 29.9392 11.2303 29.5905C11.1521 29.2419 11.1775 28.8778 11.3031 28.5435C11.4287 28.2093 11.6491 27.9195 11.9368 27.7103C12.2246 27.5011 12.567 27.3817 12.9216 27.3669C12.6635 27.0731 12.4504 26.7421 12.2894 26.3849C12.1356 26.0426 12.0345 25.6787 11.9894 25.3058C11.2748 25.4954 10.6273 25.8829 10.1202 26.4244C9.61323 26.966 9.267 27.6398 9.12094 28.3694C8.97488 29.099 9.03484 29.8553 9.29391 30.5524C9.55298 31.2495 10.0008 31.8595 10.5866 32.3132C11.1725 32.7669 11.8729 33.0461 12.6083 33.1192C13.3437 33.1923 14.0848 33.0563 14.7474 32.7267C15.41 32.3971 15.9676 31.887 16.3569 31.2543C16.7463 30.6217 16.9518 29.8918 16.9501 29.1475C16.9446 28.9447 16.9231 28.7426 16.8859 28.5432C16.5428 28.6566 16.1858 28.7219 15.8251 28.7374Z" fill="#61ABFF"/>
<path d="M36.1609 31.5432C36.0087 31.1909 35.8105 30.8607 35.5716 30.5612C35.3454 30.2686 35.0783 30.0105 34.7787 29.795C34.1179 29.313 33.3233 29.0525 32.5073 29.0504C31.464 29.0699 30.4691 29.4975 29.7333 30.2427C28.9974 30.9879 28.5782 31.9923 28.5645 33.0432C28.5645 33.1619 28.5645 33.2806 28.5645 33.3993C28.5913 33.7686 28.6707 34.132 28.8002 34.4785C29.1225 35.3519 29.7401 36.0828 30.5445 36.5429C31.349 37.0029 32.2888 37.1626 33.1985 36.9937C34.1083 36.8249 34.9298 36.3384 35.5187 35.6198C36.1075 34.9012 36.426 33.9965 36.418 33.0648C36.4293 32.5458 36.342 32.0293 36.1609 31.5432ZM34.3073 33.0432C34.3177 33.4737 34.1747 33.8937 33.9043 34.2271C33.6338 34.5606 33.2538 34.7855 32.8329 34.8612C32.412 34.9368 31.9782 34.8582 31.6099 34.6395C31.2416 34.4209 30.9632 34.0766 30.8252 33.6691C30.7472 33.4698 30.7072 33.2574 30.7073 33.0432C30.7061 32.6801 30.8125 32.3249 31.0129 32.023C31.2133 31.7212 31.4986 31.4865 31.8323 31.349C32.046 31.2581 32.2753 31.2104 32.5073 31.2087C32.9198 31.2183 33.3172 31.3671 33.6358 31.6312C33.9544 31.8954 34.1758 32.2596 34.2645 32.6655C34.2952 32.789 34.3096 32.916 34.3073 33.0432Z" fill="#61ABFF"/>
<path d="M25.9603 10.5647C25.7193 10.5679 25.479 10.5932 25.2425 10.6402C24.8677 10.7136 24.5063 10.8446 24.1711 11.0287C23.8462 11.1931 23.5467 11.4039 23.2818 11.6546C22.7903 12.1167 22.4243 12.6976 22.2185 13.3422C22.0128 13.9869 21.9741 14.6738 22.1061 15.3377C22.2382 16.0017 22.5366 16.6206 22.973 17.1356C23.4095 17.6507 23.9694 18.0448 24.5996 18.2805C24.9436 18.411 25.3044 18.4909 25.671 18.5179H25.9925C26.2519 18.5159 26.5104 18.487 26.7639 18.4316C27.6923 18.2011 28.5067 17.6405 29.057 16.853C29.6073 16.0655 29.8565 15.1042 29.7587 14.1462C29.6608 13.1882 29.2225 12.2982 28.5245 11.64C27.8265 10.9819 26.9158 10.6 25.9603 10.5647ZM26.2497 16.3597H25.9603C25.5554 16.3562 25.1633 16.2161 24.8467 15.9618C24.5302 15.7075 24.3073 15.3536 24.2139 14.9568C24.1796 14.8155 24.1616 14.6706 24.1604 14.5251C24.16 14.2258 24.2321 13.9308 24.3702 13.6657C24.5083 13.4006 24.7084 13.1734 24.9532 13.0036C25.2542 12.8124 25.6045 12.7148 25.9603 12.723C26.4125 12.7352 26.8437 12.9174 27.1692 13.2337C27.4946 13.5501 27.6908 13.9776 27.719 14.4323C27.7472 14.887 27.6055 15.3358 27.3217 15.6905C27.0378 16.0452 26.6325 16.28 26.1854 16.3489L26.2497 16.3597Z" fill="#61ABFF"/>
</g>
<defs>
<clipPath id="clip0_2256_15658">
<rect width="30" height="30" fill="white" transform="translate(9 9)"/>
</clipPath>
</defs>
</svg>
