<svg width="48" height="48" viewBox="0 0 48 48" fill="none" xmlns="http://www.w3.org/2000/svg">
<g clip-path="url(#clip0_2256_15684)">
<path d="M35.003 23.7874H34.4244C34.4244 23.6146 34.4244 23.4419 34.4244 23.2799C34.4244 23.118 34.4244 22.8912 34.4244 22.7077C35.4027 22.3682 36.2926 21.8109 37.028 21.0774C38.2933 19.7948 39.0036 18.0598 39.0036 16.2512C39.0036 14.4427 38.2933 12.7076 37.028 11.4251V11.4251C36.5054 10.8904 35.8968 10.4487 35.228 10.1187C35.026 10.0201 34.7985 9.98797 34.5774 10.0267C34.3563 10.0655 34.1529 10.1732 33.9958 10.3347C33.8396 10.4933 33.7362 10.697 33.6997 10.9174C33.6633 11.1379 33.6956 11.3643 33.7923 11.5655C34.2319 12.4431 34.3837 13.4387 34.2258 14.4089C34.0679 15.3791 33.6085 16.2737 32.9137 16.9638C32.7479 17.133 32.5687 17.2882 32.378 17.4281C31.5669 16.4131 30.554 15.5804 29.4044 14.9835C28.2548 14.3866 26.994 14.0388 25.703 13.9623C24.9243 12.9051 23.8849 12.0713 22.688 11.5433C21.4911 11.0154 20.1781 10.8117 18.879 10.9524C17.5799 11.0931 16.3399 11.5734 15.2817 12.3456C14.2234 13.1179 13.3838 14.1553 12.8458 15.3551C12.5255 15.9768 12.0247 16.4853 11.4101 16.8127C10.7596 17.2113 10.2094 17.756 9.80233 18.4043C9.3953 19.0526 9.1425 19.787 9.06366 20.55C8.98483 21.3131 9.08209 22.0841 9.34787 22.803C9.61365 23.5219 10.0408 24.1692 10.5958 24.6943C10.1434 25.0452 9.7718 25.4907 9.50652 26.0001C9.24124 26.5095 9.08861 27.0708 9.05909 27.6453C9.02956 28.2198 9.12387 28.794 9.33551 29.3283C9.54715 29.8626 9.8711 30.3443 10.2851 30.7404C10.5163 30.4624 10.7788 30.2124 11.0673 29.9955C11.3699 29.7625 11.6969 29.5634 12.0423 29.4017C11.7809 29.2372 11.5659 29.0079 11.4176 28.7356C11.2694 28.4634 11.1931 28.1574 11.1958 27.8469C11.1958 27.3544 11.39 26.882 11.7356 26.5338C12.0812 26.1855 12.5499 25.9899 13.0387 25.9899H19.1244C19.4086 25.9899 19.6811 25.8761 19.882 25.6737C20.083 25.4712 20.1958 25.1966 20.1958 24.9102C20.1958 24.6239 20.083 24.3492 19.882 24.1468C19.6811 23.9443 19.4086 23.8306 19.1244 23.8306H13.2744C12.7437 23.6835 12.267 23.3836 11.9029 22.9676C11.5389 22.5516 11.3031 22.0376 11.2247 21.4886C11.1462 20.9396 11.2284 20.3795 11.4611 19.8768C11.6939 19.3742 12.0672 18.9509 12.5351 18.6589C13.5152 18.1032 14.3039 17.2596 14.7958 16.2405C15.2426 15.2322 15.9855 14.3863 16.9243 13.8168C17.863 13.2473 18.9525 12.9815 20.0458 13.0554C21.1247 13.1309 22.1556 13.5336 23.003 14.2107C23.3378 14.4833 23.6431 14.7909 23.9137 15.1284L24.053 15.3011C24.053 15.3011 24.053 15.3767 24.053 15.4199L24.4494 16.0245V16.0893L25.9601 18.4322C25.9641 18.4645 25.9641 18.4971 25.9601 18.5294C26.11 18.7903 26.1631 19.0964 26.1101 19.3931V19.3931C26.114 19.4434 26.114 19.4939 26.1101 19.5443C26.0569 19.7339 25.9632 19.9095 25.8355 20.0587C25.7078 20.2079 25.5492 20.3271 25.3708 20.408L22.8744 21.5417C22.709 21.6224 22.5286 21.6674 22.3449 21.6738C22.1612 21.6802 21.9782 21.6477 21.8077 21.5786C21.6372 21.5094 21.4829 21.4051 21.3547 21.2723C21.2266 21.1395 21.1275 20.9812 21.0637 20.8075C21.0637 20.7535 21.0101 20.7211 20.9887 20.6671L20.228 17.9139L20.0244 17.1906C20.0037 17.1381 19.9786 17.0875 19.9494 17.0394C19.9224 16.9667 19.8864 16.8978 19.8423 16.8343C19.7144 16.6608 19.5378 16.53 19.3353 16.4588C19.1328 16.3876 18.9138 16.3792 18.7066 16.4348H18.6315C18.4178 16.5173 18.2359 16.6667 18.1125 16.861C17.9891 17.0553 17.9307 17.2843 17.9458 17.5145V17.5145C17.9354 17.5933 17.9354 17.6732 17.9458 17.752L18.0422 18.0975L18.4923 19.7062L18.9101 21.2177C18.9621 21.3964 19.0302 21.5699 19.1137 21.736C19.4552 22.497 20.0557 23.1098 20.8065 23.4635C21.2683 23.6851 21.7736 23.7995 22.2851 23.7982C22.7836 23.7965 23.2763 23.6898 23.7316 23.4851L26.228 22.3406C26.7609 22.1008 27.2252 21.7295 27.578 21.2609C27.8015 20.9639 27.9752 20.632 28.0922 20.2784C28.1146 20.2373 28.1326 20.1939 28.1458 20.1489C28.2358 19.8331 28.2791 19.5057 28.2744 19.1772C28.2777 18.7846 28.2161 18.3942 28.0922 18.0219C28.0071 17.7384 27.8807 17.4692 27.7172 17.223L27.1494 16.3484C28.6848 16.8227 30.0147 17.8087 30.9208 19.1448C31.2861 19.6746 31.5781 20.2522 31.7887 20.8615C31.9164 21.2121 32.0132 21.5734 32.078 21.9411C32.1412 22.2977 32.177 22.6587 32.1851 23.0208C32.1851 23.0856 32.1851 23.1504 32.1851 23.2259C32.1837 23.6871 32.1334 24.1467 32.0351 24.5971C32.0029 24.7558 32.0066 24.9198 32.0458 25.0768C32.0851 25.2339 32.1589 25.38 32.2618 25.5045C32.3646 25.6289 32.494 25.7284 32.6402 25.7956C32.7865 25.8628 32.9459 25.896 33.1066 25.8927H34.9065C35.3035 25.8929 35.6898 26.0222 36.0079 26.2614C36.326 26.5006 36.559 26.8369 36.6722 27.2203C36.7854 27.6037 36.7727 28.0136 36.636 28.3892C36.4993 28.7647 36.246 29.0857 35.9137 29.3045C36.2565 29.4711 36.5829 29.6699 36.8887 29.8983C37.1772 30.1152 37.4397 30.3652 37.6708 30.6433C38.2489 30.0901 38.6485 29.3745 38.8178 28.5895C38.9871 27.8045 38.9182 26.9863 38.6201 26.2412C38.3221 25.4962 37.8086 24.8586 37.1464 24.4114C36.4841 23.9642 35.7037 23.728 34.9065 23.7334L35.003 23.7874ZM33.503 19.2096C34.3217 18.6362 35.0033 17.8861 35.4982 17.0139C35.993 16.1417 36.2887 15.1693 36.3637 14.1675C36.8014 15.0448 36.9531 16.039 36.7973 17.0083C36.6414 17.9776 36.186 18.8726 35.4958 19.5658C35.0745 19.9863 34.5759 20.32 34.028 20.5483C33.8875 20.0856 33.712 19.6344 33.503 19.1988V19.2096Z" fill="#495057"/>
<path d="M37.7673 30.6866C37.5361 30.4085 37.2737 30.1585 36.9851 29.9416C36.6794 29.7132 36.3529 29.5143 36.0101 29.3477C35.3751 29.0664 34.6895 28.9194 33.9959 28.9159C33.1053 28.9132 32.2309 29.1559 31.4673 29.6177C30.6927 29.1525 29.8115 28.898 28.91 28.8791C28.0085 28.8601 27.1176 29.0774 26.3244 29.5097C25.5902 29.1173 24.7701 28.9166 23.939 28.9261C23.108 28.9355 22.2925 29.1547 21.5673 29.5637C21.5455 29.5742 21.5217 29.5797 21.4976 29.5797C21.4735 29.5797 21.4497 29.5742 21.428 29.5637C20.6864 29.1457 19.8509 28.9263 19.0012 28.9263C18.1515 28.9263 17.316 29.1457 16.5744 29.5637H16.4137C15.6797 29.1402 14.8488 28.9169 14.003 28.9159C13.3092 28.9182 12.6233 29.0652 11.9887 29.3477C11.6433 29.5094 11.3164 29.7086 11.0137 29.9416C10.7252 30.1585 10.4627 30.4085 10.2316 30.6866C9.72033 31.2666 9.35202 31.9599 9.15655 32.7103C8.96108 33.4607 8.94395 34.2469 9.10656 35.0052C9.36708 36.1604 10.014 37.19 10.9388 37.9213C11.8635 38.6527 13.0098 39.0411 14.1851 39.0216H33.8137C34.9891 39.0411 36.1353 38.6527 37.0601 37.9213C37.9848 37.19 38.6318 36.1604 38.8923 35.0052C39.0498 34.2468 39.0301 33.4618 38.8349 32.7123C38.6396 31.9628 38.2741 31.2693 37.7673 30.6866ZM14.003 36.8407C13.4126 36.8428 12.8361 36.6601 12.3532 36.3178C11.8703 35.9756 11.5048 35.4906 11.3072 34.93C11.1096 34.3694 11.0897 33.7607 11.2501 33.1882C11.4106 32.6156 11.7436 32.1074 12.203 31.7338C12.7078 31.3085 13.3449 31.0754 14.003 31.0752C14.4285 31.0739 14.8479 31.1777 15.2244 31.3775C15.435 31.4795 15.6328 31.6064 15.8137 31.7554H15.8994C16.0721 31.867 16.2729 31.9264 16.478 31.9264C16.6831 31.9264 16.8839 31.867 17.0566 31.7554L17.1637 31.7014C17.5398 31.368 18.0002 31.1461 18.4938 31.0603C18.9874 30.9745 19.495 31.0283 19.9601 31.2156C20.2636 31.3296 20.546 31.4938 20.7958 31.7014L20.8923 31.7554C21.0661 31.8693 21.2689 31.9298 21.4762 31.9298C21.6835 31.9298 21.8863 31.8693 22.0601 31.7554L22.1566 31.7014C22.665 31.2651 23.3102 31.0242 23.978 31.0212C24.6426 31.0239 25.2845 31.2651 25.7887 31.7014L25.8959 31.7554C26.0685 31.867 26.2693 31.9264 26.4744 31.9264C26.6796 31.9264 26.8803 31.867 27.053 31.7554L27.1601 31.7014C27.6643 31.2651 28.3062 31.0239 28.9708 31.0212C29.6386 31.0242 30.2839 31.2651 30.7923 31.7014L30.8887 31.7554C31.0625 31.8693 31.2653 31.9298 31.4726 31.9298C31.6799 31.9298 31.8828 31.8693 32.0566 31.7554L32.153 31.7014C32.6568 31.2694 33.2968 31.0321 33.9583 31.0321C34.6199 31.0321 35.2599 31.2694 35.7637 31.7014C36.2288 32.0713 36.5674 32.5786 36.7321 33.1522C36.8968 33.7257 36.8792 34.3368 36.682 34.8998C36.4847 35.4629 36.1176 35.9496 35.6321 36.2918C35.1465 36.634 34.5669 36.8146 33.9744 36.8083L14.003 36.8407Z" fill="#61ABFF"/>
</g>
<defs>
<clipPath id="clip0_2256_15684">
<rect width="30" height="29" fill="white" transform="translate(9 10)"/>
</clipPath>
</defs>
</svg>
