<svg width="48" height="48" viewBox="0 0 48 48" fill="none" xmlns="http://www.w3.org/2000/svg">
<g clip-path="url(#clip0_2256_15134)">
<path d="M17.1899 31.5699H16.6699V31.0699C16.6699 30.8047 16.5646 30.5504 16.377 30.3629C16.1895 30.1753 15.9351 30.0699 15.6699 30.0699C15.4047 30.0699 15.1504 30.1753 14.9628 30.3629C14.7753 30.5504 14.6699 30.8047 14.6699 31.0699V31.5699H14.1699C13.9047 31.5699 13.6504 31.6753 13.4628 31.8629C13.2753 32.0504 13.1699 32.3047 13.1699 32.5699C13.1699 32.8352 13.2753 33.0896 13.4628 33.2771C13.6504 33.4646 13.9047 33.5699 14.1699 33.5699H14.6699V34.08C14.6699 34.3452 14.7753 34.5996 14.9628 34.7871C15.1504 34.9746 15.4047 35.08 15.6699 35.08C15.9351 35.08 16.1895 34.9746 16.377 34.7871C16.5646 34.5996 16.6699 34.3452 16.6699 34.08V33.5699H17.1799C17.4451 33.5699 17.6995 33.4646 17.887 33.2771C18.0746 33.0896 18.1799 32.8352 18.1799 32.5699C18.1799 32.3047 18.0746 32.0504 17.887 31.8629C17.6995 31.6753 17.4451 31.5699 17.1799 31.5699H17.1899Z" fill="#61ABFF"/>
<path d="M19.2502 26.3V21.44C19.2453 21.2258 19.1717 21.0188 19.0403 20.8496C18.9089 20.6803 18.7265 20.5578 18.5202 20.5L17.3502 9.84999C17.323 9.60427 17.2058 9.37733 17.0211 9.21297C16.8364 9.04861 16.5974 8.95848 16.3502 8.95998H15.0002C14.753 8.95848 14.514 9.04861 14.3293 9.21297C14.1447 9.37733 14.0274 9.60427 14.0002 9.84999L12.8302 20.46C12.6239 20.5178 12.4416 20.6404 12.3102 20.8096C12.1788 20.9788 12.1051 21.1858 12.1002 21.4V26.26C11.4913 26.4491 10.9584 26.8274 10.579 27.3399C10.1996 27.8523 9.99341 28.4724 9.99023 29.11V35.96C9.99023 36.7556 10.3063 37.5187 10.8689 38.0813C11.4315 38.6439 12.1946 38.96 12.9902 38.96H18.3502C19.1459 38.96 19.9089 38.6439 20.4716 38.0813C21.0342 37.5187 21.3502 36.7556 21.3502 35.96V29.15C21.3477 28.5136 21.1429 27.8945 20.7654 27.3822C20.3879 26.8699 19.8573 26.4909 19.2502 26.3ZM14.1102 22.44H17.2502V26.15H14.1102V22.44ZM15.6802 13.01L16.5002 20.44H14.8602L15.6802 13.01ZM19.3602 36.01C19.3602 36.2752 19.2549 36.5296 19.0673 36.7171C18.8798 36.9047 18.6254 37.01 18.3602 37.01H13.0002C12.735 37.01 12.4806 36.9047 12.2931 36.7171C12.1056 36.5296 12.0002 36.2752 12.0002 36.01V29.15C12.0002 28.8848 12.1056 28.6304 12.2931 28.4429C12.4806 28.2554 12.735 28.15 13.0002 28.15H18.3602C18.6254 28.15 18.8798 28.2554 19.0673 28.4429C19.2549 28.6304 19.3602 28.8848 19.3602 29.15V36.01Z" fill="#495057"/>
<path d="M34.8594 18.53C34.9318 18.3982 34.9696 18.2503 34.9694 18.1V12.56C34.9694 12.2948 34.864 12.0404 34.6765 11.8528C34.4889 11.6653 34.2346 11.56 33.9694 11.56C33.5547 11.56 33.1569 11.396 32.8627 11.1037C32.5686 10.8114 32.402 10.4147 32.3994 10C32.3994 9.73478 32.294 9.48038 32.1065 9.29285C31.919 9.10531 31.6646 9 31.3994 9H29.1994C28.9342 9 28.6798 9.10531 28.4922 9.29285C28.3047 9.48038 28.1994 9.73478 28.1994 10C28.1994 10.4137 28.035 10.8105 27.7424 11.1031C27.4499 11.3956 27.0531 11.56 26.6393 11.56C26.3741 11.56 26.1198 11.6653 25.9323 11.8528C25.7447 12.0404 25.6393 12.2948 25.6393 12.56V18.1C25.6391 18.2503 25.677 18.3982 25.7494 18.53C23.5878 20.7293 22.3712 23.6862 22.3594 26.77V35.98C22.3594 36.7756 22.6754 37.5387 23.238 38.1013C23.8006 38.6639 24.5637 38.98 25.3594 38.98H35.2494C36.045 38.98 36.8081 38.6639 37.3707 38.1013C37.9333 37.5387 38.2494 36.7756 38.2494 35.98V26.77C38.2375 23.6862 37.021 20.7293 34.8594 18.53V18.53ZM27.6694 13.42C28.2427 13.2507 28.7645 12.9406 29.1873 12.5179C29.61 12.0952 29.9201 11.5734 30.0894 11H30.5793C30.7486 11.5734 31.0587 12.0952 31.4814 12.5179C31.9042 12.9406 32.426 13.2507 32.9994 13.42V17.1H27.6694V13.42ZM36.2794 35.98C36.2794 36.2452 36.174 36.4995 35.9865 36.6871C35.7989 36.8746 35.5446 36.98 35.2794 36.98H25.3893C25.1241 36.98 24.8698 36.8746 24.6823 36.6871C24.4947 36.4995 24.3893 36.2452 24.3893 35.98V26.77C24.3913 25.2948 24.7259 23.8391 25.3682 22.5112C26.0106 21.1832 26.9441 20.0172 28.0994 19.1H32.5694C33.7236 20.0182 34.6563 21.1844 35.2985 22.5121C35.9407 23.8399 36.276 25.2951 36.2794 26.77V35.98Z" fill="#495057"/>
</g>
<defs>
<clipPath id="clip0_2256_15134">
<rect width="28.25" height="30" fill="white" transform="translate(10 9)"/>
</clipPath>
</defs>
</svg>
