<svg width="48" height="48" viewBox="0 0 48 48" fill="none" xmlns="http://www.w3.org/2000/svg">
<g clip-path="url(#clip0_2256_15159)">
<path d="M27.2353 16.9585L25.5577 14.7597V10.877C25.5548 10.3782 25.3516 9.90082 24.9923 9.54912C24.6331 9.19742 24.1471 8.99999 23.6405 9H13.488C12.9833 9.00282 12.5001 9.20145 12.1432 9.55285C11.7863 9.90425 11.5846 10.3801 11.5817 10.877V14.7597L9.90412 16.9585C9.32155 17.7271 9.00467 18.6595 9 19.6185V36.2328C9.00287 36.9573 9.29645 37.6513 9.81676 38.1637C10.3371 38.676 11.0419 38.965 11.7778 38.9678H25.3508C26.0875 38.9678 26.794 38.6797 27.3149 38.1667C27.8359 37.6538 28.1285 36.9582 28.1285 36.2328V19.6185C28.1278 18.6606 27.8147 17.7281 27.2353 16.9585V16.9585ZM26.0152 36.2649C26.0152 36.4384 25.9453 36.6049 25.8206 36.7276C25.696 36.8503 25.527 36.9192 25.3508 36.9192H11.7778C11.6015 36.9192 11.4325 36.8503 11.3079 36.7276C11.1833 36.6049 11.1133 36.4384 11.1133 36.2649V19.6185C11.1156 19.1117 11.2837 18.619 11.5926 18.2135L13.1612 16.1434H20.7865C20.9481 16.1866 21.1175 16.1926 21.2818 16.1609C21.4461 16.1292 21.6008 16.0605 21.7338 15.9604C21.8668 15.8603 21.9745 15.7314 22.0487 15.5836C22.1229 15.4358 22.1615 15.2732 22.1615 15.1083C22.1615 14.9435 22.1229 14.7808 22.0487 14.6331C21.9745 14.4853 21.8668 14.3564 21.7338 14.2562C21.6008 14.1561 21.4461 14.0875 21.2818 14.0558C21.1175 14.0241 20.9481 14.03 20.7865 14.0733H13.7386V11.0808H23.488V15.103C23.488 15.103 23.488 15.1888 23.488 15.2209C23.4829 15.2924 23.4829 15.3641 23.488 15.4355C23.5104 15.4991 23.5397 15.5602 23.5752 15.6178L23.6296 15.7358L25.5142 18.2135C25.8281 18.6164 25.9967 19.1108 25.9935 19.6185V36.2328L26.0152 36.2649Z" fill="#495057"/>
<path d="M20.1763 26.601H18.4116V24.8956C18.4116 24.6111 18.2968 24.3383 18.0925 24.1372C17.8883 23.936 17.6112 23.823 17.3223 23.823C17.0333 23.823 16.7563 23.936 16.552 24.1372C16.3477 24.3383 16.2329 24.6111 16.2329 24.8956V26.6331H14.4682C14.1793 26.6331 13.9023 26.7462 13.698 26.9473C13.4937 27.1485 13.3789 27.4213 13.3789 27.7057C13.3789 27.9902 13.4937 28.263 13.698 28.4641C13.9023 28.6653 14.1793 28.7783 14.4682 28.7783H16.2329V30.5159C16.2329 30.8003 16.3477 31.0731 16.552 31.2743C16.7563 31.4754 17.0333 31.5885 17.3223 31.5885C17.6112 31.5885 17.8883 31.4754 18.0925 31.2743C18.2968 31.0731 18.4116 30.8003 18.4116 30.5159V28.7783H20.1763C20.4652 28.7783 20.7423 28.6653 20.9466 28.4641C21.1509 28.263 21.2656 27.9902 21.2656 27.7057C21.2656 27.4213 21.1509 27.1485 20.9466 26.9473C20.7423 26.7462 20.4652 26.6331 20.1763 26.6331V26.601Z" fill="#61ABFF"/>
<path d="M23.1621 21.3131C23.1621 21.5975 23.2769 21.8704 23.4811 22.0715C23.6854 22.2727 23.9625 22.3856 24.2514 22.3856H26.0161V20.2405H24.2514C23.9625 20.2405 23.6854 20.3535 23.4811 20.5546C23.2769 20.7558 23.1621 21.0286 23.1621 21.3131Z" fill="#61ABFF"/>
<path d="M23.1621 24.4881C23.1621 24.7726 23.2769 25.0454 23.4811 25.2465C23.6854 25.4477 23.9625 25.5607 24.2514 25.5607H26.0161V23.4155H24.2514C23.9625 23.4155 23.6854 23.5285 23.4811 23.7297C23.2769 23.9308 23.1621 24.2036 23.1621 24.4881Z" fill="#61ABFF"/>
<path d="M23.1621 27.6737C23.1621 27.9581 23.2769 28.2309 23.4811 28.4321C23.6854 28.6332 23.9625 28.7462 24.2514 28.7462H26.0161V26.6011H24.2514C23.9625 26.6011 23.6854 26.714 23.4811 26.9152C23.2769 27.1163 23.1621 27.3892 23.1621 27.6737Z" fill="#61ABFF"/>
<path d="M23.1621 30.8592C23.1621 31.1437 23.2769 31.4165 23.4811 31.6176C23.6854 31.8188 23.9625 31.9318 24.2514 31.9318H26.0161V29.7866H24.2514C23.9625 29.7866 23.6854 29.8996 23.4811 30.1008C23.2769 30.3019 23.1621 30.5747 23.1621 30.8592Z" fill="#61ABFF"/>
<path d="M23.1621 34.0447C23.1621 34.3292 23.2769 34.602 23.4811 34.8032C23.6854 35.0043 23.9625 35.1173 24.2514 35.1173H26.0161V32.9722H24.2514C23.9625 32.9722 23.6854 33.0851 23.4811 33.2863C23.2769 33.4874 23.1621 33.7603 23.1621 34.0447Z" fill="#61ABFF"/>
<path d="M34.3381 24.563C33.1006 24.5658 31.9147 25.0518 31.0407 25.9144C30.1667 26.7771 29.6758 27.9458 29.6758 29.1643V34.3985C29.6758 35.616 30.167 36.7837 31.0414 37.6446C31.9157 38.5055 33.1016 38.9892 34.3381 38.9892C35.5746 38.9892 36.7605 38.5055 37.6349 37.6446C38.5092 36.7837 39.0004 35.616 39.0004 34.3985V29.1858C39.0033 28.5806 38.8849 27.9808 38.652 27.4208C38.4191 26.8608 38.0763 26.3514 37.6432 25.922C37.2102 25.4926 36.6953 25.1516 36.1282 24.9184C35.561 24.6852 34.9527 24.5644 34.3381 24.563ZM31.8544 29.1858C31.8544 28.5372 32.1161 27.9152 32.5819 27.4566C33.0477 26.998 33.6794 26.7403 34.3381 26.7403C34.9968 26.7403 35.6285 26.998 36.0943 27.4566C36.5601 27.9152 36.8218 28.5372 36.8218 29.1858V30.7303H31.8544V29.1858ZM36.8218 34.42C36.8218 35.0686 36.5601 35.6906 36.0943 36.1492C35.6285 36.6078 34.9968 36.8654 34.3381 36.8654C33.6794 36.8654 33.0477 36.6078 32.5819 36.1492C32.1161 35.6906 31.8544 35.0686 31.8544 34.42V32.8755H36.8218V34.42Z" fill="#61ABFF"/>
</g>
<defs>
<clipPath id="clip0_2256_15159">
<rect width="30" height="30" fill="white" transform="translate(9 9)"/>
</clipPath>
</defs>
</svg>
