<svg width="48" height="48" viewBox="0 0 48 48" fill="none" xmlns="http://www.w3.org/2000/svg">
<path d="M28.7093 11.4938C27.0723 10.7749 25.308 10.3909 23.5202 10.3643C21.7325 10.3377 19.9576 10.6691 18.2999 11.339C16.6422 12.0089 15.1353 13.0037 13.868 14.2649C12.6007 15.5261 11.5986 17.0281 10.9207 18.6825C10.2427 20.3369 9.90269 22.1102 9.92059 23.8981C9.9385 25.6859 10.314 27.4521 11.0249 29.0926C11.7359 30.7331 12.7679 32.2147 14.0602 33.4502C15.3525 34.6857 16.879 35.6502 18.5498 36.2867V34.0291C15.9433 32.7831 13.9118 30.5877 12.8715 27.8925C11.8313 25.1973 11.8609 22.2063 12.9543 19.5322C14.0478 16.8582 16.1223 14.7034 18.753 13.5093C21.3837 12.3152 24.3713 12.1721 27.1041 13.1094L27.9119 12.3016L28.7093 11.4938Z" fill="#61ABFF"/>
<path d="M35.2653 17.4487L34.499 18.2255L33.7222 18.9711C34.4111 20.3946 34.7931 21.947 34.8436 23.5276C34.8941 25.1082 34.6119 26.6818 34.0153 28.1464C33.4188 29.611 32.5211 30.9339 31.3805 32.0294C30.24 33.1249 28.882 33.9685 27.3945 34.5055V36.701C29.2965 36.1233 31.046 35.1292 32.516 33.7912C33.986 32.4531 35.1396 30.8046 35.8932 28.9652C36.6469 27.1258 36.9815 25.1417 36.8729 23.1569C36.7643 21.1721 36.2151 19.2363 35.2653 17.4901V17.4487Z" fill="#61ABFF"/>
<path d="M36.1659 15.0977C36.0697 15.0007 35.9551 14.9237 35.8289 14.8711C35.7027 14.8185 35.5674 14.7914 35.4306 14.7914C35.2939 14.7914 35.1586 14.8185 35.0324 14.8711C34.9062 14.9237 34.7916 15.0007 34.6954 15.0977V15.0977L34.105 15.6881L33.3697 16.4233L32.6241 17.169L31.7852 18.0079C31.4331 18.3567 31.1789 18.7919 31.048 19.27C30.9171 19.748 30.9142 20.2521 31.0396 20.7316C31.2046 21.3444 31.1655 21.9943 30.9281 22.5829C30.6908 23.1715 30.2682 23.6668 29.7243 23.9938C29.2821 24.2553 28.7778 24.3933 28.2641 24.3933C27.7504 24.3933 27.2461 24.2553 26.8039 23.9938C26.4282 23.7757 26.106 23.4767 25.8605 23.1184C25.6151 22.7601 25.4526 22.3515 25.385 21.9225C25.3499 21.7117 25.2504 21.517 25.1003 21.3649C24.9501 21.2129 24.7565 21.111 24.5462 21.0733C24.1172 21.0057 23.7086 20.8433 23.3503 20.5978C22.992 20.3524 22.6929 20.0301 22.4749 19.6545C22.2131 19.2162 22.0748 18.7152 22.0748 18.2046C22.0748 17.6941 22.2131 17.193 22.4749 16.7547C22.7915 16.2098 23.2775 15.7833 23.859 15.5402C24.4405 15.2972 25.0855 15.2509 25.6957 15.4084C26.1685 15.5229 26.6628 15.5135 27.1309 15.3811C27.599 15.2486 28.025 14.9977 28.3677 14.6524L29.0615 13.9585L29.8175 13.2025L30.5736 12.4465L31.3192 11.7009C31.5121 11.5068 31.6204 11.2444 31.6204 10.9708C31.6204 10.6972 31.5121 10.4347 31.3192 10.2406C31.2229 10.1436 31.1084 10.0665 30.9822 10.014C30.856 9.96139 30.7206 9.93433 30.5839 9.93433C30.4472 9.93433 30.3118 9.96139 30.1856 10.014C30.0594 10.0665 29.9449 10.1436 29.8486 10.2406L28.6576 11.4316L27.8602 12.2394L27.0524 13.0472L26.9074 13.1922C26.8167 13.2829 26.7047 13.3493 26.5817 13.3855C26.4587 13.4217 26.3285 13.4265 26.2032 13.3993C25.1634 13.1382 24.0672 13.2188 23.0768 13.6291C22.0864 14.0395 21.2544 14.7578 20.704 15.6777C20.3247 16.3189 20.0947 17.0374 20.031 17.7797C19.9674 18.522 20.0718 19.269 20.3364 19.9655C20.6011 20.6619 21.0192 21.2898 21.5597 21.8025C22.1002 22.3153 22.7493 22.6996 23.4588 22.9271C23.5835 23.2905 23.7503 23.6381 23.9559 23.9627C23.5974 24.0514 23.2501 24.1799 22.9202 24.3459C21.7676 23.7723 20.4373 23.6682 19.2095 24.0557C17.9817 24.4431 16.9521 25.2918 16.3374 26.4231C15.7228 27.5544 15.571 28.8801 15.9142 30.1211C16.2573 31.362 17.0685 32.4214 18.1771 33.0763C18.2903 33.1453 18.3834 33.2428 18.447 33.3591C18.5106 33.4755 18.5425 33.6065 18.5395 33.7391V37.8816C18.5395 38.1563 18.6486 38.4197 18.8429 38.6139C19.0371 38.8081 19.3005 38.9172 19.5752 38.9172C19.8498 38.9172 20.1132 38.8081 20.3075 38.6139C20.5017 38.4197 20.6108 38.1563 20.6108 37.8816V33.7391C20.5969 33.2633 20.4623 32.7988 20.2195 32.3894C19.9768 31.9799 19.6339 31.639 19.223 31.3985C18.6759 31.0807 18.2468 30.5938 18.0003 30.0111C17.7537 29.4284 17.7031 28.7814 17.856 28.1674C17.9833 27.6679 18.2429 27.2119 18.6073 26.8474C18.9718 26.483 19.4278 26.2234 19.9273 26.0961C20.3414 25.9832 20.7755 25.9636 21.1982 26.0389C21.6209 26.1141 22.0216 26.2822 22.3714 26.5311C22.5467 26.656 22.7567 26.7231 22.972 26.7231C23.1873 26.7231 23.3973 26.656 23.5727 26.5311C23.9209 26.283 24.3198 26.1154 24.7407 26.0402C25.1615 25.965 25.5938 25.9841 26.0064 26.0961C26.5074 26.2204 26.965 26.4789 27.33 26.8438C27.6949 27.2088 27.9535 27.6664 28.0777 28.1674C28.2296 28.7847 28.1751 29.4349 27.9227 30.0184C27.6702 30.6019 27.2336 31.0866 26.6796 31.3985C26.2633 31.6509 25.9196 32.0067 25.6818 32.4314C25.4441 32.8561 25.3204 33.3352 25.3229 33.8219V37.9645C25.3229 38.2391 25.432 38.5025 25.6262 38.6968C25.8204 38.891 26.0839 39.0001 26.3585 39.0001C26.6332 39.0001 26.8966 38.891 27.0908 38.6968C27.2851 38.5025 27.3942 38.2391 27.3942 37.9645V33.8219C27.3916 33.6946 27.4216 33.5688 27.4814 33.4564C27.5413 33.344 27.6289 33.2487 27.7359 33.1798C28.8721 32.5033 29.6935 31.4036 30.0197 30.1222C30.3459 28.8407 30.1503 27.4821 29.4758 26.3447C29.9479 26.2303 30.3989 26.0416 30.8117 25.7855C31.7371 25.2266 32.4551 24.3814 32.8568 23.3779C33.2586 22.3743 33.3224 21.2671 33.0383 20.2241C33.0051 20.0974 33.0068 19.9641 33.0432 19.8382C33.0797 19.7124 33.1496 19.5988 33.2455 19.5095L33.7219 18.971L34.4986 18.1943L35.265 17.4175L36.1659 16.5269C36.3496 16.3343 36.452 16.0784 36.452 15.8123C36.452 15.5462 36.3496 15.2903 36.1659 15.0977V15.0977Z" fill="#495057"/>
</svg>
