<svg width="48" height="48" viewBox="0 0 48 48" fill="none" xmlns="http://www.w3.org/2000/svg">
<g clip-path="url(#clip0_2256_15149)">
<path d="M20.315 25.6393V22.65C20.315 22.3659 20.2037 22.0934 20.0057 21.8924C19.8076 21.6915 19.539 21.5786 19.2589 21.5786H11.8664C11.5863 21.5786 11.3177 21.6915 11.1196 21.8924C10.9215 22.0934 10.8103 22.3659 10.8103 22.65V25.6393L9.7542 27.1179C9.6171 27.3033 9.54297 27.5289 9.54297 27.7607V35.7858C9.54297 36.6382 9.87676 37.4558 10.4709 38.0586C11.0651 38.6614 11.8709 39.0001 12.7112 39.0001H18.4986C19.3388 39.0001 20.1447 38.6614 20.7388 38.0586C21.333 37.4558 21.6668 36.6382 21.6668 35.7858V27.7607C21.6668 27.5289 21.5927 27.3033 21.4556 27.1179L20.315 25.6393ZM11.6129 35.7858V28.125L12.3944 27.0536H15.9956C16.2757 27.0536 16.5443 26.9407 16.7424 26.7398C16.9404 26.5388 17.0517 26.2663 17.0517 25.9822C17.0517 25.698 16.9404 25.4255 16.7424 25.2246C16.5443 25.0236 16.2757 24.9107 15.9956 24.9107H12.9224V23.7107H18.2029V25.9822V26.1C18.1969 26.1713 18.1969 26.243 18.2029 26.3143C18.2236 26.3869 18.2557 26.4556 18.2979 26.5179C18.2979 26.5179 18.2979 26.5929 18.2979 26.625L19.354 28.1036V35.775C19.354 36.0592 19.2427 36.3317 19.0446 36.5326C18.8466 36.7336 18.578 36.8465 18.2979 36.8465H12.5106C12.2605 36.808 12.0324 36.6798 11.8677 36.4851C11.703 36.2904 11.6126 36.0423 11.6129 35.7858V35.7858Z" fill="#495057"/>
<path d="M34.7294 17.6142V13.9178C34.73 13.6462 34.629 13.3844 34.4466 13.1855C34.2643 12.9866 34.0143 12.8654 33.7472 12.8464V10.0499C33.7472 9.76578 33.6359 9.49328 33.4379 9.29235C33.2398 9.09141 32.9712 8.97852 32.6911 8.97852H28.9526C28.6725 8.97852 28.4039 9.09141 28.2059 9.29235C28.0078 9.49328 27.8965 9.76578 27.8965 10.0499V12.8464C27.6276 12.8628 27.3749 12.9828 27.1904 13.182C27.0058 13.3812 26.9033 13.6444 26.9038 13.9178V17.6142C25.7547 18.2985 24.8015 19.2752 24.1384 20.4478C23.4753 21.6203 23.1253 22.9481 23.123 24.2999V35.7857C23.123 36.6382 23.4568 37.4557 24.051 38.0585C24.6451 38.6613 25.451 39 26.2913 39H35.2997C36.1399 39 36.9458 38.6613 37.5399 38.0585C38.1341 37.4557 38.4679 36.6382 38.4679 35.7857V24.2999C38.4679 22.9527 38.1234 21.6284 37.4681 20.4566C36.8129 19.2848 35.8692 18.3055 34.7294 17.6142V17.6142ZM36.398 35.8285C36.398 36.1127 36.2867 36.3852 36.0887 36.5861C35.8906 36.787 35.622 36.8999 35.3419 36.8999H26.3335C26.0534 36.8999 25.7848 36.787 25.5868 36.5861C25.3887 36.3852 25.2774 36.1127 25.2774 35.8285V24.2999C25.3399 22.8464 25.953 21.4734 26.9889 20.4672C28.0248 19.4611 29.4036 18.8994 30.8377 18.8994C32.2718 18.8994 33.6506 19.4611 34.6865 20.4672C35.7224 21.4734 36.3355 22.8464 36.398 24.2999V35.8285ZM30.0615 11.1857H31.6562V12.8893H30.0087L30.0615 11.1857ZM29.0688 15.0321H32.6383V16.7892C31.4668 16.4894 30.2403 16.4894 29.0688 16.7892V15.0321Z" fill="#495057"/>
<path d="M33.5997 27.7286H31.8889V25.9822C31.8889 25.698 31.7776 25.4255 31.5796 25.2246C31.3815 25.0237 31.1129 24.9108 30.8328 24.9108C30.5527 24.9108 30.2841 25.0237 30.086 25.2246C29.888 25.4255 29.7767 25.698 29.7767 25.9822V27.7179H28.0658C27.7858 27.7179 27.5171 27.8308 27.3191 28.0317C27.121 28.2327 27.0098 28.5052 27.0098 28.7893C27.0098 29.0735 27.121 29.346 27.3191 29.5469C27.5171 29.7479 27.7858 29.8608 28.0658 29.8608H29.7767V31.5965C29.7767 31.8806 29.888 32.1531 30.086 32.3541C30.2841 32.555 30.5527 32.6679 30.8328 32.6679C31.1129 32.6679 31.3815 32.555 31.5796 32.3541C31.7776 32.1531 31.8889 31.8806 31.8889 31.5965V29.8608H33.5997C33.8798 29.8608 34.1484 29.7479 34.3465 29.5469C34.5445 29.346 34.6558 29.0735 34.6558 28.7893C34.6558 28.5052 34.5445 28.2327 34.3465 28.0317C34.1484 27.8308 33.8798 27.7179 33.5997 27.7179V27.7286Z" fill="#61ABFF"/>
</g>
<defs>
<clipPath id="clip0_2256_15149">
<rect width="29" height="30" fill="white" transform="translate(9.5 9)"/>
</clipPath>
</defs>
</svg>
