<svg width="48" height="48" viewBox="0 0 48 48" fill="none" xmlns="http://www.w3.org/2000/svg">
<g clip-path="url(#clip0_2256_15177)">
<path d="M19.9902 17.96H18.9902V16.96C18.9902 16.6947 18.8849 16.4404 18.6974 16.2529C18.5098 16.0653 18.2555 15.96 17.9902 15.96C17.8669 15.9609 17.7449 15.9846 17.6302 16.03C17.4423 16.1025 17.2806 16.2301 17.1664 16.396C17.0522 16.5619 16.9908 16.7585 16.9902 16.96V17.96H15.9902C15.725 17.96 15.4707 18.0653 15.2831 18.2529C15.0956 18.4404 14.9902 18.6947 14.9902 18.96C14.9902 19.2252 15.0956 19.4795 15.2831 19.6671C15.4707 19.8546 15.725 19.96 15.9902 19.96H16.9902V20.96C16.9902 21.2252 17.0956 21.4795 17.2831 21.6671C17.4707 21.8546 17.725 21.96 17.9902 21.96C18.2555 21.96 18.5098 21.8546 18.6974 21.6671C18.8849 21.4795 18.9902 21.2252 18.9902 20.96V19.96H19.9902C20.1829 19.9565 20.3704 19.8975 20.5302 19.79C20.7069 19.6713 20.8411 19.4994 20.9134 19.2992C20.9856 19.099 20.9921 18.881 20.9318 18.6768C20.8716 18.4727 20.7478 18.2931 20.5784 18.1642C20.4091 18.0353 20.203 17.9637 19.9902 17.96Z" fill="#61ABFF"/>
<path d="M24.0293 18.48H28.0293C28.2945 18.48 28.5489 18.3746 28.7364 18.1871C28.9239 17.9995 29.0293 17.7452 29.0293 17.48C29.0293 17.2148 28.9239 16.9604 28.7364 16.7729C28.5489 16.5854 28.2945 16.48 28.0293 16.48H24.0293C23.7641 16.48 23.5097 16.5854 23.3222 16.7729C23.1346 16.9604 23.0293 17.2148 23.0293 17.48C23.0293 17.7452 23.1346 17.9995 23.3222 18.1871C23.5097 18.3746 23.7641 18.48 24.0293 18.48Z" fill="#61ABFF"/>
<path d="M28.0391 19.45H24.0391C23.7738 19.45 23.5195 19.5553 23.332 19.7429C23.1444 19.9304 23.0391 20.1847 23.0391 20.45C23.0391 20.7152 23.1444 20.9696 23.332 21.1571C23.5195 21.3446 23.7738 21.45 24.0391 21.45H28.0391C28.3043 21.45 28.5586 21.3446 28.7462 21.1571C28.9337 20.9696 29.0391 20.7152 29.0391 20.45C29.0391 20.1847 28.9337 19.9304 28.7462 19.7429C28.5586 19.5553 28.3043 19.45 28.0391 19.45Z" fill="#61ABFF"/>
<path d="M32.21 10H17.89C17.1349 10.0026 16.4116 10.3037 15.8777 10.8376C15.3437 11.3716 15.0426 12.0949 15.04 12.85V12.97H14.86C14.1015 12.97 13.374 13.2713 12.8377 13.8077C12.3013 14.344 12 15.0714 12 15.83V35.14C12 35.8985 12.3013 36.6259 12.8377 37.1623C13.374 37.6986 14.1015 38 14.86 38H29.21C29.9668 37.9974 30.6917 37.6948 31.2259 37.1588C31.7601 36.6227 32.06 35.8967 32.06 35.14V35.03H32.21C32.9677 35.0273 33.6936 34.7252 34.2294 34.1894C34.7652 33.6536 35.0673 32.9277 35.07 32.17V12.85C35.0673 12.0932 34.7649 11.3683 34.2288 10.8341C33.6927 10.2999 32.9668 10 32.21 10V10ZM33.07 32.17C33.0674 32.3973 32.9759 32.6145 32.8152 32.7752C32.6545 32.9359 32.4373 33.0274 32.21 33.03H32.03V15.85C32.03 15.0932 31.7301 14.3672 31.1959 13.8312C30.6617 13.2951 29.9368 12.9926 29.18 12.99H17.04V12.85C17.04 12.6245 17.1295 12.4084 17.2889 12.249C17.4483 12.0896 17.6646 12 17.89 12H32.21C32.4364 12 32.6536 12.0892 32.8146 12.2483C32.9756 12.4074 33.0673 12.6236 33.07 12.85V32.17ZM30.07 35.17C30.07 35.3963 29.9808 35.6136 29.8217 35.7746C29.6625 35.9356 29.4464 36.0273 29.22 36.03H14.86C14.747 36.03 14.6352 36.0078 14.5309 35.9645C14.4265 35.9213 14.3318 35.8579 14.2519 35.7781C14.172 35.6982 14.1087 35.6034 14.0655 35.4991C14.0222 35.3947 14 35.2829 14 35.17V15.85C13.9987 15.7367 14.02 15.6242 14.0627 15.5193C14.1055 15.4143 14.1688 15.319 14.2489 15.2389C14.329 15.1588 14.4244 15.0955 14.5293 15.0527C14.6342 15.01 14.7467 14.9886 14.86 14.99H29.21C29.3225 14.99 29.4338 15.0123 29.5376 15.0556C29.6414 15.0989 29.7355 15.1624 29.8146 15.2424C29.8937 15.3224 29.956 15.4173 29.9982 15.5216C30.0403 15.6259 30.0613 15.7375 30.06 15.85V35.16L30.07 35.17Z" fill="#495057"/>
<path d="M27.9598 32.45H16.0098C15.7445 32.45 15.4902 32.5553 15.3027 32.7429C15.1151 32.9304 15.0098 33.1847 15.0098 33.45C15.0098 33.7152 15.1151 33.9696 15.3027 34.1571C15.4902 34.3446 15.7445 34.45 16.0098 34.45H27.9598C28.225 34.45 28.4793 34.3446 28.6669 34.1571C28.8544 33.9696 28.9598 33.7152 28.9598 33.45C28.9598 33.1847 28.8544 32.9304 28.6669 32.7429C28.4793 32.5553 28.225 32.45 27.9598 32.45Z" fill="#495057"/>
<path d="M27.9598 29.23H16.0098C15.7445 29.23 15.4902 29.3354 15.3027 29.5229C15.1151 29.7104 15.0098 29.9648 15.0098 30.23C15.0098 30.4952 15.1151 30.7495 15.3027 30.9371C15.4902 31.1246 15.7445 31.23 16.0098 31.23H27.9598C28.225 31.23 28.4793 31.1246 28.6669 30.9371C28.8544 30.7495 28.9598 30.4952 28.9598 30.23C28.9598 29.9648 28.8544 29.7104 28.6669 29.5229C28.4793 29.3354 28.225 29.23 27.9598 29.23Z" fill="#495057"/>
<path d="M27.9598 26.01H16.0098C15.7445 26.01 15.4902 26.1154 15.3027 26.3029C15.1151 26.4905 15.0098 26.7448 15.0098 27.01C15.0098 27.2752 15.1151 27.5296 15.3027 27.7172C15.4902 27.9047 15.7445 28.01 16.0098 28.01H27.9598C28.225 28.01 28.4793 27.9047 28.6669 27.7172C28.8544 27.5296 28.9598 27.2752 28.9598 27.01C28.9598 26.7448 28.8544 26.4905 28.6669 26.3029C28.4793 26.1154 28.225 26.01 27.9598 26.01Z" fill="#495057"/>
</g>
<defs>
<clipPath id="clip0_2256_15177">
<rect width="23.06" height="28" fill="white" transform="translate(12 10)"/>
</clipPath>
</defs>
</svg>
