<svg width="48" height="48" viewBox="0 0 48 48" fill="none" xmlns="http://www.w3.org/2000/svg">
<g clip-path="url(#clip0_2256_15536)">
<path d="M38.4648 17.457C38.4124 17.294 38.3231 17.1459 38.2039 17.0247C38.0848 16.9034 37.9392 16.8125 37.779 16.7592C37.6203 16.7055 37.4513 16.6903 37.2857 16.7149C37.1201 16.7395 36.9625 16.8032 36.8255 16.901C36.1995 17.3538 35.4507 17.5977 34.6826 17.5987C33.8013 17.5975 32.9484 17.2813 32.2728 16.7055C31.5972 16.1296 31.1419 15.3306 30.9862 14.448C30.9626 14.3034 30.9105 14.1652 30.8332 14.0416C30.7559 13.918 30.6549 13.8115 30.5362 13.7285C30.4166 13.646 30.2819 13.589 30.1401 13.5609C29.9983 13.5328 29.8524 13.5342 29.7112 13.5649C29.5511 13.5858 29.3891 13.5858 29.229 13.5649C28.6319 13.5681 28.057 13.334 27.6268 12.9126C27.1966 12.4911 26.945 11.9155 26.9255 11.3081C26.9314 11.2501 26.9314 11.1917 26.9255 11.1337C26.9322 10.9663 26.9009 10.7994 26.834 10.6463C26.7671 10.4931 26.6664 10.3578 26.5398 10.2506C26.4138 10.1431 26.2651 10.0664 26.1053 10.0267C25.9455 9.98701 25.7789 9.98529 25.6183 10.0217C23.8538 10.4301 22.2172 11.28 20.8571 12.4946C19.4969 13.7092 18.4561 15.25 17.829 16.9773C15.958 17.3459 14.2143 18.2064 12.7714 19.4734C11.3285 20.7403 10.2367 22.3695 9.60452 24.199C8.97232 26.0284 8.82177 27.9944 9.16783 29.9014C9.51389 31.8085 10.3445 33.5901 11.5771 35.0692C12.8097 36.5482 14.4013 37.6733 16.1937 38.3323C17.9861 38.9914 19.9168 39.1616 21.7939 38.8259C23.6709 38.4903 25.4289 37.6605 26.8931 36.4191C28.3573 35.1777 29.4766 33.5679 30.1398 31.7498C32.6296 31.2611 34.8746 29.9058 36.4895 27.9165C38.1044 25.9271 38.9884 23.4278 38.9898 20.8476C38.986 19.6967 38.809 18.5533 38.4648 17.457V17.457ZM30.7398 29.4495C30.3878 29.5601 30.0301 29.6511 29.6683 29.722C29.3144 29.7874 28.9564 29.8275 28.5969 29.842H28.179C27.1977 29.8377 26.2238 29.6683 25.2969 29.3405C24.8537 29.188 24.4236 28.9983 24.0112 28.7736C22.7594 28.0836 21.6904 27.0955 20.8956 25.8937C20.1008 24.692 19.6037 23.3122 19.4469 21.8724C19.4306 21.5528 19.4306 21.2326 19.4469 20.913C19.4528 20.282 19.5247 19.6534 19.6612 19.0378C19.7345 18.6674 19.8348 18.303 19.9612 17.9476C20.085 17.5752 20.2317 17.2111 20.4005 16.8574C21.3879 14.8884 23.0611 13.3647 25.0933 12.5837C25.3569 13.5085 25.9028 14.3239 26.6521 14.9119C27.4015 15.4999 28.3152 15.83 29.2612 15.8544C29.5229 16.603 29.9286 17.291 30.4544 17.8784C30.9802 18.4657 31.6156 18.9407 32.3237 19.2756C33.0318 19.6105 33.7983 19.7985 34.5786 19.8288C35.3588 19.8591 36.1372 19.7311 36.8683 19.4521C36.9539 19.9489 36.9969 20.4523 36.9969 20.9567C36.9627 22.8513 36.3384 24.686 35.2139 26.1966C34.0895 27.7071 32.5229 28.8155 30.7398 29.3622V29.4495ZM11.1433 27.9668C11.1456 26.0712 11.7393 24.2253 12.8388 22.6951C13.9382 21.1648 15.4868 20.0294 17.2612 19.4521C17.1967 19.9436 17.1645 20.439 17.1648 20.9348V21.0984C17.1648 21.4618 17.1862 21.8252 17.229 22.1886C17.229 22.5593 17.3255 22.9082 17.4005 23.2788C17.4755 23.6495 17.5612 23.9657 17.6683 24.3037C17.7755 24.6416 17.904 24.9904 18.0433 25.3284C18.1832 25.6638 18.3405 25.9914 18.5148 26.3096C19.2555 27.6664 20.2663 28.8509 21.4826 29.7875C21.7626 30.0095 22.056 30.2134 22.3612 30.398C22.7049 30.6185 23.0629 30.8152 23.4326 30.9867L24.0326 31.2592C24.3998 31.4092 24.7754 31.5367 25.1576 31.6409C25.5005 31.739 25.8433 31.8262 26.229 31.8916C26.743 31.979 27.2619 32.0336 27.7826 32.0551C26.8851 33.8388 25.4241 35.2634 23.6345 36.0998C21.8449 36.9362 19.8309 37.1357 17.9163 36.6663C16.0018 36.1969 14.2981 35.0858 13.0793 33.5118C11.8605 31.9378 11.1975 29.9924 11.1969 27.9886L11.1433 27.9668Z" fill="#495057"/>
<path d="M15.075 27.1383C14.5453 27.1383 14.0274 27.2982 13.5869 27.5976C13.1464 27.8971 12.8031 28.3228 12.6004 28.8208C12.3976 29.3189 12.3446 29.8669 12.448 30.3956C12.5513 30.9243 12.8064 31.4099 13.181 31.7911C13.5556 32.1723 14.0329 32.4319 14.5525 32.5371C15.0721 32.6422 15.6106 32.5882 16.1001 32.382C16.5895 32.1757 17.0079 31.8263 17.3022 31.3781C17.5965 30.9299 17.7536 30.4029 17.7536 29.8639C17.7536 29.141 17.4714 28.4478 16.9691 27.9366C16.4668 27.4255 15.7854 27.1383 15.075 27.1383ZM15.075 30.409C14.933 30.409 14.7967 30.3516 14.6962 30.2493C14.5958 30.1471 14.5393 30.0084 14.5393 29.8639C14.5393 29.7193 14.5958 29.5806 14.6962 29.4784C14.7967 29.3762 14.933 29.3188 15.075 29.3188C15.2171 29.3188 15.3534 29.3762 15.4539 29.4784C15.5543 29.5806 15.6108 29.7193 15.6108 29.8639C15.6108 30.0084 15.5543 30.1471 15.4539 30.2493C15.3534 30.3516 15.2171 30.409 15.075 30.409Z" fill="#61ABFF"/>
<path d="M17.6676 24.1948C17.5866 24.2362 17.4963 24.2556 17.4057 24.2511C17.3152 24.2465 17.2273 24.2182 17.1507 24.1687C17.074 24.1193 17.0113 24.0505 16.9686 23.9691C16.9259 23.8877 16.9046 23.7964 16.9069 23.7042C16.9066 23.568 16.9575 23.4368 17.0491 23.3375C17.1407 23.2382 17.2661 23.1783 17.3997 23.17C17.3247 22.8102 17.2712 22.4613 17.2283 22.0797C17.1854 21.6981 17.1747 21.3602 17.164 20.9895C16.4536 21.0271 15.787 21.3503 15.3108 21.888C14.8346 22.4257 14.5878 23.1339 14.6247 23.8568C14.6617 24.5797 14.9793 25.258 15.5077 25.7425C16.0362 26.2271 16.7322 26.4782 17.4426 26.4406C17.8111 26.4375 18.1753 26.3597 18.514 26.2117C18.3398 25.8934 18.1824 25.5659 18.0426 25.2305C17.9033 24.8816 17.7747 24.5436 17.6676 24.1948Z" fill="#61ABFF"/>
<path d="M24.0104 31.1505C24.0527 31.2231 24.0749 31.306 24.0747 31.3904C24.0747 31.5349 24.0182 31.6736 23.9178 31.7758C23.8173 31.878 23.6811 31.9355 23.539 31.9355C23.3969 31.9355 23.2606 31.878 23.1602 31.7758C23.0597 31.6736 23.0033 31.5349 23.0033 31.3904C23.0031 31.2704 23.0435 31.154 23.1176 31.0607C23.1917 30.9674 23.2951 30.9029 23.4104 30.8779C23.0407 30.7064 22.6827 30.5097 22.339 30.2892C22.0338 30.1047 21.7404 29.9008 21.4604 29.6787C21.0606 30.1564 20.8404 30.7629 20.839 31.3904C20.8136 31.7483 20.8578 32.1078 20.9691 32.4483C21.0803 32.7889 21.2563 33.1037 21.4871 33.3751C21.7179 33.6464 21.999 33.8688 22.3143 34.0296C22.6296 34.1903 22.9729 34.2864 23.3247 34.3122C23.6764 34.3379 24.0297 34.2929 24.3644 34.1798C24.6991 34.0666 25.0086 33.8875 25.2752 33.6526C25.5418 33.4177 25.7604 33.1317 25.9184 32.8109C26.0764 32.4901 26.1708 32.1408 26.1961 31.7828C25.8425 31.7174 25.4997 31.6302 25.1247 31.532C24.7461 31.4274 24.3741 31.3001 24.0104 31.1505Z" fill="#61ABFF"/>
<path d="M23.3248 21.2512C23.9446 21.2495 24.544 21.0257 25.0177 20.6189C25.2964 20.3843 25.5259 20.0951 25.6927 19.7685C25.8651 19.4299 25.9672 19.0588 25.9927 18.6783C25.9927 18.6783 25.9927 18.602 25.9927 18.5584C25.9927 17.8355 25.7105 17.1423 25.2082 16.6311C24.7058 16.12 24.0245 15.8328 23.3141 15.8328C22.8978 15.8302 22.4868 15.9276 22.1145 16.117C21.7422 16.3064 21.419 16.5826 21.1712 16.923C20.9265 17.2443 20.7545 17.6165 20.6677 18.0133C20.6204 18.217 20.5952 18.4254 20.5927 18.6347C20.5811 18.7871 20.5811 18.9402 20.5927 19.0926C20.7219 19.724 21.0677 20.288 21.5684 20.6835C22.069 21.0791 22.6917 21.2803 23.3248 21.2512ZM22.832 18.3076C22.8726 18.2093 22.9413 18.1255 23.0291 18.0672C23.117 18.0089 23.22 17.9787 23.3248 17.9805C23.4661 17.9833 23.6007 18.0417 23.7006 18.1433C23.8005 18.2449 23.8578 18.3819 23.8605 18.5256C23.8666 18.5763 23.8666 18.6276 23.8605 18.6783C23.8407 18.8229 23.7651 18.9535 23.6506 19.0414C23.5361 19.1293 23.3919 19.1673 23.2498 19.1471C23.1077 19.1268 22.9794 19.05 22.893 18.9335C22.8066 18.8169 22.7692 18.6702 22.7891 18.5256C22.7765 18.4531 22.7802 18.3786 22.7998 18.3076H22.832Z" fill="#61ABFF"/>
<path d="M26.7108 22.2213C26.269 21.9239 25.7513 21.7647 25.2215 21.7634C24.6918 21.7634 24.1739 21.9233 23.7334 22.2228C23.2929 22.5223 22.9496 22.9479 22.7469 23.4459C22.5441 23.944 22.4911 24.492 22.5944 25.0207C22.6978 25.5494 22.9529 26.0351 23.3275 26.4163C23.7021 26.7974 24.1794 27.057 24.699 27.1622C25.2186 27.2674 25.7571 27.2134 26.2466 27.0071C26.736 26.8008 27.1544 26.4514 27.4487 26.0032C27.743 25.555 27.9001 25.0281 27.9001 24.489C27.9001 24.3582 27.9001 24.2274 27.9001 24.0965C27.8393 23.7175 27.7023 23.3553 27.4977 23.0327C27.2931 22.71 27.0252 22.4338 26.7108 22.2213ZM25.2215 25.0886C25.0795 25.0886 24.9432 25.0312 24.8427 24.929C24.7423 24.8267 24.6858 24.6881 24.6858 24.5435C24.6886 24.3998 24.7459 24.2628 24.8458 24.1611C24.9457 24.0595 25.0803 24.0012 25.2215 23.9984C25.3636 23.9984 25.4999 24.0558 25.6004 24.158C25.7008 24.2602 25.7573 24.3989 25.7573 24.5435C25.7573 24.6881 25.7008 24.8267 25.6004 24.929C25.4999 25.0312 25.3636 25.0886 25.2215 25.0886Z" fill="#61ABFF"/>
<path d="M33.2137 20.8259C32.684 20.8259 32.1661 20.9858 31.7256 21.2853C31.2851 21.5848 30.9418 22.0104 30.739 22.5084C30.5363 23.0065 30.4833 23.5545 30.5866 24.0832C30.69 24.6119 30.9451 25.0976 31.3197 25.4787C31.6943 25.8599 32.1716 26.1195 32.6912 26.2247C33.2108 26.3299 33.7493 26.2759 34.2388 26.0696C34.7282 25.8633 35.1466 25.5139 35.4409 25.0657C35.7352 24.6175 35.8923 24.0906 35.8923 23.5515C35.8923 22.8286 35.6101 22.1353 35.1078 21.6242C34.6054 21.113 33.9241 20.8259 33.2137 20.8259ZM33.2137 24.0966C33.0717 24.0966 32.9354 24.0391 32.8349 23.9369C32.7345 23.8347 32.678 23.6961 32.678 23.5515C32.678 23.4069 32.7345 23.2682 32.8349 23.166C32.9354 23.0638 33.0717 23.0064 33.2137 23.0064C33.3558 23.0064 33.4921 23.0638 33.5925 23.166C33.693 23.2682 33.7494 23.4069 33.7494 23.5515C33.7467 23.6952 33.6894 23.8322 33.5895 23.9338C33.4896 24.0355 33.355 24.0938 33.2137 24.0966Z" fill="#61ABFF"/>
</g>
<defs>
<clipPath id="clip0_2256_15536">
<rect width="30" height="29" fill="white" transform="translate(9 10)"/>
</clipPath>
</defs>
</svg>
