<svg width="48" height="48" viewBox="0 0 48 48" fill="none" xmlns="http://www.w3.org/2000/svg">
<g clip-path="url(#clip0_2256_15574)">
<path d="M34.9705 12.3601C34.9809 12.2871 34.9809 12.213 34.9705 12.14C34.9678 11.8564 34.9094 11.576 34.7984 11.315C34.6874 11.0539 34.5262 10.8173 34.3237 10.6186C34.1213 10.4198 33.8817 10.263 33.6186 10.1568C33.3555 10.0507 33.0741 9.99745 32.7905 10.0001H15.1805C14.8968 9.99745 14.6154 10.0507 14.3524 10.1568C14.0893 10.263 13.8497 10.4198 13.6472 10.6186C13.4448 10.8173 13.2835 11.0539 13.1725 11.315C13.0615 11.576 13.0031 11.8564 13.0005 12.14C12.9901 12.213 12.9901 12.2871 13.0005 12.3601L13.6105 15.08C13.205 15.5811 12.9828 16.2055 12.9805 16.8501V31.14C12.9828 31.7846 13.205 32.409 13.6105 32.9101L13.0005 35.6301C12.9901 35.7031 12.9901 35.7771 13.0005 35.8501C13.0058 36.4239 13.2381 36.9722 13.6466 37.3751C14.0552 37.778 14.6067 38.0028 15.1805 38.0001H32.8205C33.3943 38.0028 33.9458 37.778 34.3543 37.3751C34.7629 36.9722 34.9952 36.4239 35.0005 35.8501C35.0109 35.7771 35.0109 35.7031 35.0005 35.6301L34.3904 32.9101C34.7988 32.41 35.0245 31.7856 35.0305 31.14V16.8501C35.0245 16.2045 34.7988 15.5802 34.3904 15.08L34.9705 12.3601ZM32.9705 12.0901L32.5405 14.0901C32.404 14.0802 32.267 14.0802 32.1305 14.0901H30.9905V12.0901H32.8105C32.8366 12.0761 32.8658 12.0688 32.8954 12.0688C32.9251 12.0688 32.9543 12.0761 32.9805 12.0901H32.9705ZM32.9705 16.8501V31.14C32.9705 31.14 32.9705 31.1401 32.9705 31.2101C32.9548 31.4074 32.87 31.5929 32.731 31.7337C32.5919 31.8746 32.4075 31.9618 32.2104 31.9801H32.1305H15.8505C15.6724 31.9723 15.5012 31.9094 15.3605 31.8001C15.2512 31.723 15.1617 31.6213 15.0991 31.5031C15.0366 31.385 15.0028 31.2538 15.0005 31.1201V16.8501C15.008 16.627 15.0999 16.4151 15.2577 16.2573C15.4155 16.0995 15.6274 16.0076 15.8505 16.0001H32.2205C32.4176 16.0183 32.6019 16.1056 32.7409 16.2464C32.88 16.3873 32.9648 16.5727 32.9805 16.7701C32.9805 16.7701 33.0005 16.8301 33.0005 16.8501H32.9705ZM28.9705 14.0001H26.9705V12.0001H28.9705V14.0001ZM24.9705 14.0001H22.9705V12.0001H24.9705V14.0001ZM20.9705 14.0001H18.9705V12.0001H20.9705V14.0001ZM16.9705 12.0001V14.0001H15.8205C15.684 13.9903 15.547 13.9903 15.4105 14.0001L14.9805 12.0001C14.9982 11.9713 15.0233 11.9478 15.0532 11.932C15.0831 11.9162 15.1167 11.9086 15.1505 11.9101L16.9705 12.0001ZM14.9705 35.9001L15.4005 33.9001C15.5357 33.9265 15.6728 33.9432 15.8105 33.95H16.9604V35.95H15.1404C15.1165 35.9508 15.0928 35.9467 15.0704 35.9381C15.0481 35.9296 15.0277 35.9166 15.0104 35.9001H14.9705ZM18.9705 34.0001H20.9705V36.0001H18.9705V34.0001ZM22.9705 34.0001H24.9705V36.0001H22.9705V34.0001ZM26.9705 34.0001H28.9705V36.0001H26.9705V34.0001ZM30.9705 34.0001H32.1105C32.2482 33.9933 32.3852 33.9765 32.5204 33.95L32.9504 35.95C32.9366 35.9807 32.9141 36.0065 32.8856 36.0243C32.8571 36.0421 32.824 36.0511 32.7905 36.0501H30.9705V34.0001Z" fill="#495057"/>
<path d="M28.5391 19.9301C28.3175 19.8378 28.1414 19.6617 28.0491 19.4402C27.905 19.0707 27.6796 18.7384 27.3894 18.468C27.0993 18.1976 26.752 17.9961 26.3733 17.8783C25.9946 17.7606 25.5943 17.7297 25.202 17.7879C24.8097 17.8461 24.4356 17.9919 24.1074 18.2146C23.7792 18.4372 23.5054 18.731 23.3063 19.0739C23.1072 19.4169 22.988 19.8003 22.9574 20.1957C22.9268 20.5911 22.9857 20.9883 23.1297 21.3578C23.2737 21.7273 23.4991 22.0597 23.7891 22.3301C23.9843 22.5086 24.2423 22.6025 24.5065 22.5913C24.7708 22.58 25.0198 22.4645 25.1991 22.2701C25.2884 22.1726 25.3575 22.0584 25.4023 21.934C25.4472 21.8096 25.4669 21.6776 25.4604 21.5455C25.4539 21.4134 25.4213 21.284 25.3644 21.1646C25.3076 21.0453 25.2276 20.9384 25.1291 20.8501C25.063 20.791 25.0101 20.7185 24.9739 20.6375C24.9377 20.5565 24.9191 20.4689 24.9191 20.3802C24.9191 20.2104 24.9865 20.0476 25.1066 19.9276C25.2266 19.8076 25.3894 19.7401 25.5591 19.7401C25.7289 19.7401 25.8916 19.8076 26.0116 19.9276C26.1317 20.0476 26.1991 20.2104 26.1991 20.3802C26.2028 20.4301 26.2028 20.4802 26.1991 20.5301C26.1586 20.696 26.1613 20.8694 26.2068 21.034C26.2523 21.1985 26.3391 21.3487 26.4591 21.4701C26.5815 21.5918 26.7334 21.6796 26.8999 21.7252C27.0664 21.7707 27.2418 21.7725 27.4091 21.7301H27.5491C27.7064 21.7497 27.851 21.8261 27.9559 21.9449C28.0607 22.0637 28.1186 22.2167 28.1186 22.3752C28.1186 22.5336 28.0607 22.6866 27.9559 22.8054C27.851 22.9242 27.7064 23.0005 27.5491 23.0201C27.4596 23.0189 27.3714 22.9987 27.2904 22.9608C27.2093 22.9229 27.1373 22.8681 27.0791 22.8001C26.9879 22.699 26.877 22.6176 26.7532 22.5608C26.6293 22.5041 26.4953 22.4732 26.3591 22.4701C26.2234 22.468 26.0887 22.4935 25.9632 22.5451C25.8377 22.5966 25.7241 22.6732 25.6291 22.7701L22.7491 25.6501C22.654 25.7459 22.5792 25.86 22.5294 25.9854C22.4796 26.1109 22.4557 26.2452 22.4591 26.3802C22.4609 26.5156 22.4902 26.6492 22.5452 26.773C22.6002 26.8967 22.6798 27.008 22.7791 27.1001C22.847 27.1584 22.9018 27.2304 22.9397 27.3114C22.9777 27.3925 22.9979 27.4807 22.9991 27.5702C22.9795 27.7274 22.9031 27.872 22.7843 27.9769C22.6656 28.0818 22.5126 28.1397 22.3541 28.1397C22.1957 28.1397 22.0427 28.0818 21.9239 27.9769C21.8051 27.872 21.7287 27.7274 21.7091 27.5702C21.7014 27.5205 21.7014 27.4698 21.7091 27.4201C21.7481 27.2537 21.7439 27.0801 21.6967 26.9158C21.6495 26.7515 21.561 26.6021 21.4397 26.4817C21.3183 26.3614 21.1682 26.2742 21.0035 26.2284C20.8389 26.1826 20.6652 26.1797 20.4991 26.2201H20.3491C20.1919 26.2005 20.0472 26.1241 19.9423 26.0053C19.8374 25.8866 19.7796 25.7336 19.7796 25.5751C19.7796 25.4166 19.8374 25.2637 19.9423 25.1449C20.0472 25.0261 20.1919 24.9498 20.3491 24.9301C20.4386 24.9313 20.5268 24.9515 20.6078 24.9895C20.6889 25.0274 20.7609 25.0822 20.8191 25.1501C20.9078 25.2479 21.0148 25.3274 21.1341 25.3838C21.2535 25.4403 21.3828 25.4727 21.5146 25.4792C21.6465 25.4857 21.7783 25.4662 21.9026 25.4217C22.0269 25.3773 22.1413 25.3088 22.2391 25.2201C22.337 25.1315 22.4164 25.0245 22.4728 24.9051C22.5293 24.7858 22.5617 24.6565 22.5682 24.5246C22.5747 24.3928 22.5552 24.2609 22.5107 24.1366C22.4663 24.0123 22.3978 23.898 22.3091 23.8001C22.0387 23.5101 21.7063 23.2847 21.3368 23.1407C20.9673 22.9967 20.5701 22.9378 20.1747 22.9684C19.7793 22.999 19.3959 23.1183 19.0529 23.3174C18.7099 23.5164 18.4162 23.7903 18.1936 24.1184C17.9709 24.4466 17.8251 24.8208 17.7669 25.213C17.7087 25.6053 17.7395 26.0057 17.8573 26.3844C17.975 26.7631 18.1766 27.1104 18.447 27.4005C18.7174 27.6906 19.0496 27.9161 19.4191 28.0601C19.6407 28.1525 19.8168 28.3286 19.9091 28.5501C20.1337 29.1274 20.554 29.6073 21.0967 29.9059C21.6393 30.2045 22.2696 30.3027 22.8774 30.1836C23.4852 30.0644 24.0317 29.7353 24.4214 29.2539C24.8111 28.7725 25.0191 28.1694 25.0091 27.5501C25.0072 27.1696 24.9219 26.7941 24.7591 26.4501L26.4591 24.7502C26.803 24.913 27.1786 24.9983 27.5591 25.0002C28.1784 25.0102 28.7815 24.8021 29.2629 24.4124C29.7443 24.0228 30.0734 23.4762 30.1925 22.8684C30.3117 22.2607 30.2134 21.6303 29.9148 21.0877C29.6162 20.545 29.1363 20.1247 28.5591 19.9001L28.5391 19.9301Z" fill="#61ABFF"/>
</g>
<defs>
<clipPath id="clip0_2256_15574">
<rect width="22" height="28" fill="white" transform="translate(13 10)"/>
</clipPath>
</defs>
</svg>
