<svg width="48" height="48" viewBox="0 0 48 48" fill="none" xmlns="http://www.w3.org/2000/svg">
<g clip-path="url(#clip0_2256_15605)">
<path d="M35.14 16.91H20.48L35.23 12.96C35.4717 12.88 35.6738 12.7108 35.7951 12.487C35.9164 12.2631 35.9476 12.0014 35.8826 11.7552C35.8175 11.509 35.6611 11.2969 35.445 11.1622C35.229 11.0274 34.9697 10.9802 34.72 11.03L12.65 16.93C11.9328 16.9805 11.2611 17.3001 10.7696 17.825C10.2782 18.3498 10.0033 19.041 10 19.76V34.56C10.0026 35.3168 10.3051 36.0417 10.8412 36.5759C11.3773 37.1101 12.1032 37.41 12.86 37.41H35.14C35.8968 37.41 36.6227 37.1101 37.1588 36.5759C37.6949 36.0417 37.9974 35.3168 38 34.56V19.75C37.9947 18.995 37.6911 18.2727 37.1553 17.7406C36.6195 17.2086 35.8951 16.91 35.14 16.91ZM36 34.56C36 34.6725 35.9777 34.7839 35.9344 34.8876C35.891 34.9914 35.8275 35.0856 35.7475 35.1646C35.6675 35.2437 35.5726 35.3061 35.4684 35.3482C35.3641 35.3903 35.2525 35.4113 35.14 35.41H12.86C12.6336 35.41 12.4164 35.3208 12.2554 35.1617C12.0944 35.0026 12.0026 34.7864 12 34.56V34.41H36V34.56ZM12 19.76C12 19.6476 12.0223 19.5362 12.0656 19.4324C12.109 19.3286 12.1725 19.2345 12.2525 19.1554C12.3325 19.0763 12.4274 19.0139 12.5316 18.9718C12.6359 18.9297 12.7475 18.9087 12.86 18.91H35.14C35.2525 18.9087 35.3641 18.9297 35.4684 18.9718C35.5726 19.0139 35.6675 19.0763 35.7475 19.1554C35.8275 19.2345 35.891 19.3286 35.9344 19.4324C35.9777 19.5362 36 19.6476 36 19.76V20.41H12V19.76ZM12 22.41H36V32.41H12V22.41Z" fill="#495057"/>
<path d="M30.4591 26.1C30.4582 25.6527 30.3432 25.2131 30.1251 24.8226C29.9069 24.4322 29.5928 24.1038 29.2124 23.8686C28.832 23.6334 28.3979 23.499 27.9511 23.4783C27.5043 23.4575 27.0596 23.551 26.6591 23.75C26.2237 23.9664 25.8589 24.3023 25.6074 24.7185C25.3559 25.1347 25.2281 25.6139 25.2391 26.1C25.2391 26.3652 25.3444 26.6196 25.532 26.8071C25.7195 26.9947 25.9739 27.1 26.2391 27.1C26.5043 27.1 26.7587 26.9947 26.9462 26.8071C27.1337 26.6196 27.2391 26.3652 27.2391 26.1C27.246 25.9994 27.2778 25.9021 27.3316 25.8168C27.3854 25.7316 27.4594 25.6609 27.5472 25.6113C27.6349 25.5616 27.7336 25.5345 27.8344 25.5324C27.9352 25.5302 28.0349 25.553 28.1248 25.5988C28.2146 25.6446 28.2916 25.7119 28.3491 25.7948C28.4065 25.8777 28.4424 25.9735 28.4538 26.0737C28.4651 26.1739 28.4514 26.2752 28.4139 26.3688C28.3765 26.4624 28.3164 26.5453 28.2391 26.61C28.113 26.7029 28.0105 26.8242 27.9398 26.9641C27.8692 27.1039 27.8324 27.2583 27.8324 27.415C27.8324 27.5716 27.8692 27.7261 27.9398 27.866C28.0105 28.0058 28.113 28.127 28.2391 28.22C28.3215 28.284 28.3864 28.3678 28.4279 28.4636C28.4693 28.5594 28.4858 28.6642 28.476 28.7681C28.4661 28.872 28.4302 28.9717 28.3716 29.0581C28.3129 29.1444 28.2334 29.2146 28.1404 29.262C28.0475 29.3094 27.944 29.3326 27.8397 29.3294C27.7353 29.3261 27.6335 29.2967 27.5436 29.2436C27.4537 29.1905 27.3787 29.1157 27.3255 29.0259C27.2722 28.9361 27.2425 28.8343 27.2391 28.73C27.2486 28.6038 27.2323 28.4769 27.1911 28.3572C27.1499 28.2376 27.0848 28.1276 26.9996 28.0339C26.9144 27.9403 26.811 27.8651 26.6957 27.8128C26.5804 27.7606 26.4556 27.7324 26.3291 27.73H21.6691C21.5429 27.7323 21.4186 27.7604 21.3038 27.8128C21.189 27.8652 21.0862 27.9406 21.0018 28.0344C20.9174 28.1282 20.8531 28.2384 20.8131 28.358C20.7731 28.4777 20.7581 28.6043 20.7691 28.73C20.7665 28.8936 20.7003 29.0498 20.5846 29.1655C20.4689 29.2813 20.3127 29.3474 20.1491 29.35C19.9864 29.3474 19.8312 29.2809 19.7171 29.1649C19.603 29.0489 19.5391 28.8927 19.5391 28.73C19.5399 28.6306 19.5638 28.5329 19.6089 28.4443C19.654 28.3558 19.7191 28.279 19.7991 28.22C19.9251 28.1279 20.0279 28.0076 20.0991 27.8687C20.1703 27.7297 20.2079 27.5761 20.2091 27.42C20.2095 27.2622 20.1725 27.1066 20.1013 26.9658C20.03 26.8251 19.9265 26.7031 19.7991 26.61C19.7191 26.551 19.654 26.4742 19.6089 26.3857C19.5638 26.2972 19.5399 26.1993 19.5391 26.1C19.5279 26.0126 19.5355 25.9239 19.5613 25.8397C19.5871 25.7555 19.6305 25.6779 19.6887 25.6118C19.7469 25.5457 19.8185 25.4927 19.8987 25.4564C19.979 25.4202 20.066 25.4014 20.1541 25.4014C20.2421 25.4014 20.3292 25.4202 20.4094 25.4564C20.4897 25.4927 20.5613 25.5457 20.6194 25.6118C20.6776 25.6779 20.7211 25.7555 20.7469 25.8397C20.7727 25.9239 20.7802 26.0126 20.7691 26.1C20.7691 26.3652 20.8744 26.6196 21.062 26.8071C21.2495 26.9947 21.5039 27.1 21.7691 27.1C22.0343 27.1 22.2887 26.9947 22.4762 26.8071C22.6637 26.6196 22.7691 26.3652 22.7691 26.1C22.78 25.6139 22.6523 25.1347 22.4008 24.7185C22.1493 24.3023 21.7845 23.9664 21.3491 23.75C20.9482 23.5487 20.5024 23.4534 20.0542 23.473C19.606 23.4926 19.1703 23.6265 18.7884 23.862C18.4066 24.0975 18.0913 24.4268 17.8726 24.8185C17.654 25.2102 17.5392 25.6514 17.5391 26.1C17.5375 26.4434 17.6055 26.7836 17.7391 27.1C17.8191 27.3093 17.8191 27.5407 17.7391 27.75C17.6055 28.0664 17.5375 28.4066 17.5391 28.75C17.55 29.3451 17.7639 29.9185 18.1455 30.3753C18.527 30.8321 19.0532 31.1448 19.6368 31.2615C20.2204 31.3783 20.8263 31.292 21.3542 31.0171C21.8821 30.7422 22.3002 30.2951 22.5391 29.75H25.3991C25.638 30.2951 26.0561 30.7422 26.584 31.0171C27.1118 31.292 27.7178 31.3783 28.3014 31.2615C28.885 31.1448 29.4112 30.8321 29.7927 30.3753C30.1742 29.9185 30.3882 29.3451 30.3991 28.75C30.3992 28.4077 30.3348 28.0684 30.2091 27.75C30.1648 27.6474 30.1419 27.5368 30.1419 27.425C30.1419 27.3132 30.1648 27.2026 30.2091 27.1C30.3554 26.7856 30.4402 26.4462 30.4591 26.1Z" fill="#61ABFF"/>
</g>
<defs>
<clipPath id="clip0_2256_15605">
<rect width="28" height="26.42" fill="white" transform="translate(10 11)"/>
</clipPath>
</defs>
</svg>
