<svg width="48" height="48" viewBox="0 0 48 48" fill="none" xmlns="http://www.w3.org/2000/svg">
<g clip-path="url(#clip0_2256_15561)">
<path d="M19.4804 27.11C20.0508 26.171 20.3524 25.0935 20.3524 23.995C20.3524 22.8964 20.0508 21.8189 19.4804 20.88C19.1023 20.2502 18.9025 19.5295 18.9025 18.795C18.9025 18.0604 19.1023 17.3397 19.4804 16.7099C19.6165 16.483 19.6571 16.2115 19.5934 15.9547C19.5297 15.698 19.3668 15.4769 19.1404 15.3399C18.9135 15.2038 18.642 15.1632 18.3852 15.227C18.1284 15.2907 17.9073 15.4536 17.7704 15.68C17.2 16.6189 16.8984 17.6964 16.8984 18.795C16.8984 19.8935 17.2 20.971 17.7704 21.9099C18.1539 22.5378 18.3568 23.2593 18.3568 23.995C18.3568 24.7307 18.1539 25.4521 17.7704 26.0799C17.2 27.0188 16.8984 28.0964 16.8984 29.195C16.8984 30.2936 17.2 31.371 17.7704 32.31C18.1021 32.861 18.2977 33.483 18.3412 34.1247C18.3847 34.7664 18.2747 35.4092 18.0204 36H20.1404C20.3586 35.2099 20.4126 34.3834 20.2991 33.5716C20.1856 32.7598 19.907 31.9799 19.4804 31.2799C19.1023 30.6502 18.9025 29.9295 18.9025 29.195C18.9025 28.4604 19.1023 27.7397 19.4804 27.11Z" fill="#61ABFF"/>
<path d="M23.13 10.48C23.0403 10.3326 22.9139 10.2109 22.7632 10.1268C22.6125 10.0427 22.4425 9.99901 22.27 10H13.72C13.5443 10.0018 13.3723 10.0498 13.2211 10.1392C13.0699 10.2287 12.9449 10.3563 12.8587 10.5094C12.7725 10.6625 12.7282 10.8355 12.7302 11.0112C12.7321 11.1868 12.7804 11.3589 12.87 11.51C13.2482 12.1397 13.4479 12.8604 13.4479 13.595C13.4479 14.3295 13.2482 15.0503 12.87 15.68C12.2996 16.6189 11.998 17.6964 11.998 18.795C11.998 19.8936 12.2996 20.9711 12.87 21.91C13.2482 22.5397 13.4479 23.2605 13.4479 23.995C13.4479 24.7296 13.2482 25.4502 12.87 26.08C12.2996 27.0189 11.998 28.0964 11.998 29.195C11.998 30.2936 12.2996 31.3711 12.87 32.31C13.2482 32.9397 13.4479 33.6604 13.4479 34.395C13.4479 35.1295 13.2482 35.8503 12.87 36.48C12.7779 36.6313 12.7276 36.8044 12.7243 36.9815C12.721 37.1586 12.7649 37.3334 12.8513 37.4881C12.9378 37.6427 13.0638 37.7716 13.2164 37.8615C13.3691 37.9515 13.5428 37.9993 13.72 38H22.27C22.4435 38 22.614 37.9548 22.7648 37.8689C22.9156 37.7829 23.0415 37.6592 23.13 37.51C23.7004 36.571 24.002 35.4936 24.002 34.395C24.002 33.2964 23.7004 32.2189 23.13 31.28C22.7518 30.6503 22.5521 29.9296 22.5521 29.195C22.5521 28.4605 22.7518 27.7397 23.13 27.11C23.7004 26.1711 24.002 25.0936 24.002 23.995C24.002 22.8964 23.7004 21.8189 23.13 20.88C22.7518 20.2503 22.5521 19.5295 22.5521 18.795C22.5521 18.0605 22.7518 17.3397 23.13 16.71C23.7004 15.7711 24.002 14.6936 24.002 13.595C24.002 12.4964 23.7004 11.4189 23.13 10.48V10.48ZM21.42 32.31C21.7516 32.861 21.9473 33.4831 21.9908 34.1248C22.0343 34.7664 21.9243 35.4093 21.67 36H15.23C15.4497 35.2106 15.5053 34.3845 15.3936 33.5727C15.2818 32.7609 15.0049 31.9806 14.58 31.28C14.2018 30.6503 14.0021 29.9296 14.0021 29.195C14.0021 28.4605 14.2018 27.7397 14.58 27.11C15.1503 26.1711 15.452 25.0936 15.452 23.995C15.452 22.8964 15.1503 21.8189 14.58 20.88C14.2018 20.2503 14.0021 19.5295 14.0021 18.795C14.0021 18.0605 14.2018 17.3397 14.58 16.71C15.0035 16.0106 15.2796 15.2321 15.3914 14.4221C15.5032 13.6122 15.4483 12.788 15.23 12H21.67C21.9267 12.5885 22.038 13.23 21.9944 13.8706C21.9509 14.5111 21.7539 15.1317 21.42 15.68C20.8496 16.6189 20.548 17.6964 20.548 18.795C20.548 19.8936 20.8496 20.9711 21.42 21.91C21.7981 22.5397 21.9979 23.2605 21.9979 23.995C21.9979 24.7296 21.7981 25.4502 21.42 26.08C20.8496 27.0189 20.548 28.0964 20.548 29.195C20.548 30.2936 20.8496 31.3711 21.42 32.31V32.31Z" fill="#495057"/>
<path d="M35.48 30.09C35.9166 29.3766 36.1477 28.5564 36.1477 27.72C36.1477 26.8835 35.9166 26.0634 35.48 25.35C35.2398 24.9443 35.113 24.4814 35.113 24.0099C35.113 23.5385 35.2398 23.0757 35.48 22.67C35.9113 21.9547 36.1392 21.1353 36.1392 20.3C36.1392 19.4647 35.9113 18.6453 35.48 17.93C35.3911 17.784 35.2664 17.6633 35.1176 17.5792C34.9688 17.4952 34.8009 17.4507 34.63 17.45H27.58C27.4028 17.4503 27.2289 17.4977 27.076 17.5873C26.9231 17.6769 26.7968 17.8055 26.71 17.96C26.6222 18.112 26.576 18.2844 26.576 18.46C26.576 18.6355 26.6222 18.8079 26.71 18.96C26.9502 19.3657 27.077 19.8285 27.077 20.3C27.077 20.7715 26.9502 21.2343 26.71 21.64C26.2787 22.3553 26.0508 23.1747 26.0508 24.0099C26.0508 24.8452 26.2787 25.6647 26.71 26.38C26.9502 26.7857 27.077 27.2485 27.077 27.72C27.077 28.1915 26.9502 28.6543 26.71 29.06C26.2787 29.7753 26.0508 30.5947 26.0508 31.43C26.0508 32.2653 26.2787 33.0847 26.71 33.8C26.9502 34.2057 27.077 34.6685 27.077 35.14C27.077 35.6114 26.9502 36.0743 26.71 36.48C26.6222 36.632 26.576 36.8044 26.576 36.98C26.576 37.1555 26.6222 37.328 26.71 37.48C26.7968 37.6344 26.9231 37.763 27.076 37.8527C27.2289 37.9423 27.4028 37.9897 27.58 37.99H34.64C34.8064 37.9908 34.9703 37.95 35.117 37.8715C35.2637 37.7929 35.3885 37.679 35.48 37.54C35.9113 36.8247 36.1392 36.0052 36.1392 35.17C36.1392 34.3347 35.9113 33.5153 35.48 32.8C35.234 32.3908 35.1041 31.9224 35.1041 31.445C35.1041 30.9676 35.234 30.4991 35.48 30.09V30.09ZM28.48 32.77C28.2345 32.3661 28.1047 31.9026 28.1047 31.43C28.1047 30.9574 28.2345 30.4938 28.48 30.09C28.9113 29.3747 29.1392 28.5552 29.1392 27.72C29.1392 26.8847 28.9113 26.0653 28.48 25.35C28.2345 24.9461 28.1047 24.4826 28.1047 24.0099C28.1047 23.5373 28.2345 23.0738 28.48 22.67C29.0641 21.705 29.2707 20.5581 29.06 19.45H30.48C30.6121 19.8072 30.6619 20.1898 30.6255 20.569C30.5891 20.9482 30.4676 21.3143 30.27 21.64C29.8387 22.3553 29.6108 23.1747 29.6108 24.0099C29.6108 24.8452 29.8387 25.6647 30.27 26.38C30.5154 26.7839 30.6453 27.2474 30.6453 27.72C30.6453 28.1926 30.5154 28.6561 30.27 29.06C29.8387 29.7753 29.6108 30.5947 29.6108 31.43C29.6108 32.2653 29.8387 33.0847 30.27 33.8C30.4677 34.1275 30.5893 34.4952 30.6257 34.876C30.662 35.2569 30.6122 35.641 30.48 36H29.04C29.2563 34.8911 29.057 33.7413 28.48 32.77V32.77ZM33.82 33.77C34.0165 34.0977 34.1388 34.4645 34.1785 34.8445C34.2183 35.2246 34.1744 35.6087 34.05 35.97H32.58C32.7886 34.8598 32.586 33.7117 32.01 32.74C31.7645 32.3361 31.6347 31.8726 31.6347 31.4C31.6347 30.9274 31.7645 30.4639 32.01 30.06C32.4413 29.3447 32.6692 28.5253 32.6692 27.69C32.6692 26.8547 32.4413 26.0353 32.01 25.32C31.7645 24.9161 31.6347 24.4526 31.6347 23.98C31.6347 23.5074 31.7645 23.0438 32.01 22.64C32.5862 21.672 32.7889 20.5269 32.58 19.42H34.05C34.1742 19.7796 34.218 20.1621 34.1783 20.5405C34.1385 20.9189 34.0163 21.284 33.82 21.61C33.3887 22.3253 33.1608 23.1447 33.1608 23.98C33.1608 24.8152 33.3887 25.6347 33.82 26.35C34.0655 26.7538 34.1953 27.2174 34.1953 27.69C34.1953 28.1626 34.0655 28.6261 33.82 29.03C33.3769 29.745 33.1387 30.5681 33.1317 31.4094C33.1246 32.2506 33.3489 33.0776 33.78 33.8L33.82 33.77Z" fill="#495057"/>
</g>
<defs>
<clipPath id="clip0_2256_15561">
<rect width="24.16" height="28" fill="white" transform="translate(12 10)"/>
</clipPath>
</defs>
</svg>
