<svg width="48" height="48" viewBox="0 0 48 48" fill="none" xmlns="http://www.w3.org/2000/svg">
<g clip-path="url(#clip0_2256_15594)">
<path d="M37.6091 34.36L34.6091 24L34.0891 25.78L33.5692 27.56L35.7191 34.92C35.7575 35.0278 35.7734 35.1422 35.7659 35.2563C35.7585 35.3705 35.7278 35.4819 35.6757 35.5838C35.6236 35.6857 35.5513 35.7758 35.4632 35.8488C35.375 35.9217 35.2729 35.9758 35.1631 36.0079C35.0533 36.0399 34.9381 36.0492 34.8246 36.0352C34.7111 36.0211 34.6016 35.984 34.5029 35.9261C34.4042 35.8683 34.3184 35.7909 34.2507 35.6987C34.183 35.6065 34.1348 35.5014 34.1091 35.39L32.6591 30.54L32.1391 32.32L31.6191 34.1L32.1591 35.94C32.3319 36.5306 32.6911 37.0495 33.1832 37.419C33.6753 37.7885 34.2738 37.9888 34.8891 37.99C35.1569 37.9892 35.4232 37.9488 35.6791 37.87C36.3994 37.6587 37.0067 37.1709 37.3683 36.5132C37.73 35.8555 37.8166 35.0813 37.6091 34.36Z" fill="#61ABFF"/>
<path d="M31.0802 12.04C30.9852 11.6716 30.8171 11.3261 30.5859 11.0239C30.3548 10.7217 30.0653 10.469 29.7346 10.2809C29.4039 10.0928 29.0387 9.97304 28.6609 9.92875C28.283 9.88445 27.9001 9.91649 27.5349 10.023C27.1696 10.1296 26.8295 10.3085 26.5347 10.549C26.24 10.7895 25.9965 11.0869 25.8189 11.4233C25.6412 11.7597 25.533 12.1284 25.5006 12.5075C25.4681 12.8866 25.5123 13.2683 25.6302 13.63L28.6302 24L29.1502 22.22L29.6702 20.43L27.5202 13.07C27.4892 12.964 27.4794 12.8528 27.4915 12.743C27.5035 12.6332 27.537 12.5269 27.5902 12.43C27.6429 12.3336 27.7143 12.2485 27.8001 12.1798C27.8859 12.1112 27.9845 12.0602 28.0902 12.03H28.3202C28.5024 12.0273 28.6803 12.0845 28.8267 12.193C28.9731 12.3014 29.0798 12.455 29.1302 12.63L30.5502 17.48L31.0702 15.7L31.5902 13.91L31.0802 12.04Z" fill="#61ABFF"/>
<path d="M21.62 30.2L21.55 17.77L24.42 14.9C24.5137 14.807 24.5881 14.6965 24.6389 14.5746C24.6897 14.4527 24.7158 14.322 24.7158 14.19C24.7158 14.058 24.6897 13.9273 24.6389 13.8054C24.5881 13.6836 24.5137 13.573 24.42 13.48L21.27 10.33C21.0837 10.1452 20.8323 10.0411 20.57 10.04H14.18C14.1234 10.0352 14.0665 10.0352 14.01 10.04C13.806 10.064 13.6159 10.1555 13.47 10.3L10.3 13.47C10.2055 13.5626 10.1303 13.6731 10.0788 13.7949C10.0273 13.9168 10.0005 14.0477 10 14.18C10.0005 14.3123 10.0273 14.4432 10.0788 14.5651C10.1303 14.687 10.2055 14.7974 10.3 14.89L13.22 17.81L13.29 30.23L10.42 33.1C10.3263 33.193 10.2519 33.3036 10.2011 33.4254C10.1503 33.5473 10.1242 33.678 10.1242 33.81C10.1242 33.942 10.1503 34.0727 10.2011 34.1946C10.2519 34.3165 10.3263 34.427 10.42 34.52L13.57 37.67C13.7546 37.8584 14.0062 37.9662 14.27 37.97H20.66C20.7907 37.9684 20.9198 37.9412 21.04 37.89C21.0955 37.8603 21.149 37.8269 21.2 37.79C21.259 37.7534 21.3157 37.7133 21.37 37.67V37.67L24.54 34.5C24.6345 34.4074 24.7096 34.2969 24.7611 34.1751C24.8126 34.0532 24.8394 33.9223 24.84 33.79C24.8362 33.5262 24.7284 33.2746 24.54 33.09L21.62 30.2ZM14.7 35.96L12.54 33.8L14.3 32.04L18.23 35.98L14.7 35.96ZM20.7 35.58L15.33 30.21L15.18 17.37C15.1789 17.1077 15.0747 16.8563 14.89 16.67L12.39 14.17L14.15 12.41L19.51 17.78L19.59 30.62C19.5938 30.8838 19.7016 31.1354 19.89 31.32L22.39 33.82L20.7 35.58ZM20.18 12.03L22.34 14.19L20.58 15.95L16.65 12.01L20.18 12.03Z" fill="#495057"/>
<path d="M37.3801 11.4699C37.1105 10.9763 36.7004 10.5739 36.2018 10.3136C35.7032 10.0533 35.1385 9.94694 34.5794 10.008C34.0203 10.069 33.4918 10.2947 33.0611 10.6565C32.6305 11.0182 32.3169 11.4997 32.1601 12.0399L31.6201 13.8799L31.1002 15.6699L30.5801 17.4499L29.7001 20.4499L29.1801 22.2399L28.6601 24.0199L25.6601 34.3799C25.4497 35.1026 25.5347 35.8793 25.8966 36.5394C26.2585 37.1994 26.8676 37.6887 27.5901 37.8999V37.8999C27.8461 37.9787 28.1123 38.0191 28.3801 38.0199C28.9955 38.0187 29.594 37.8184 30.0861 37.4489C30.5781 37.0794 30.9374 36.5605 31.1101 35.9699L31.6501 34.1299L32.1701 32.3499L32.6901 30.5699L33.5702 27.5699L34.0901 25.7899L34.6101 24.0099L37.6101 13.6399C37.7184 13.2811 37.7539 12.9043 37.7144 12.5317C37.6749 12.159 37.5613 11.798 37.3801 11.4699V11.4699ZM28.1201 35.9599C27.9157 35.8971 27.7428 35.7587 27.6369 35.5729C27.531 35.387 27.5 35.1678 27.5501 34.9599L29.7001 27.5999L30.2301 25.8199L30.7501 24.0399L31.6201 21.0399L32.1401 19.2599L32.6601 17.4799L34.0801 12.6299C34.1429 12.4255 34.2813 12.2526 34.4672 12.1467C34.653 12.0408 34.8722 12.0098 35.0801 12.0599C35.2846 12.1227 35.4574 12.2611 35.5633 12.447C35.6693 12.6328 35.7003 12.852 35.6501 13.0599L33.5001 20.4199L32.9801 22.2099L32.4601 23.9899L31.5801 26.9899L31.0601 28.7799L30.5801 30.5399L29.1801 35.3899C29.1505 35.4985 29.0991 35.6 29.029 35.6881C28.9589 35.7762 28.8716 35.8491 28.7725 35.9025C28.6733 35.9558 28.5644 35.9883 28.4522 35.9982C28.3401 36.0081 28.2271 35.9951 28.1201 35.9599V35.9599Z" fill="#495057"/>
</g>
<defs>
<clipPath id="clip0_2256_15594">
<rect width="27.72" height="28" fill="white" transform="translate(10 10)"/>
</clipPath>
</defs>
</svg>
