<svg width="48" height="48" viewBox="0 0 48 48" fill="none" xmlns="http://www.w3.org/2000/svg">
<g clip-path="url(#clip0_2256_15637)">
<path d="M22.2408 10.99H18.7108C18.0053 10.99 17.3287 11.2703 16.8299 11.7691C16.331 12.268 16.0508 12.9446 16.0508 13.65V15.65C16.4206 15.7722 16.7611 15.9697 17.0508 16.23L17.1208 16.29L18.0508 17.22V13.68C18.0508 13.505 18.1203 13.3371 18.2441 13.2133C18.3679 13.0896 18.5357 13.02 18.7108 13.02H22.2408C22.4168 13.02 22.5857 13.0892 22.7111 13.2127C22.8364 13.3362 22.9081 13.5041 22.9108 13.68V17.22C22.9081 17.396 22.8364 17.5638 22.7111 17.6873C22.5857 17.8108 22.4168 17.8801 22.2408 17.8801H18.7007L19.6208 18.8C19.6208 18.8 19.6208 18.8601 19.6908 18.8801C19.9511 19.1698 20.1485 19.5102 20.2708 19.8801H22.2708C22.9772 19.8801 23.6548 19.6001 24.1552 19.1015C24.6556 18.603 24.9382 17.9264 24.9408 17.22V13.68C24.9435 13.3252 24.8753 12.9734 24.7405 12.6451C24.6056 12.3169 24.4067 12.0188 24.1553 11.7684C23.9039 11.5179 23.6052 11.3201 23.2764 11.1864C22.9477 11.0528 22.5956 10.986 22.2408 10.99Z" fill="#61ABFF"/>
<path d="M33.8207 27.1601C33.7972 26.785 33.6913 26.4196 33.5107 26.0901C33.2877 25.6621 32.9517 25.3035 32.5391 25.0531C32.1266 24.8027 31.6533 24.6703 31.1707 24.67H27.6407C26.9343 24.67 26.2567 24.95 25.7563 25.4485C25.2559 25.9471 24.9733 26.6237 24.9707 27.33V30.86C24.9733 31.5674 25.2555 32.245 25.7556 32.7451C26.2558 33.2453 26.9334 33.5274 27.6407 33.5301H31.1707C31.878 33.5274 32.5556 33.2453 33.0558 32.7451C33.5559 32.245 33.8381 31.5674 33.8407 30.86V27.33C33.8407 27.27 33.8207 27.2201 33.8207 27.1601ZM31.8207 27.33V30.86C31.8207 31.0377 31.7501 31.2082 31.6245 31.3338C31.4988 31.4595 31.3284 31.5301 31.1507 31.5301H27.6407C27.463 31.5301 27.2926 31.4595 27.1669 31.3338C27.0413 31.2082 26.9707 31.0377 26.9707 30.86V29.3401H30.1607C30.4259 29.3401 30.6803 29.2347 30.8678 29.0471C31.0553 28.8596 31.1607 28.6053 31.1607 28.3401C31.1607 28.0748 31.0553 27.8205 30.8678 27.6329C30.6803 27.4454 30.4259 27.3401 30.1607 27.3401H26.9707C26.9707 27.2525 26.9881 27.1659 27.0219 27.0851C27.0557 27.0044 27.1052 26.9312 27.1675 26.8698C27.2299 26.8084 27.3038 26.76 27.3851 26.7274C27.4663 26.6948 27.5532 26.6787 27.6407 26.6801H31.1707C31.2339 26.6745 31.2975 26.6745 31.3607 26.6801C31.4591 26.7107 31.5491 26.7637 31.6237 26.8348C31.6982 26.9059 31.7554 26.9933 31.7907 27.0901C31.8256 27.1652 31.8427 27.2473 31.8407 27.33H31.8207Z" fill="#61ABFF"/>
<path d="M37.2209 21.4401L34.7209 18.9401C34.2131 18.4553 33.538 18.1848 32.8359 18.1848C32.1338 18.1848 31.4588 18.4553 30.9509 18.9401L28.4509 21.4401C28.0375 21.8591 27.7742 22.4029 27.7019 22.9871C27.6295 23.5712 27.7523 24.1629 28.0509 24.67H30.7409L29.871 23.8C29.747 23.673 29.6775 23.5026 29.6775 23.325C29.6775 23.1475 29.747 22.9771 29.871 22.85L32.371 20.36C32.4324 20.2978 32.5055 20.2483 32.5862 20.2145C32.6669 20.1808 32.7535 20.1634 32.8409 20.1634C32.9284 20.1634 33.015 20.1808 33.0957 20.2145C33.1764 20.2483 33.2496 20.2978 33.311 20.36L35.811 22.85C35.9349 22.9771 36.0043 23.1475 36.0043 23.325C36.0043 23.5026 35.9349 23.673 35.811 23.8L33.5109 26.0901C33.6915 26.4196 33.7974 26.785 33.821 27.1601C33.821 27.2201 33.821 27.27 33.821 27.33V28.33C34.1503 28.1978 34.4495 28.0006 34.7009 27.7501L37.2009 25.2501C37.4553 25.0029 37.6579 24.7074 37.7969 24.3811C37.9358 24.0547 38.0083 23.7039 38.0102 23.3492C38.012 22.9945 37.9432 22.643 37.8077 22.3152C37.6722 21.9874 37.4727 21.6899 37.2209 21.4401V21.4401Z" fill="#495057"/>
<path d="M21.3191 21.88H20.0991C20.4127 21.2605 20.4736 20.5435 20.269 19.88C20.1468 19.5102 19.9494 19.1697 19.6891 18.88C19.6891 18.88 19.6891 18.83 19.6191 18.8L18.699 17.88L18.0491 17.23L17.1191 16.3L17.0491 16.24C16.7594 15.9797 16.4189 15.7822 16.0491 15.66C15.5834 15.5113 15.0859 15.4922 14.6102 15.605C14.1345 15.7178 13.6985 15.958 13.3491 16.3L10.8591 18.8C10.3602 19.3005 10.08 19.9783 10.08 20.685C10.08 21.3917 10.3602 22.0695 10.8591 22.57L13.3491 25.07C13.8224 25.5384 14.4537 25.813 15.1191 25.84V27.36H12.6691C11.9756 27.3728 11.314 27.654 10.8235 28.1445C10.3331 28.635 10.0519 29.2965 10.0391 29.99V33.52C10.0417 34.2264 10.3241 34.9029 10.8246 35.4015C11.325 35.9001 12.0026 36.18 12.709 36.18H16.2391C16.9455 36.18 17.6231 35.9001 18.1235 35.4015C18.624 34.9029 18.9064 34.2264 18.9091 33.52V30.73H21.3591C22.0664 30.7274 22.744 30.4452 23.2441 29.9451C23.7443 29.4449 24.0264 28.7673 24.0291 28.06V24.53C24.0251 24.1781 23.9519 23.8303 23.8136 23.5067C23.6753 23.183 23.4746 22.8898 23.223 22.6437C22.9713 22.3976 22.6737 22.2035 22.347 22.0725C22.0203 21.9415 21.671 21.8761 21.3191 21.88V21.88ZM21.9891 28.08C21.9891 28.168 21.9717 28.2551 21.938 28.3364C21.9044 28.4177 21.8551 28.4915 21.7928 28.5538C21.7306 28.616 21.6567 28.6653 21.5754 28.699C21.4942 28.7327 21.4071 28.75 21.3191 28.75H18.5391C18.2301 28.1795 17.726 27.7393 17.1191 27.51V24.51C17.1191 24.3323 17.1897 24.1619 17.3153 24.0362C17.441 23.9106 17.6114 23.84 17.7891 23.84H21.3191C21.4968 23.84 21.6672 23.9106 21.7928 24.0362C21.9185 24.1619 21.9891 24.3323 21.9891 24.51V28.08ZM16.8691 33.54C16.8691 33.6275 16.8517 33.7142 16.8179 33.7949C16.7841 33.8756 16.7346 33.9488 16.6722 34.0103C16.6099 34.0717 16.5359 34.1201 16.4547 34.1527C16.3735 34.1852 16.2865 34.2013 16.199 34.2H12.6691C12.5816 34.2013 12.4946 34.1852 12.4134 34.1527C12.3322 34.1201 12.2583 34.0717 12.1959 34.0103C12.1336 33.9488 12.084 33.8756 12.0502 33.7949C12.0164 33.7142 11.9991 33.6275 11.9991 33.54V29.99C11.9991 29.902 12.0164 29.8149 12.05 29.7336C12.0837 29.6523 12.1331 29.5785 12.1953 29.5162C12.2575 29.454 12.3314 29.4047 12.4127 29.371C12.4939 29.3373 12.5811 29.32 12.6691 29.32H16.199C16.287 29.32 16.3742 29.3373 16.4554 29.371C16.5367 29.4047 16.6106 29.454 16.6729 29.5162C16.7351 29.5785 16.7844 29.6523 16.8181 29.7336C16.8517 29.8149 16.8691 29.902 16.8691 29.99V33.52V33.54ZM15.949 20.3C16.1353 20.1126 16.2399 19.8592 16.2399 19.595C16.2399 19.3308 16.1353 19.0774 15.949 18.89C15.8561 18.7963 15.7455 18.7219 15.6237 18.6711C15.5018 18.6204 15.3711 18.5942 15.2391 18.5942C15.1071 18.5942 14.9764 18.6204 14.8545 18.6711C14.7326 18.7219 14.622 18.7963 14.5291 18.89L12.2791 21.14C12.2168 21.0786 12.1673 21.0054 12.1335 20.9248C12.0998 20.8441 12.0824 20.7575 12.0824 20.67C12.0824 20.5825 12.0998 20.4959 12.1335 20.4153C12.1673 20.3346 12.2168 20.2614 12.2791 20.2L14.7791 17.7C14.8397 17.6365 14.9127 17.5859 14.9935 17.5514C15.0743 17.5168 15.1612 17.499 15.2491 17.499C15.3369 17.499 15.4239 17.5168 15.5046 17.5514C15.5854 17.5859 15.6584 17.6365 15.7191 17.7L16.2791 18.26L17.6591 19.64L18.2191 20.2C18.2813 20.2614 18.3308 20.3346 18.3646 20.4153C18.3983 20.4959 18.4157 20.5825 18.4157 20.67C18.4157 20.7575 18.3983 20.8441 18.3646 20.9248C18.3308 21.0054 18.2813 21.0786 18.2191 21.14L17.4391 21.92C16.9259 21.9886 16.444 22.2061 16.053 22.5455C15.6621 22.885 15.3791 23.3315 15.2391 23.83C15.0672 23.8271 14.9029 23.7592 14.7791 23.64L13.699 22.56L15.949 20.3Z" fill="#495057"/>
</g>
<defs>
<clipPath id="clip0_2256_15637">
<rect width="28" height="25.21" fill="white" transform="translate(10 11)"/>
</clipPath>
</defs>
</svg>
