<svg width="48" height="48" viewBox="0 0 48 48" fill="none" xmlns="http://www.w3.org/2000/svg">
<g clip-path="url(#clip0_2256_15583)">
<path d="M32.4802 29.8201V23.5401C33.149 23.4004 33.7728 23.0969 34.2956 22.6569C34.8183 22.2168 35.2237 21.654 35.4755 21.0187C35.7272 20.3834 35.8173 19.6957 35.7379 19.017C35.6584 18.3383 35.4118 17.69 35.0202 17.1301C34.5615 16.5254 33.9469 16.0569 33.2422 15.775C32.5375 15.4932 31.7693 15.4085 31.0202 15.5301C30.4891 15.5868 29.9735 15.7428 29.5002 15.9901C29.3482 16.0778 29.1757 16.124 29.0002 16.124C28.8246 16.124 28.6522 16.0778 28.5002 15.9901C28.0268 15.7428 27.5112 15.5868 26.9802 15.5301C23.9102 15.1401 21.2002 17.6301 22.7602 21.3801C22.9257 21.7958 23.1741 22.1734 23.4902 22.4901C24.0542 22.998 24.7454 23.3436 25.4902 23.4901V29.77C24.5267 29.9695 23.666 30.5064 23.0632 31.284C22.4604 32.0617 22.155 33.0289 22.202 34.0117C22.249 34.9945 22.6454 35.9283 23.3197 36.6448C23.9941 37.3613 24.902 37.8135 25.8802 37.9201C26.0333 37.93 26.187 37.93 26.3402 37.9201C27.115 37.9207 27.8741 37.7023 28.5302 37.2901C28.6739 37.2047 28.838 37.1596 29.0052 37.1596C29.1723 37.1596 29.3364 37.2047 29.4802 37.2901C30.2693 37.6973 31.1538 37.8839 32.0402 37.83C32.7572 37.8203 33.4544 37.5938 34.0402 37.1801C34.6952 36.7153 35.2005 36.0697 35.4943 35.3222C35.788 34.5746 35.8574 33.7577 35.694 32.9713C35.5306 32.185 35.1414 31.4633 34.5742 30.8947C34.0069 30.3262 33.2862 29.9353 32.5002 29.77L32.4802 29.8201ZM32.8602 35.6101C32.5882 35.7836 32.2728 35.8772 31.9502 35.8801C30.5102 35.8801 30.1102 35.4501 29.8102 34.9701C29.7201 34.8259 29.5948 34.7072 29.4461 34.625C29.2973 34.5427 29.1301 34.4997 28.9602 34.5001V34.5001C28.7902 34.4997 28.623 34.5427 28.4743 34.625C28.3255 34.7072 28.2002 34.8259 28.1102 34.9701C28.0273 35.1154 27.9265 35.2498 27.8102 35.3701C27.5637 35.6242 27.2581 35.8131 26.9206 35.92C26.5832 36.0269 26.2245 36.0485 25.8767 35.9828C25.5289 35.917 25.2028 35.766 24.9276 35.5433C24.6525 35.3206 24.4369 35.0331 24.3002 34.7066C24.1635 34.3801 24.1099 34.0247 24.1442 33.6724C24.1786 33.3201 24.2998 32.9818 24.497 32.6878C24.6942 32.3939 24.9612 32.1534 25.2742 31.988C25.5871 31.8226 25.9362 31.7374 26.2902 31.7401H26.4002C26.5361 31.7462 26.6718 31.7245 26.799 31.6764C26.9263 31.6282 27.0423 31.5546 27.1402 31.46C27.2377 31.3671 27.3154 31.2554 27.3686 31.1317C27.4219 31.008 27.4496 30.8748 27.4502 30.7401V22.6201C27.451 22.4837 27.4239 22.3486 27.3706 22.223C27.3173 22.0975 27.2389 21.9841 27.1402 21.89C26.9363 21.7101 26.672 21.6137 26.4002 21.6201C26.1039 21.6386 25.8071 21.5937 25.5294 21.4885C25.2518 21.3834 24.9998 21.2202 24.7902 21.01C24.4335 20.657 24.2137 20.1889 24.1697 19.6891C24.1258 19.1892 24.2606 18.6899 24.5502 18.2801C24.8048 17.974 25.1363 17.7414 25.5107 17.606C25.8851 17.4707 26.2887 17.4375 26.6802 17.51C26.9748 17.5184 27.262 17.6042 27.513 17.7586C27.764 17.9131 27.9699 18.1308 28.1102 18.39C28.1993 18.537 28.3248 18.6585 28.4746 18.7428C28.6243 18.8271 28.7933 18.8714 28.9652 18.8714C29.137 18.8714 29.306 18.8271 29.4558 18.7428C29.6055 18.6585 29.731 18.537 29.8202 18.39C29.9604 18.1308 30.1664 17.9131 30.4174 17.7586C30.6684 17.6042 30.9556 17.5184 31.2502 17.51C31.6407 17.4385 32.0432 17.471 32.4171 17.6045C32.791 17.7379 33.1232 17.9674 33.3802 18.27C33.6666 18.6828 33.7995 19.1829 33.7556 19.6834C33.7118 20.184 33.494 20.6533 33.1402 21.01C32.9282 21.22 32.6744 21.3828 32.3953 21.4879C32.1161 21.5931 31.8179 21.6381 31.5202 21.6201C31.2512 21.6132 30.9899 21.7098 30.7902 21.89C30.6914 21.9841 30.613 22.0975 30.5597 22.223C30.5064 22.3486 30.4793 22.4837 30.4802 22.6201V30.7401C30.4802 31.0053 30.5855 31.2596 30.7731 31.4472C30.9606 31.6347 31.2149 31.7401 31.4802 31.7401C31.7843 31.7217 32.0888 31.7691 32.373 31.879C32.6572 31.9889 32.9143 32.1588 33.1269 32.3771C33.3395 32.5954 33.5025 32.8569 33.6049 33.1439C33.7073 33.4309 33.7466 33.7365 33.7202 34.0401C33.7 34.3486 33.6126 34.6491 33.464 34.9203C33.3155 35.1915 33.1093 35.4269 32.8602 35.6101V35.6101Z" fill="#495057"/>
<path d="M18.9592 31.77C18.6933 31.9808 18.4008 32.1557 18.0892 32.29C17.7893 32.4411 17.4694 32.5489 17.1392 32.61L18.0692 34.73C18.131 34.8671 18.1575 35.0174 18.1462 35.1673C18.135 35.3172 18.0864 35.4619 18.0048 35.5882C17.9233 35.7145 17.8114 35.8184 17.6794 35.8903C17.5474 35.9623 17.3995 36 17.2492 36.0001H15.3192C15.1683 36.0009 15.0196 35.9638 14.8868 35.8922C14.754 35.8205 14.6413 35.7166 14.5592 35.59C14.4747 35.4648 14.4238 35.3198 14.4115 35.1692C14.3993 35.0186 14.426 34.8673 14.4892 34.73L15.4192 32.6201H15.3092C15.0144 32.5563 14.7287 32.4555 14.4592 32.3201C14.1537 32.176 13.8652 31.9982 13.5992 31.79L12.6592 33.95C12.467 34.3921 12.3877 34.8751 12.4283 35.3555C12.469 35.8358 12.6283 36.2986 12.8921 36.7021C13.1558 37.1056 13.5157 37.4373 13.9393 37.6674C14.363 37.8974 14.8371 38.0186 15.3192 38.02H17.2492C17.7326 38.0202 18.2085 37.8995 18.6334 37.6689C19.0583 37.4383 19.4188 37.1051 19.6821 36.6996C19.9455 36.2942 20.1033 35.8294 20.1412 35.3474C20.1791 34.8654 20.0959 34.3817 19.8992 33.9401L18.9592 31.77Z" fill="#495057"/>
<path d="M13.5996 16.22C13.8656 16.0118 14.1541 15.8341 14.4596 15.69C14.7803 15.5496 15.1157 15.4456 15.4596 15.38L14.5296 13.26C14.4664 13.1244 14.4396 12.9748 14.4518 12.8257C14.4641 12.6766 14.515 12.5334 14.5996 12.41C14.6796 12.2814 14.7919 12.1759 14.9252 12.104C15.0585 12.0321 15.2082 11.9963 15.3596 12H17.2896C17.4392 11.999 17.5865 12.0361 17.7177 12.1078C17.849 12.1795 17.9597 12.2836 18.0396 12.41C18.1242 12.5334 18.1751 12.6766 18.1874 12.8257C18.1997 12.9748 18.1729 13.1244 18.1096 13.26L17.1796 15.38H17.2896C17.5844 15.4438 17.87 15.5446 18.1396 15.68C18.4454 15.8276 18.7339 16.0087 18.9996 16.22L19.9396 14.06C20.1369 13.619 20.2204 13.1356 20.1826 12.654C20.1449 12.1724 19.987 11.7079 19.7234 11.3031C19.4598 10.8982 19.0989 10.566 18.6738 10.3366C18.2486 10.1072 17.7727 9.98803 17.2896 9.99001H15.3596C14.8766 9.98893 14.401 10.1085 13.9759 10.3379C13.5509 10.5672 13.1898 10.8991 12.9256 11.3034C12.6613 11.7077 12.5023 12.1717 12.4628 12.653C12.4234 13.1344 12.5047 13.6181 12.6996 14.06L13.5996 16.22Z" fill="#495057"/>
<path d="M19.9701 26.16C20.3586 25.5066 20.5625 24.7601 20.56 24C20.5613 23.2369 20.3575 22.4874 19.9701 21.83C19.9593 21.8136 19.9535 21.7945 19.9535 21.775C19.9535 21.7554 19.9593 21.7363 19.9701 21.72C20.4938 20.8382 20.6811 19.7968 20.4973 18.7878C20.3135 17.7789 19.7711 16.8704 18.9701 16.23C18.7043 16.0187 18.4158 15.8376 18.11 15.69C17.8405 15.5546 17.5549 15.4537 17.26 15.39H17.15C16.583 15.2698 15.9971 15.2698 15.43 15.39C15.0862 15.4556 14.7507 15.5595 14.43 15.6999C14.1245 15.844 13.836 16.0218 13.57 16.23C12.771 16.8763 12.2305 17.7881 12.047 18.7993C11.8635 19.8105 12.0491 20.8541 12.57 21.74C12.5814 21.7542 12.5876 21.7718 12.5876 21.79C12.5876 21.8082 12.5814 21.8258 12.57 21.84C12.1753 22.4948 11.9678 23.2454 11.9701 24.0099C11.9691 24.7699 12.1729 25.516 12.56 26.17C12.5722 26.1857 12.5788 26.2051 12.5788 26.225C12.5788 26.2449 12.5722 26.2642 12.56 26.28C12.011 27.2143 11.8359 28.3219 12.07 29.38C12.2892 30.3245 12.8171 31.169 13.57 31.78C13.836 31.9881 14.1245 32.1659 14.43 32.31C14.6996 32.4454 14.9852 32.5462 15.2801 32.61H15.39C15.6735 32.6652 15.9613 32.6952 16.2501 32.6999C16.5394 32.6969 16.8277 32.6634 17.11 32.6C17.4402 32.5388 17.7601 32.431 18.06 32.28C18.3716 32.1456 18.6642 31.9708 18.93 31.7599C19.7291 31.1136 20.2696 30.2019 20.4531 29.1907C20.6366 28.1794 20.451 27.1359 19.93 26.25C19.93 26.25 19.9401 26.2 19.9701 26.16ZM15.77 30.65C15.357 30.5507 14.9799 30.338 14.6813 30.0358C14.3827 29.7337 14.1745 29.3542 14.08 28.94C13.9497 28.3771 14.0429 27.7855 14.34 27.29C14.5359 26.9656 14.6394 26.5939 14.6394 26.215C14.6394 25.8361 14.5359 25.4643 14.34 25.14C14.1347 24.7953 14.0275 24.4012 14.0301 24C14.0272 23.5956 14.1344 23.1981 14.34 22.85C14.5361 22.5275 14.6397 22.1574 14.6397 21.78C14.6397 21.4026 14.5361 21.0324 14.34 20.71C14.1388 20.36 14.032 19.9637 14.0301 19.56C14.0301 19.2187 14.1065 18.8818 14.2536 18.5738C14.4006 18.2658 14.6147 17.9946 14.88 17.78C15.285 17.4537 15.7901 17.2772 16.31 17.28C16.4917 17.2807 16.6727 17.3008 16.85 17.34C17.2631 17.4393 17.6401 17.652 17.9387 17.9541C18.2373 18.2562 18.4456 18.6358 18.54 19.05C18.6704 19.6129 18.5772 20.2044 18.2801 20.6999C18.0863 21.0251 17.984 21.3965 17.984 21.775C17.984 22.1534 18.0863 22.5249 18.2801 22.85C18.4857 23.1981 18.5929 23.5956 18.59 24C18.5877 24.4005 18.4809 24.7934 18.2801 25.14C18.0842 25.4643 17.9807 25.8361 17.9807 26.215C17.9807 26.5939 18.0842 26.9656 18.2801 27.29C18.4868 27.634 18.5941 28.0286 18.59 28.43C18.5908 28.7758 18.5129 29.1171 18.3622 29.4283C18.2115 29.7396 17.992 30.0124 17.7204 30.2263C17.4487 30.4402 17.1319 30.5895 16.794 30.6629C16.4561 30.7363 16.106 30.7319 15.77 30.65Z" fill="#61ABFF"/>
</g>
<defs>
<clipPath id="clip0_2256_15583">
<rect width="23.77" height="28" fill="white" transform="translate(12 10)"/>
</clipPath>
</defs>
</svg>
